<?xml version="1.0" encoding="UTF-8" standalone="no"?>
<!DOCTYPE svg PUBLIC "-//W3C//DTD SVG 1.0//EN" "http://www.w3.org/TR/2001/REC-SVG-20010904/DTD/svg10.dtd">
<!-- Created with Inkscape (http://www.inkscape.org/) -->
<svg
   xmlns:svg="http://www.w3.org/2000/svg"
   xmlns="http://www.w3.org/2000/svg"
   version="1.0"
   width="800"
   height="800"
   id="svg2">
  <defs
     id="defs4" />
  <path
     d="M 15.586991,441.21204 C 38.391795,650.8534 226.85891,802.29259 436.49334,779.42337 C 646.12767,756.55416 797.50902,568.04059 774.57541,358.41328 C 751.77061,148.77192 563.30349,-2.6672674 353.66916,20.20194 C 144.03473,43.071156 -7.3466186,231.58473 15.586991,441.21204 L 15.586991,441.21204 z"
     id="path3791"
     style="fill:#0a00f5;fill-opacity:1;fill-rule:nonzero;stroke:none;stroke-width:0.09545487;stroke-linecap:round;stroke-linejoin:miter;stroke-miterlimit:4;stroke-dasharray:none;stroke-opacity:1" />
  <path
     d="M 117.72356,470.61828 L 124.81737,494.31909 L 154.38471,472.98909 L 154.31738,472.76416 L 117.72356,470.61828 z M 170.12764,460.37042 L 174.47259,474.88712 L 102.84435,530.30175 L 98.092355,514.42508 L 114.34774,502.27139 L 104.57343,469.61487 L 84.211316,468.04776 L 79.460359,452.17455 L 170.12764,460.37042 z M 133.14624,556.55154 L 154.71126,590.25034 L 144.3424,596.88573 L 114.7382,550.62442 L 185.92067,505.07231 L 193.95986,517.63482 L 133.14624,556.55154 z M 156.29195,612.1035 L 164.48646,602.91701 L 244.54386,594.07548 L 207.35581,560.9031 L 215.55032,551.7166 L 267.22165,597.80832 L 259.02714,606.99482 L 178.70827,615.60311 L 218.19025,650.82171 L 209.99574,660.00821 L 156.29195,612.1035 z M 239.16904,677.48698 L 274.54209,600.73616 L 323.98922,623.52544 L 318.83657,634.70541 L 282.93467,618.15889 L 273.76937,638.04534 L 304.61928,652.2635 L 299.46815,663.4402 L 268.61823,649.22204 L 257.86692,672.54974 L 294.52006,689.4425 L 289.36741,700.62248 L 239.16904,677.48698 z M 387.86612,633.68639 L 402.66215,635.53434 L 392.18862,719.39282 L 377.03775,717.50055 L 341.4912,651.62861 L 341.25464,651.59907 L 333.69988,712.08786 L 318.90027,710.23946 L 329.37379,626.38098 L 344.87951,628.31757 L 380.00183,694.72988 L 380.23839,694.75942 L 387.86612,633.68639 z M 432.73006,683.62285 L 457.09838,679.35252 L 439.37656,647.49136 L 439.14529,647.53188 L 432.73006,683.62285 z M 428.68772,630.37939 L 443.61327,627.76382 L 490.26118,705.387 L 473.93736,708.2476 L 463.7703,690.68114 L 430.19404,696.56508 L 426.25388,716.60371 L 409.93362,719.46369 L 428.68772,630.37939 z M 483.70313,616.25589 L 509.66949,666.52245 C 511.009,669.11556 512.67678,671.13994 514.67286,672.59562 C 516.6689,674.05135 518.85229,675.01049 521.22302,675.47306 C 523.59371,675.93568 526.05519,675.92991 528.60745,675.45577 C 531.15966,674.98167 533.62748,674.12901 536.01092,672.89778 C 538.39429,671.6666 540.51837,670.14721 542.38318,668.33959 C 544.2479,666.53204 545.67764,664.52771 546.67241,662.32658 C 547.66709,660.12554 548.14792,657.79013 548.1149,655.32035 C 548.08178,652.85067 547.39549,650.31926 546.05602,647.72613 L 520.08966,597.45957 L 533.34067,590.61445 L 559.63197,641.51003 C 561.98601,646.06722 563.21713,650.42725 563.32533,654.59011 C 563.43341,658.75306 562.62884,662.65497 560.9116,666.29583 C 559.19425,669.93677 556.69717,673.26967 553.42035,676.29456 C 550.14343,679.3195 546.29596,681.97309 541.87793,684.25533 C 537.46196,686.5365 533.07181,688.13825 528.70748,689.06057 C 524.3431,689.98292 520.17991,690.09053 516.21791,689.3834 C 512.25589,688.67629 508.6087,687.07405 505.27633,684.57668 C 501.94395,682.07934 499.10072,678.55209 496.74662,673.99492 L 470.45532,623.09935 L 483.70313,616.25589 z M 572.31916,552.23772 L 618.28446,585.22515 C 620.65566,586.92689 623.06099,587.97285 625.50047,588.36303 C 627.93995,588.75327 630.32077,588.61603 632.64293,587.95128 C 634.96509,587.28661 637.15537,586.16342 639.21378,584.58171 C 641.27217,583.00007 643.08343,581.11951 644.64756,578.94001 C 646.21165,576.76059 647.41383,574.44218 648.2541,571.98476 C 649.09433,569.52743 649.45766,567.09237 649.34409,564.67957 C 649.23048,562.26688 648.59805,559.96788 647.4468,557.78259 C 646.29552,555.59742 644.53429,553.65394 642.16312,551.95217 L 596.19782,518.96475 L 604.89379,506.84761 L 651.43428,540.24782 C 655.60145,543.23852 658.67866,546.56362 660.66592,550.22312 C 662.65311,553.88275 663.70865,557.72437 663.83255,561.74798 C 663.95637,565.77171 663.24562,569.87518 661.70031,574.05843 C 660.15494,578.24176 657.93259,582.35341 655.03326,586.3934 C 652.13527,590.4315 648.95169,593.85257 645.4825,596.65664 C 642.01327,599.46075 638.35321,601.44763 634.50232,602.61728 C 630.65141,603.78696 626.6744,604.01617 622.57127,603.30493 C 618.46814,602.59371 614.33299,600.74278 610.16578,597.75214 L 563.62529,564.35193 L 572.31916,552.23772 z M 607.2794,498.64549 L 625.22042,447.24034 L 636.84311,451.29679 L 623.81674,488.62035 L 644.49066,495.8358 L 655.684,463.76428 L 667.30328,467.81955 L 656.10993,499.89107 L 691.98407,512.41157 L 687.06942,526.49316 L 607.2794,498.64549 z M 663.79775,424.81573 L 664.36461,408.61067 C 664.54944,403.32816 663.66283,399.32978 661.70477,396.61553 C 659.7468,393.90137 656.99291,392.48219 653.44307,392.35796 C 649.58049,392.2229 646.60034,393.36259 644.50261,395.77705 C 642.40502,398.19161 641.28998,401.29168 641.15748,405.07726 L 640.49554,424.00061 L 663.79775,424.81573 z M 711.18397,441.39703 L 626.72563,438.44264 L 628.03311,401.06524 C 628.16014,397.43609 628.69202,394.07889 629.62876,390.99361 C 630.56566,387.90845 631.97938,385.29351 633.86994,383.1488 C 635.76065,381.00422 638.16721,379.35109 641.08962,378.18943 C 644.01218,377.02791 647.52387,376.51884 651.62471,376.66222 C 654.77986,376.77266 657.46612,377.30095 659.68352,378.2471 C 661.90101,379.19339 663.75175,380.46231 665.23575,382.05388 C 666.71984,383.64557 667.89683,385.54212 668.76675,387.74351 C 669.63674,389.94503 670.26327,392.35484 670.64633,394.97293 L 670.88098,394.98114 C 671.31824,389.23279 673.07902,385.16919 676.16332,382.79033 C 679.24769,380.41161 683.51055,379.31739 688.95192,379.50766 L 701.84665,379.95872 C 704.28939,380.04424 706.41131,379.74318 708.21242,379.05553 C 710.01354,378.36802 711.77094,377.22531 713.48462,375.62739 L 712.8473,393.8468 C 710.98858,395.04445 709.01338,395.64582 706.92169,395.65091 C 704.83,395.65611 703.0742,395.63385 701.65428,395.58412 L 690.77029,395.2034 C 687.69463,395.09586 685.28506,395.13025 683.54156,395.30655 C 681.79812,395.48296 680.47595,396.04874 679.57506,397.0039 C 678.67423,397.95916 678.07078,399.41873 677.7647,401.38262 C 677.45869,403.34661 677.24636,406.02405 677.12771,409.41495 L 676.57336,425.26262 L 711.70537,426.49156 L 711.18397,441.39703 z"
     id="text2422"
     style="font-size:118.36312103px;font-style:normal;font-variant:normal;font-weight:normal;font-stretch:normal;text-align:start;line-height:100%;writing-mode:lr-tb;text-anchor:start;fill:#ffffff;fill-opacity:1;stroke:none;stroke-width:1px;stroke-linecap:butt;stroke-linejoin:miter;stroke-opacity:1;font-family:Folio LT Medium;-inkscape-font-specification:'Folio LT Medium,'" />
  <path
     d="M 372.33372,192.12476 C 486.94812,179.62135 590.36842,262.46462 602.87188,377.07899 C 615.37529,491.69337 532.27762,595.14153 417.66322,607.64488 C 303.04879,620.14829 199.85519,537.02282 187.35173,422.40844 C 174.84833,307.79407 257.71934,204.62811 372.33372,192.12476 z M 374.027,207.64633 C 267.82801,219.23165 191.28795,314.51621 202.87331,420.71521 C 214.45873,526.91415 309.77094,603.70867 415.96993,592.1233 C 522.16895,580.53799 598.93567,484.97123 587.35036,378.77223 C 575.76488,272.57324 480.22602,196.06097 374.027,207.64633 z"
     id="path3793"
     style="fill:#ffffff;fill-opacity:1;fill-rule:nonzero;stroke:none;stroke-width:1.91016829;stroke-linecap:round;stroke-linejoin:miter;stroke-miterlimit:4;stroke-dasharray:none;stroke-opacity:1" />
  <path
     d="M 81.279708,345.67037 L 94.42304,292.83456 L 106.3692,295.80626 L 96.826265,334.16857 L 118.07556,339.4545 L 126.27565,306.4904 L 138.2183,309.46123 L 130.01821,342.42533 L 166.89076,351.59768 L 163.29036,366.07117 L 81.279708,345.67037 z M 162.31202,222.58467 C 156.9224,221.19502 152.11917,221.30534 147.90232,222.91562 C 143.68552,224.52608 140.27035,227.4455 137.65679,231.67389 C 135.95429,234.33256 134.83325,237.36355 134.29367,240.76685 C 133.75417,244.1703 133.94986,247.66919 134.88073,251.26353 C 135.81168,254.858 137.52941,258.39366 140.03393,261.87053 C 142.53853,265.34749 145.984,268.49045 150.37035,271.29942 C 154.62291,274.02275 158.8633,275.77817 163.09153,276.56568 C 167.31979,277.35325 171.28244,277.3845 174.9795,276.65941 C 178.67656,275.93439 182.04374,274.55343 185.08105,272.51651 C 188.11834,270.47967 190.57333,267.9991 192.44601,265.07481 C 195.76537,259.89151 196.9412,255.09265 195.97351,250.67823 C 195.00577,246.26392 192.41044,241.72088 188.18751,237.04908 L 196.61258,223.89298 C 200.15071,226.99958 202.95193,230.52565 205.01625,234.47118 C 207.08052,238.41687 208.38187,242.53017 208.92031,246.81109 C 209.45868,251.09214 209.24824,255.40829 208.28899,259.75956 C 207.32967,264.11092 205.61564,268.21411 203.14692,272.06914 C 199.78465,277.31944 195.72051,281.58047 190.95446,284.85222 C 186.18839,288.12403 181.08006,290.35736 175.62947,291.55222 C 170.17888,292.74711 164.53833,292.81306 158.7078,291.75006 C 152.87731,290.6871 147.20409,288.38943 141.68814,284.85705 C 136.23917,281.36757 131.79513,277.18622 128.356,272.31298 C 124.91696,267.43982 122.60049,262.27825 121.40657,256.82825 C 120.21276,251.37836 120.10478,245.80455 121.08265,240.1068 C 122.06062,234.40919 124.2307,228.93522 127.59288,223.68486 C 129.89156,220.09554 132.66488,217.04533 135.91285,214.5342 C 139.1609,212.02326 142.67154,210.12579 146.44479,208.84179 C 150.21809,207.55799 154.19557,206.94318 158.37723,206.99734 C 162.55893,207.05171 166.74251,207.76275 170.928,209.13047 L 162.31202,222.58467 z M 243.83949,159.0219 L 260.00128,150.09823 C 264.1458,147.80991 266.74481,145.29313 267.79833,142.54788 C 268.85181,139.80277 268.59332,136.92581 267.02286,133.917 C 265.33712,130.69965 263.21114,128.80843 260.64492,128.24334 C 258.07867,127.67842 254.72328,128.54011 250.57875,130.82841 L 233.48412,140.26714 L 243.83949,159.0219 z M 280.04558,182.97066 C 285.36429,180.03397 288.5243,176.98256 289.52561,173.81642 C 290.52683,170.65036 290.03575,167.27121 288.05237,163.67895 C 285.95367,159.87809 283.2478,157.63036 279.93475,156.93576 C 276.62164,156.24127 272.85805,157.0574 268.64397,159.38414 L 249.78802,169.79538 L 262.43235,192.69573 L 280.04558,182.97066 z M 214.47729,136.69962 L 246.70285,118.90641 C 250.08636,117.03832 253.33137,115.65165 256.43789,114.74641 C 259.5444,113.84137 262.44625,113.54575 265.14344,113.85956 C 267.8406,114.17357 270.30816,115.13279 272.54612,116.73721 C 274.78404,118.34183 276.78007,120.73255 278.53422,123.90937 C 280.44079,127.36253 281.48419,130.43672 281.66443,133.13195 C 281.8446,135.82733 281.57806,138.16069 280.86483,140.13202 C 280.15153,142.1035 279.17629,143.72373 277.93909,144.99271 C 276.70182,146.26183 275.67201,147.2128 274.84965,147.84561 L 274.96488,148.05431 C 280.65813,145.63157 285.99183,145.21044 290.966,146.79092 C 295.94008,148.37154 300.06719,152.13214 303.34734,158.07272 C 304.94892,160.97352 305.89143,163.94594 306.17486,166.98997 C 306.45818,170.0341 306.13589,172.96147 305.208,175.77208 C 304.27999,178.58276 302.74591,181.23226 300.60575,183.72056 C 298.46549,186.20893 295.77109,188.34994 292.52255,190.14361 L 255.32607,210.68149 L 214.47729,136.69962 z M 332.92427,142.38971 L 357.21392,137.69251 L 338.93584,106.14717 L 338.70532,106.19175 L 332.92427,142.38971 z M 327.94843,89.225361 L 342.82579,86.348335 L 390.82837,163.14116 L 374.55726,166.28772 L 364.08356,148.90233 L 330.6157,155.37444 L 327.02772,175.47911 L 310.76014,178.62498 L 327.94843,89.225361 z M 407.52232,136.23199 L 380.73744,80.222639 L 397.73204,81.49481 L 416.17143,122.16219 L 439.63501,84.631557 L 456.63322,85.903998 L 422.39529,137.34534 L 420.10684,167.91618 L 405.23386,166.80282 L 407.52232,136.23199 z M 455.6488,173.19683 L 486.24533,94.419977 L 536.99774,114.13196 L 532.54087,125.60706 L 495.69124,111.29485 L 487.76355,131.70626 L 519.42783,144.0045 L 514.97227,155.47624 L 483.30799,143.17799 L 474.00846,167.1215 L 511.62915,181.73318 L 507.17228,193.20829 L 455.6488,173.19683 z M 560.34891,171.94661 L 572.93481,182.17012 C 577.03753,185.50281 580.76187,187.20644 584.10786,187.28102 C 587.45371,187.35562 590.24641,186.01441 592.48599,183.25741 C 594.92279,180.25745 595.81056,177.1928 595.14929,174.06346 C 594.48786,170.93416 592.6871,168.17535 589.74701,165.78703 L 575.04991,153.84859 L 560.34891,171.94661 z M 518.54819,199.75116 L 571.83161,134.15531 L 600.86134,157.73611 C 603.67992,160.02575 606.03745,162.47439 607.93392,165.08203 C 609.8302,167.68973 611.06384,170.39429 611.63484,173.19572 C 612.20564,175.99718 612.07333,178.91383 611.2379,181.94567 C 610.40228,184.97753 608.69092,188.08596 606.10382,191.27098 C 604.11323,193.72144 602.07202,195.54588 599.98019,196.74431 C 597.88817,197.94275 595.75992,198.65406 593.59542,198.87825 C 591.43076,199.10243 589.20807,198.89782 586.92736,198.2644 C 584.64649,197.63098 582.34626,196.67774 580.02668,195.40467 L 579.87865,195.58692 C 584.20078,199.40187 586.38084,203.25681 586.41882,207.15173 C 586.45666,211.04663 584.75917,215.10716 581.32635,219.33332 L 573.19127,229.34821 C 571.65013,231.24536 570.61083,233.11967 570.07338,234.97116 C 569.53581,236.82256 569.38775,238.91357 569.62918,241.24418 L 555.4788,229.74985 C 555.64413,227.54489 556.35538,225.60654 557.61257,223.93481 C 558.86967,222.26301 559.94614,220.87574 560.84198,219.77296 L 567.70852,211.31975 C 569.64886,208.93096 571.07435,206.98797 571.985,205.49078 C 572.89552,203.99356 573.2414,202.59764 573.02264,201.30301 C 572.80375,200.00836 572.00323,198.64686 570.62108,197.2185 C 569.23881,195.79014 567.23089,194.00631 564.59732,191.86702 L 552.28898,181.86898 L 530.12475,209.15479 L 518.54819,199.75116 z M 675.81617,249.64515 L 683.74457,262.2736 L 612.17112,307.20889 L 604.05258,294.27758 L 632.58423,225.07777 L 632.45747,224.87586 L 580.83011,257.28859 L 572.89979,244.65708 L 644.47324,199.72178 L 652.78193,212.95595 L 623.5634,282.16903 L 623.69016,282.37094 L 675.81617,249.64515 z"
     id="text2394"
     style="font-size:118.36312103px;font-style:normal;font-variant:normal;font-weight:normal;font-stretch:normal;text-align:start;line-height:100%;writing-mode:lr-tb;text-anchor:start;fill:#ffffff;fill-opacity:1;stroke:none;stroke-width:1px;stroke-linecap:butt;stroke-linejoin:miter;stroke-opacity:1;font-family:Folio LT Medium;-inkscape-font-specification:'Folio LT Medium,'" />
  <path
     d="M 44.135382,438.09758 C 65.225117,631.96771 239.51402,772.01403 433.3778,750.86525 C 627.2415,729.71649 767.23462,555.38485 746.02682,361.5276 C 724.93709,167.65746 550.64818,27.611143 356.78449,48.759911 C 162.92071,69.908688 22.927582,244.24032 44.135382,438.09758 L 44.135382,438.09758 z"
     id="path3777"
     style="fill:none;fill-opacity:1;fill-rule:nonzero;stroke:#ffffff;stroke-width:15.64575386;stroke-linecap:round;stroke-linejoin:miter;stroke-miterlimit:4;stroke-dasharray:none;stroke-opacity:1" />
  <path
     d="M 393.78843,206.49063 C 387.25215,206.5407 380.70571,206.90738 374.06826,207.63147 C 361.25303,209.02947 348.92131,211.74662 337.07257,215.45435 L 333.65006,220.99555 L 386.2915,276.40759 L 427.52458,209.26124 C 416.52134,207.39579 405.25468,206.40276 393.78843,206.49063 z M 386.2915,276.40759 L 344.89545,343.55395 L 397.37391,398.96599 L 438.76997,331.81964 L 386.2915,276.40759 z M 438.76997,331.81964 L 491.41143,387.23168 L 532.97046,319.92234 L 480.32902,264.5103 L 438.76997,331.81964 z M 480.32902,264.5103 L 497.76752,235.9894 C 476.70865,222.79168 453.00338,213.73613 427.85053,209.42421 L 480.32902,264.5103 z M 532.97046,319.92234 L 585.6119,375.33439 L 586.75274,373.54164 C 582.38815,341.56981 570.2823,312.48362 552.69063,287.81595 L 532.97046,319.92234 z M 585.6119,375.33439 L 544.05287,442.64372 L 573.71461,473.93523 C 585.84769,444.80711 591.0668,412.32642 587.40465,378.7569 C 587.33862,378.15182 587.31312,377.56724 587.24167,376.96415 L 585.6119,375.33439 z M 544.05287,442.64372 L 491.41143,387.23168 L 450.01535,454.37804 L 502.65682,509.79008 L 544.05287,442.64372 z M 502.65682,509.79008 L 461.26074,577.09942 L 464.35729,580.35895 C 489.17701,570.83647 511.36733,556.50533 529.87391,538.47396 L 502.65682,509.79008 z M 461.26074,577.09942 L 408.6193,521.68737 L 367.06026,588.99671 L 369.50491,591.60433 C 384.58653,593.60037 400.14936,593.81732 415.95324,592.09326 C 430.52356,590.50376 444.52812,587.36527 457.83823,582.8036 L 461.26074,577.09942 z M 367.06026,588.99671 L 314.41882,533.58467 L 294.86163,565.20213 C 316.28062,578.22779 340.26399,587.06274 365.75645,590.95243 L 367.06026,588.99671 z M 314.41882,533.58467 L 355.81488,466.27533 L 303.33641,410.86328 L 261.94036,478.17262 L 314.41882,533.58467 z M 261.94036,478.17262 L 209.13594,422.76058 L 204.24664,430.58345 C 204.2552,430.63686 204.23804,430.69308 204.24664,430.74643 C 209.29626,462.03069 221.71017,490.4559 239.44959,514.5164 L 261.94036,478.17262 z M 209.13594,422.76058 L 250.69497,355.45124 L 218.26263,321.38913 C 205.50503,350.11505 199.66072,382.33174 202.4539,415.75258 L 209.13594,422.76058 z M 250.69497,355.45124 L 303.33641,410.86328 L 344.89545,343.55395 L 292.25401,288.14191 L 250.69497,355.45124 z M 292.25401,288.14191 L 333.65006,220.99555 L 330.39053,217.57304 C 305.1763,226.48132 282.54592,240.37641 263.57013,257.99124 L 292.25401,288.14191 z M 355.81488,466.27533 L 408.6193,521.68737 L 450.01535,454.37804 L 397.37391,398.96599 L 355.81488,466.27533 z"
     id="rect3823"
     style="fill:#ffffff;fill-opacity:1;fill-rule:nonzero;stroke:none;stroke-width:3;stroke-linecap:round;stroke-linejoin:miter;stroke-miterlimit:4;stroke-dasharray:none;stroke-opacity:1" />
  <path
     d="M 204.0301,420.65452 C 215.54079,526.16913 310.40846,602.37431 415.92308,590.86363 C 521.43769,579.35294 597.64287,484.48527 586.13219,378.97065 C 574.6215,273.45603 479.75383,197.25085 374.23921,208.76154 C 268.72459,220.27222 192.51941,315.1399 204.0301,420.65452 z"
     id="path3878"
     style="fill:none;fill-opacity:1;fill-rule:nonzero;stroke:#0a00f5;stroke-width:5.21525097;stroke-linecap:round;stroke-linejoin:miter;stroke-miterlimit:4;stroke-dasharray:none;stroke-opacity:1" />
  <path
     d="M 555.92091,568.48106 L 598.94449,655.84538"
     id="path3880"
     style="fill:#ffffff;fill-rule:evenodd;stroke:#ffffff;stroke-width:5.21525097px;stroke-linecap:butt;stroke-linejoin:miter;stroke-opacity:1" />
  <path
     d="M 137.62029,401.41066 C 137.62029,408.61141 131.78291,414.44879 124.58216,414.44879 C 117.38141,414.44879 111.54404,408.61141 111.54404,401.41066 C 111.54404,394.20991 117.38141,388.37253 124.58216,388.37253 C 131.78291,388.37253 137.62029,394.20991 137.62029,401.41066 z"
     id="path3884"
     style="fill:#ffffff;fill-opacity:1;fill-rule:nonzero;stroke:#ffffff;stroke-width:5.21525097;stroke-linecap:round;stroke-linejoin:miter;stroke-miterlimit:4;stroke-dasharray:none;stroke-opacity:1" />
  <path
     d="M 672.80439,330.01137 C 672.80439,337.21212 666.96701,343.0495 659.76626,343.0495 C 652.56551,343.0495 646.72814,337.21212 646.72814,330.01137 C 646.72814,322.81062 652.56551,316.97324 659.76626,316.97324 C 666.96701,316.97324 672.80439,322.81062 672.80439,330.01137 z"
     id="path3886"
     style="fill:#ffffff;fill-opacity:1;fill-rule:nonzero;stroke:#ffffff;stroke-width:5.21525097;stroke-linecap:round;stroke-linejoin:miter;stroke-miterlimit:4;stroke-dasharray:none;stroke-opacity:1" />
</svg>
