<?xml version="1.0" encoding="utf-8"?>
<!-- Generator: Adobe Illustrator 22.1.0, SVG Export Plug-In . SVG Version: 6.00 Build 0)  -->
<svg version="1.1"
	 id="Livello_1" xmlns:cc="http://creativecommons.org/ns#" xmlns:dc="http://purl.org/dc/elements/1.1/" xmlns:rdf="http://www.w3.org/1999/02/22-rdf-syntax-ns#"
	 xmlns="http://www.w3.org/2000/svg" xmlns:xlink="http://www.w3.org/1999/xlink" x="0px" y="0px" width="807.8px"
	 height="1241.7px" viewBox="0 0 807.8 1241.7" style="enable-background:new 0 0 807.8 1241.7;" xml:space="preserve">
<style type="text/css">
	.st0{fill:#1A2F48;stroke:#ECECEC;stroke-width:2;stroke-miterlimit:10;}
	.st1{fill:#FEFEFD;}
	.st2{fill:#A21C26;}
	.st3{fill:#ECECEC;}
</style>
<path class="st0" d="M403.7,1c-11,0-22,0.7-32.9,2.1c-38.8,4.7-76.2,18.1-109.9,37.6c-55.3,32.1-100.3,79.5-136,132
	c-44.6,65.9-75.5,140.4-95.5,217.3C14.3,448.7,5.4,509.1,2.4,569.7c-0.8,11.2-0.7,22.4-1.4,33.6v32.8C1.9,662,2.8,688,5.4,713.8
	c4.4,45.6,12.1,91,23.4,135.4c17.4,67.7,43.1,133.5,79.3,193.5c23.6,39.1,51.6,75.7,84.8,107.1c25.9,24.5,55.1,45.8,87.2,61.5
	c35.5,17.6,74.8,27.7,114.4,29.4h18.1c40.1-1.6,79.7-11.8,115.6-29.7c29.8-14.6,57.1-34.1,81.6-56.5c53.3-49,93.6-110.8,123.9-176.3
	c39.6-86.6,61.7-180.7,69.7-275.5c5.6-69.6,4.3-139.9-4.9-209.1c-10.9-81-32.4-161-67.1-235.1c-16.9-36-36.9-70.6-60.5-102.7
	c-20.9-28.4-44.5-54.9-71.4-77.7c-26.2-22.4-55.5-41.3-87.2-54.7C478.1,8.8,440.9,1,403.7,1L403.7,1z"/>
<g>
	<path class="st1" d="M430.1,92.4c2.2-0.8,4.6-0.3,6.7,0.3c11.4,3.7,23,6.6,34,11.3c7.2,3.1,14.4,7,19.9,12.7
		c0.1-13.4,0.1-26.8,0-40.2c-18.2-7.2-36.7-14.1-55.9-18.2c-7.2-1.7-14.6-1.5-21.9-1.3c-10.6,0.2-21.2,1.5-31.8,2.5
		c3.6,6.5,7.5,13.4,7.6,21.1c0,62.3,0,124.7,0,187c0.7,8.8-4.6,16.4-8.8,23.6c18.5,0.1,37,0,55.5,0c-4.4-7.1-7.5-15.2-7.7-23.7
		c0-24.6,0.1-49.2,0-73.8c7.8-0.7,15.6-0.3,23.3-0.3c6,0,11.3,3.3,14.8,8c0-15.8,0-31.6,0-47.4c-5.9,2.9-12,5.9-18.7,5.7
		c-6.5,0-13-0.1-19.6,0c-0.3-19.7,0-39.5-0.2-59.2C427.3,97.8,427.1,94,430.1,92.4z"/>
	<path class="st1" d="M336,174.9c12.6-17.1,20.1-39,16-60.2c-2-10.2-8.4-19.3-17-24.9c-10.8-7.1-24.4-9.4-37-7.1
		c-9.2,1.7-17.1,7-24.7,12.2c-18.6,13.3-35.5,28.8-52.3,44.2c6.1,0.7,9.5,6.8,9.7,12.5c0.5,17.3-0.2,34.7,0.3,52
		c-0.2,13-0.3,26,0,38.9c-0.6,9,0.4,17.9-0.3,26.8c-0.3,8.5-4,16.5-9.9,22.6c30.7,0.2,61.4,0.3,92.1,0.4c7.4,0,14.4-2.8,21.1-5.7
		c17-7.8,32-21.8,37.3-40.1c4-14.3,3.3-30.1-2.4-43.8C363.2,189,350.5,178.6,336,174.9z M266.5,143.1c7.2-7.5,15.1-14.7,24.6-19.1h0
		c4.2-2,9.2-2.9,13.8-1.5c5.4,2.2,8.5,7.9,9.6,13.3c1.4,5.8-0.3,12-3.4,17c-4.9,8-12.3,13.9-20,19.1c-7.8,5-16,9.4-24.6,12.6
		C266.5,170.7,266.5,156.9,266.5,143.1z M326.2,249.1c-10.8,6.6-23.8,7.8-36.2,8.9c-7.5,0.2-15,0.4-22.5-0.3c0-11,0-22,0-33
		c9.7-8.8,21.8-15.3,34.6-18c8.5-1.6,18.3-1.2,25,4.9c5.7,5.1,8.3,12.7,8.9,20.1C336.6,238.8,332.2,245.5,326.2,249.1z"/>
	<path class="st1" d="M575.8,243c-9,6.6-20.5,12-31.9,9.4c-8.4-1.5-15.8-7.2-19.7-14.8c-5.7-10.8-6.2-23.4-5.7-35.3
		c0.7-11.3,3-23,9.8-32.3c6.5-9.2,19-14.4,29.9-10.6c5.2,1.6,9.5,5.2,13.2,9l0.6-0.4c4.7-8.2,8.9-16.6,13.6-24.8
		c0.5-1.1,1.6-2.6,0.5-3.7c-6.9-9.2-17.7-15.3-29.1-17.2c-10.5-2-21.5-0.1-31.2,4.3h0c-16.6,7.3-29.6,21.5-36.8,38
		c-8.4,19.1-10,40.6-7.5,61.2c2,16.1,7.7,32.3,19,44.3c11.8,12.6,29.3,19.4,46.5,19.1c14.5,0,29.8-4.6,39.9-15.5
		C583.4,263.4,579.3,253.3,575.8,243z"/>
</g>
<path class="st1" d="M707.3,274.7c5,12.5,10.8,24.7,15.5,37.4c31.7,81.5,48.7,168.4,53.6,255.6c1.7,26.8,1.5,53.8,1.1,80.6
	c-37,0-74.1,0-111.2,0V367.7c0.2-12.2-0.3-24.4,0.2-36.6c2.2-3.3,5.3-5.9,7.8-8.9c11.8-13.4,22.6-27.8,32.2-42.9
	C707.6,277.9,708.1,276.3,707.3,274.7z"/>
<path class="st2" d="M88.2,304c3-7.2,5.8-14.4,9.2-21.4c3.7,5.8,7.8,11.3,11.7,16.9c2.1,3.3,0.8,7.5,1.1,11.3
	c-0.1,225.1,0.1,450.2-0.1,675.4c-6.8-12.5-12.3-25.6-18-38.7c-35.6-84.8-54.7-176.1-60.5-267.8c-0.4-13.3-1.6-26.6-1.5-39.9
	c0-21.7-0.4-43.4,0.8-65.1C35.6,482.2,53.7,390,88.2,304z"/>
<g>
	<path class="st1" d="M443.5,318.1c-5.5-5.4-13.5-8.2-21.1-6.8h0c-6.7,1.3-12.6,5.7-16.6,11.1c-6.3,8.4-9.2,18.8-9.5,29.2
		c-0.3,10.9,2.2,22.2,8.5,31.4c4.3,6.1,10.6,11.5,18.2,12.7c8.4,1.6,16.9-2.4,22.5-8.6c8.6-9.6,12-22.8,11.7-35.4
		C456.6,339.5,452.7,326.7,443.5,318.1z M434.2,372.9c-2.2,3-6,5.3-9.8,4.3c-4.5-1.3-7.2-5.5-9-9.5c-4-9.6-3.8-20.7,0.4-30.2
		c1.8-3.9,4.9-7.8,9.3-8.8c3.4-0.7,6.7,1.5,8.8,4c4.6,5.6,5.9,13,6.3,20C440,359.7,438.6,367.1,434.2,372.9z"/>
	<path class="st1" d="M523.1,335.7c-1.8-10.2-9.2-19.1-19-22.5c-6.9-2.9-14.7-1.6-21.5,0.9v0c-7.1,2.7-12.4,9-13.9,16.4
		c-1.2,7.5-0.9,16.1,4.2,22.1c6.1,7.5,16.4,9.6,25.6,9.7c-1.4,3.3-3.6,6.5-6.9,8.1c-5.9,3.1-12.8,2.2-19.1,1.4c0,3.7,0,7.5,0,11.2
		c8.9,3.4,19.2,3.1,27.9-0.8c9.8-4.2,17.5-12.7,20.9-22.7C524.3,352,524.3,343.6,523.1,335.7z M505.6,339.8
		c-0.6,6.8-9.2,11.6-14.8,7.1c-7-4.8-5.5-17,2.6-19.7C500.7,324.9,507.3,332.9,505.6,339.8z"/>
	<path class="st1" d="M371.3,319.3c-8.8-8.6-23.3-9.4-33.5-3c-8.7,5.1-14.2,15.3-13.5,25.4c-0.1,9.8,4.6,20.8,14.4,24.2
		c7.5,2.3,15.4-0.2,22.8-1.8c0.2,5.3-2.1,11.3-7.6,13c-8.8,2.8-17.6-1.9-25.6-5.3c0.1,4.4-0.4,8.9,0.2,13.2c6.7,5,15,7.8,23.4,7.5
		c10,0.1,19.4-6,24.7-14.3c4.8-7.6,6.4-16.7,6.1-25.5C382.8,340.8,380.1,327.9,371.3,319.3z M359.1,348.9c-3.2,3.4-9,4.5-12.7,1.4
		c-7.1-5.8-6.2-19.8,3-23c4.3-1.3,9.4,0.3,11.5,4.4C363.7,337,364.1,344.7,359.1,348.9z"/>
	<path class="st1" d="M278.6,323.1c0,3.5,0,6.9,0,10.4c4.4,0.1,8.9,0.1,13-1.6c0,15,0,30,0,45c6.6,2.6,13.2,5.4,19.9,7.8
		c0-23.5,0-46.9,0-70.4c-5.6-0.2-11.2-0.7-16.8-1.1C292,319.7,285.2,322.7,278.6,323.1z"/>
</g>
<path class="st2" d="M551.8,411.5c32.5-14.3,62.8-33.5,89.6-56.8c0.2,106.2,0,212.4,0.1,318.6c45,0,90,0,135,0
	c-1.7,31.6-5.4,63.1-10,94.5c-41.7,0-83.3,0-125,0v210.8c0.1,32.8-0.2,65.6,0.1,98.5c-26.4,33.7-57,64.7-92.8,88.5
	c0.1-132.6,0-265.2,0.1-397.8c-43.9,0-87.8,0-131.6,0c0-31.5,0-63,0-94.5c43.9,0,87.7,0,131.6,0c0-86.3,0-172.5,0-258.8
	C548.5,412.8,550.6,412.2,551.8,411.5L551.8,411.5z"/>
<path class="st2" d="M211.3,391.5c32.6,19.3,68.1,33.6,104.9,42.1c0.1,253.9,0,507.8,0.1,761.7c-39.4-14.8-74.6-39.2-105.1-68
	C211.3,882,211.2,636.8,211.3,391.5L211.3,391.5z"/>
<path class="st1" d="M487.1,433.4c12.5-2.9,24.8-6.8,37.1-10.6c0,74,0,147.9,0,221.9c-0.3,1.1,0.7,3.8-1.2,3.6
	c-35.3,0.1-70.5,0-105.8,0.1c0-68.5,0-136.9,0-205.4C440.7,441.9,464.2,438.8,487.1,433.4L487.1,433.4z"/>
<path class="st1" d="M417.2,792.9c35.6,0,71.3-0.1,106.9,0.1c0.1,129.2,0,258.4,0.1,387.5c-33,17.6-69.6,29-107,30.9
	C417.2,1071.9,417.2,932.4,417.2,792.9L417.2,792.9z"/>
<path class="st1" d="M666.4,792.9c31.8,0,63.7-0.1,95.5,0c-16.5,84.3-45.1,167-90.3,240.3c-2.1,3.4-4.4,6.8-6.2,10.4
	c1.6-3.1,0.8-6.7,1-10.1C666.4,953.4,666.4,873.1,666.4,792.9z"/>
<path class="st3" d="M403.7,31c32.7,0,66.1,6.9,96.7,20l0,0l0,0c27.6,11.7,54.3,28.5,79.4,49.9l0,0l0,0
	c23.4,19.9,45.8,44.3,66.7,72.6c21.4,29.1,40.7,62,57.5,97.7c31.8,68,53.5,144.2,64.6,226.4c8.7,65.2,10.3,133.3,4.8,202.7
	c-8.3,96.9-30.8,186.2-67.1,265.5l0,0c-31.5,68.3-70.8,124.4-116.8,166.6c-23.8,21.7-48.8,39.1-74.5,51.7l-0.1,0l-0.1,0
	c-31.8,15.9-67.3,25-102.8,26.5h-16.8c-35.1-1.6-70.2-10.7-101.8-26.3l-0.1,0l-0.1,0c-27.8-13.6-54.7-32.6-79.8-56.4
	c-29.1-27.5-55.9-61.4-79.7-100.8c-32.8-54.4-58.3-116.8-75.9-185.4c-10.7-42.1-18.4-86.1-22.7-130.9l0-0.1l0-0.1
	c-2.6-24.9-3.4-50.4-4.3-75.1v-31.5c0.3-5,0.4-10,0.5-14.7c0.2-6.1,0.3-11.9,0.7-17.4l0-0.4l0-0.4c3-59.6,11.9-118.1,26.2-173.7
	c20.5-78.8,51.2-148.8,91.3-208c36.9-54.4,79.3-95.7,126.2-122.9c31.1-18.1,65.2-29.8,98.5-33.8l0.1,0l0.1,0
	C384.2,31.6,394,31,403.7,31L403.7,31 M403.7,1c-11,0-22,0.7-32.9,2.1c-38.8,4.7-76.2,18.1-109.9,37.6
	c-55.3,32.1-100.3,79.5-136,132c-44.6,65.9-75.5,140.4-95.5,217.3C14.3,448.7,5.4,509.1,2.4,569.7c-0.8,11.2-0.7,22.4-1.4,33.6v32.8
	C1.9,662,2.8,688,5.4,713.8c4.4,45.6,12.1,91,23.4,135.4c17.4,67.7,43.1,133.5,79.3,193.5c23.6,39.1,51.6,75.7,84.8,107.1
	c25.9,24.5,55.1,45.8,87.2,61.5c35.5,17.6,74.8,27.7,114.4,29.4h18.1c40.1-1.6,79.7-11.8,115.6-29.7c29.8-14.6,57.1-34.1,81.6-56.5
	c53.3-49,93.6-110.8,123.9-176.3c39.6-86.6,61.7-180.7,69.7-275.5c5.6-69.6,4.3-139.9-4.9-209.1c-10.9-81-32.4-161-67.1-235.1
	c-16.9-36-36.9-70.6-60.5-102.7c-20.9-28.4-44.5-54.9-71.4-77.7c-26.2-22.4-55.5-41.3-87.2-54.7C478.1,8.8,440.9,1,403.7,1L403.7,1z
	"/>
</svg>
