<?xml version="1.0" encoding="UTF-8"?>
<svg width="403.75pt" height="531.1pt" version="1.2" viewBox="0 0 403.75 531.1" xmlns="http://www.w3.org/2000/svg" xmlns:cc="http://creativecommons.org/ns#" xmlns:dc="http://purl.org/dc/elements/1.1/" xmlns:rdf="http://www.w3.org/1999/02/22-rdf-syntax-ns#">
<defs>
  <clipPath id="clip46">
   <path d="m0 127.4h595.27v78.805h-595.27z"/>
  </clipPath>
  <clipPath id="clip47">
   <path d="m0 145h595.27v61.203h-595.27z"/>
  </clipPath>
  <clipPath id="clip48">
   <path d="m0 176h595.27v30.203h-595.27z"/>
  </clipPath>
  <clipPath id="clip49">
   <path d="m0 127.4h200v78.805h-200z"/>
  </clipPath>
  <clipPath id="clip50">
   <path d="m0 127.4h215v78.805h-215z"/>
  </clipPath>
  <clipPath id="clip51">
   <path d="m0 127.4h231v78.805h-231z"/>
  </clipPath>
  <clipPath id="clip52">
   <path d="m0 127.4h246v78.805h-246z"/>
  </clipPath>
  <clipPath id="clip53">
   <path d="m0 127.4h261v78.805h-261z"/>
  </clipPath>
  <clipPath id="clip54">
   <path d="m0 127.4h277v78.805h-277z"/>
  </clipPath>
  <clipPath id="clip55">
   <path d="m0 127.4h307v78.805h-307z"/>
  </clipPath>
  <clipPath id="clip56">
   <path d="m0 127.4h338v78.805h-338z"/>
  </clipPath>
  <clipPath id="clip57">
   <path d="m0 127.4h368v78.805h-368z"/>
  </clipPath>
  <clipPath id="clip58">
   <path d="m0 127.4h399v78.805h-399z"/>
  </clipPath>
  <clipPath id="clip59">
   <path d="m0 127.4h429v78.805h-429z"/>
  </clipPath>
  <clipPath id="clip60">
   <path d="m0 127.4h460v78.805h-460z"/>
  </clipPath>
  <clipPath id="clip61">
   <path d="m0 127.4h490v78.805h-490z"/>
  </clipPath>
  <clipPath id="clip62">
   <path d="m0 127.4h521v78.805h-521z"/>
  </clipPath>
  <clipPath id="clip63">
   <path d="m0 127.4h552v78.805h-552z"/>
  </clipPath>
  <clipPath id="clip64">
   <path d="m0 127.4h582v78.805h-582z"/>
  </clipPath>
  <clipPath id="clip65">
   <path d="m0 127.4h595.27v78.805h-595.27z"/>
  </clipPath>
  <clipPath id="clip67">
   <path d="m0 127.4h595.27v78.805h-595.27z"/>
  </clipPath>
 </defs>
 <g transform="translate(-7.8013 -9.3564)">
  <g transform="translate(-33.941,-167.73)" clip-path="url(#clip46)" fill="#ebebeb">
   <path d="m1437.9-419.55-15.391-15.391-861.62 861.61v4e-3l-1876.9 1876.9 15.391 15.391 1876.9-1876.9z"/>
   <path d="m1453-404.39-2738.5 2738.5 15.391 15.391 2738.5-2738.5z"/>
   <path d="m1483.6-373.84-2738.5 2738.5 15.391 15.391 2738.5-2738.5z"/>
   <path d="m1514.1-343.3-861.62 861.62h4e-3l-1876.9 1876.9 15.391 15.391 2738.5-2738.5z"/>
   <path d="m1544.7-312.75-2738.5 2738.5 15.391 15.391 2738.5-2738.5z"/>
   <path d="m1575.2-282.2-2738.5 2738.5 15.391 15.391 2738.5-2738.5z"/>
   <path d="m1605.8-251.65-2738.5 2738.5 15.391 15.387 2738.5-2738.5z"/>
   <path d="m1651.7-205.71-15.391-15.391-2738.5 2738.5 15.391 15.391 1876.9-1876.9z"/>
   <path d="m1682.3-175.16-15.391-15.387-2738.5 2738.5 15.391 15.391z"/>
   <path d="m1712.8-144.61-15.391-15.391-2738.5 2738.5 15.391 15.391 1876.9-1876.9z"/>
   <path d="m1743.5-113.7-15.395-15.391-2738.5 2738.5 15.391 15.391 1497.1-1497.1z"/>
   <path d="m1758.6-98.543-2738.6 2738.6 15.391 15.391 2738.5-2738.5z"/>
   <path d="m1789.2-67.992-2738.5 2738.5 15.395 15.391 2738.5-2738.5z"/>
   <path d="m1819.7-37.445-2738.5 2738.5 15.391 15.391 2738.5-2738.5z"/>
   <path d="m1850.3-6.8945-2738.5 2738.5 15.391 15.391 2738.5-2738.5z"/>
   <path d="m1880.8 23.652-2738.5 2738.5 15.391 15.391 2738.5-2738.5z"/>
   <path d="m1911.4 54.203-2738.5 2738.5 15.395 15.391 2738.5-2738.5z"/>
   <path d="m1957.3 100.14-15.391-15.391-2738.5 2738.5 15.391 15.391 1497.1-1497.1z"/>
   <path d="m1987.9 130.69-15.391-15.391-2738.5 2738.5 15.391 15.387 1877.6-1877.6z"/>
  </g>
  <g transform="translate(-33.941,-167.73)" clip-path="url(#clip47)">
   <path d="m2018.4 161.24-15.391-15.391-2738.5 2738.5 15.391 15.391 1497.1-1497.1z" fill="#ebebeb"/>
  </g>
  <g transform="translate(-33.941,-167.73)" clip-path="url(#clip48)">
   <path d="m2049.3 191.9-15.391-15.395-2738.5 2738.5 15.391 15.391 1876.9-1876.9z" fill="#ebebeb"/>
  </g>
  <g transform="translate(-33.941,-167.73)" clip-path="url(#clip49)">
   <path d="m184.31-1673.1-860.93 860.94-1877.6 1877.6 15.394 15.391 2738.6-2738.6z" fill="#fff"/>
  </g>
  <g transform="translate(-33.941,-167.73)" clip-path="url(#clip50)">
   <path d="m214.98-1642.4-15.391-15.391-2738.5 2738.5 15.387 15.391 1110.3-1110.3z" fill="#ebebeb"/>
  </g>
  <g transform="translate(-33.941,-167.73)" clip-path="url(#clip51)">
   <path d="m214.86-1642.6-2738.5 2738.5 15.391 15.395 2738.5-2738.5z" fill="#fff"/>
  </g>
  <g transform="translate(-33.941,-167.73)" clip-path="url(#clip52)">
   <path d="m230.13-1627.3-2738.5 2738.5 15.391 15.391 2738.5-2738.5z" fill="#ebebeb"/>
  </g>
  <g transform="translate(-33.941,-167.73)" clip-path="url(#clip53)">
   <path d="m245.41-1612-860.93 860.94-1877.6 1877.6 15.391 15.391 2738.5-2738.5z" fill="#fff"/>
  </g>
  <g transform="translate(-33.941,-167.73)" clip-path="url(#clip54)">
   <path d="m260.68-1596.7-2738.5 2738.5 15.394 15.391 2738.5-2738.5z" fill="#ebebeb"/>
  </g>
  <g transform="translate(-33.941,-167.73)" clip-path="url(#clip55)">
   <path d="m291.23-1566.2-2738.6 2738.6 15.391 15.391 2738.5-2738.5z" fill="#ebebeb"/>
  </g>
  <g transform="translate(-33.941,-167.73)" clip-path="url(#clip56)">
   <path d="m321.78-1535.6-2738.5 2738.5 15.391 15.391 2738.5-2738.5z" fill="#ebebeb"/>
  </g>
  <g transform="translate(-33.941,-167.73)" clip-path="url(#clip57)">
   <path d="m352.33-1505.1-2738.5 2738.5 15.391 15.391 2738.5-2738.5z" fill="#ebebeb"/>
  </g>
  <g transform="translate(-33.941,-167.73)" clip-path="url(#clip58)">
   <path d="m382.88-1474.5-1243.5 1243.5-384.71 384.7v4e-3l-1110.3 1110.3 15.391 15.391 2738.5-2738.5z" fill="#ebebeb"/>
  </g>
  <g transform="translate(-33.941,-167.73)" clip-path="url(#clip59)">
   <path d="m428.82-1428.6-15.391-15.391-2738.5 2738.5 15.391 15.395 1110.3-1110.3z" fill="#ebebeb"/>
  </g>
  <g transform="translate(-33.941,-167.73)" clip-path="url(#clip60)">
   <path d="m459.36-1398.1-15.391-15.391-2738.5 2738.5 15.391 15.391z" fill="#ebebeb"/>
  </g>
  <g transform="translate(-33.941,-167.73)" clip-path="url(#clip61)">
   <path d="m489.91-1367.5-15.391-15.391-2738.5 2738.5 15.391 15.391z" fill="#ebebeb"/>
  </g>
  <g transform="translate(-33.941,-167.73)" clip-path="url(#clip62)">
   <path d="m520.57-1336.6-15.391-15.394-2738.5 2738.5 15.391 15.391 1876.9-1876.9z" fill="#ebebeb"/>
  </g>
  <g transform="translate(-33.941,-167.73)" clip-path="url(#clip63)">
   <path d="m535.73-1321.4-2738.5 2738.5 15.395 15.391 2738.5-2738.5z" fill="#ebebeb"/>
  </g>
  <g transform="translate(-33.941,-167.73)" clip-path="url(#clip64)">
   <path d="m566.28-1290.9-2738.5 2738.5 15.391 15.391 2738.5-2738.5z" fill="#ebebeb"/>
  </g>
  <g transform="translate(-33.941,-167.73)" clip-path="url(#clip65)">
   <g fill="#ebebeb">
    <path d="m596.82-1260.3-861.61 861.62-1876.9 1876.9 15.387 15.391 2738.5-2738.5z"/>
    <path d="m627.38-1229.8-2738.5 2738.5 15.391 15.391 2738.5-2738.5z"/>
    <path d="m657.92-1199.2-2738.5 2738.5 15.395 15.391 2738.5-2738.5z"/>
    <path d="m688.47-1168.7-2738.5 2738.5 15.391 15.391 2738.5-2738.5z"/>
    <path d="m734.41-1122.8-15.391-15.391-2738.5 2738.5 15.391 15.394 1877.6-1877.6z"/>
    <path d="m764.96-1092.2-15.391-15.391-2738.5 2738.5 15.391 15.391z"/>
    <path d="m795.51-1061.7-15.391-15.394-2738.5 2738.5 15.391 15.391 1877.6-1877.6z"/>
    <path d="m826.42-1031-15.391-15.391-2738.5 2738.5 15.391 15.391 1493.9-1493.9 382.98-382.97z"/>
    <path d="m841.58-1015.8-2738.5 2738.5 15.391 15.391 2738.5-2738.5z"/>
    <path d="m872.13-985.29-2738.5 2738.5 15.391 15.391 2738.5-2738.5z"/>
    <path d="m902.68-954.74-2738.5 2738.5 15.391 15.391 2738.5-2738.5z"/>
   </g>
   <path d="m933.23-924.2-2738.5 2738.5 15.391 15.391 2738.5-2738.5z" fill="#0c3582"/>
   <path d="m963.78-893.65-2738.5 2738.5 15.391 15.391 2738.5-2738.5z" fill="#f8b000"/>
  </g>
  <g transform="translate(-33.941,-167.73)" clip-path="url(#clip67)" fill="#ebebeb">
   <path d="m1345.9-511.31-15.391-15.391-2738.5 2738.5 15.391 15.391z"/>
   <path d="m1376.4-480.76-15.391-15.391-2738.5 2738.5 15.391 15.391 1877.6-1877.6z"/>
   <path d="m1407-450.21-15.391-15.391-2738.5 2738.5 15.391 15.391 1497.1-1497.1z"/>
  </g>
 </g>
 <g transform="matrix(3.3892 0 0 3.3892 -115.04 -568.47)" stroke-width=".29505">
  <path d="m144.01 280.9c6.4688-14.496 8.8203-30.891 9.0625-46.816v-51.722c-19.582-10.602-40.094-14.633-59.582-14.633-19.484 0-41.242 4.7227-59.547 14.633v51.722c0.24219 15.926 2.5938 32.32 9.0625 46.816 7.2188 16.852 19.137 30.918 37.141 38.973 4.1328 1.875 8.5742 3.4141 13.332 4.5586 0.01172 0 0.01953-4e-3 0.03125-8e-3 0.0078 4e-3 0.01953 8e-3 0.03125 8e-3 4.7578-1.1445 9.1953-2.6836 13.332-4.5586 18.004-8.0547 29.922-22.121 37.137-38.973" fill="#fff"/>
  <path d="m92.773 271.06v-45.352l-46.699 47.238c2.6133 6.8203 5.9297 13.363 9.9609 19.316l7.0195 8.8945z" fill="#f8b000"/>
  <path d="m45.75 232.05c-0.21094 0.0547-0.42188 0.10547-0.63672 0.16016l-5.4805-3.3555c0.0078 5.4453 0.17578 11.711 0.70703 17.5 0.76953 8.1289 2.5664 16.707 5.2656 24.871l0.12891 0.60937 45.902-45.914c-14.316 0.52344-30.926 2.6914-45.887 6.1289" fill="#0c3582"/>
  <path d="m149.09 233.18v-46.559c-18.273-9.8906-37.414-13.656-55.594-13.656-18.184 0-38.484 4.4102-55.562 13.656v48.262c0.22656 14.855 2.418 30.156 8.457 43.684 6.7344 15.723 17.852 28.848 34.652 36.359 3.8555 1.7539 8 3.1875 12.441 4.2578 0.0078-4e-3 0.01953-8e-3 0.02734-8e-3 0.0078 0 0.01563 4e-3 0.02734 8e-3 4.4414-1.0703 8.582-2.5039 12.441-4.2578 16.797-7.5117 27.918-20.641 34.652-36.363 6.0352-13.523 8.2305-28.824 8.457-43.68 0 0-4e-3 -1.1367 0-1.7031m-84.027 67.566 26.582-26.551v41.43c-10.914-2.3672-18.18-7.5312-26.582-14.879m-17.531-27.777 44.113-44.254v41.137l-28.711 28.707-6.3672-8.0703c-3.6562-5.3984-6.6641-11.336-9.0352-17.52m-6.707-42.355 4.9727 3.043c0.19141-0.0508 0.38281-0.0977 0.57812-0.14454 13.566-3.1172 28.633-5.082 41.621-5.5586l-41.641 41.645-0.11328-0.55469c-2.4492-7.4023-4.0781-15.184-4.7773-22.559-0.48047-5.25-0.63281-10.934-0.64063-15.871m-0.25-24.598c17.301 1.8203 35.543 2.8125 52.754 2.8594h0.04687c17.211-0.0469 35.453-1.0391 52.754-2.8594v20.832l-5.4258 3.3555c-15.562-3.5273-33.184-5.5625-47.328-5.5977h-0.04687c-14.145 0.0352-31.766 2.0703-47.324 5.5977l-5.4297-3.3555zm105.71-3.293c-12.984 2.2305-39.359 2.9922-52.773 3.0039-13.414-0.0117-39.789-0.77344-52.777-3.0039v-14.031c16.441-8.0312 34.129-12.52 52.777-12.543 18.648 0.0234 36.332 4.5117 52.773 12.543zm0.10547 27.891c-8e-3 4.9375-0.16406 10.621-0.64063 15.871-0.69922 7.375-2.332 15.156-4.7773 22.559l-0.0391 0.19532-0.0781 0.35937-0.0352-0.0351c-7.4024 21.695-22.398 41.121-46.027 46.266v-87.98c13.875 0.14063 30.84 2.1758 45.961 5.6406 0.22266 0.0586 0.44141 0.10937 0.66406 0.16797z"/>
  <path d="m118.05 202.08c0 0.72657 0.58984 1.3125 1.3164 1.3164 0.72656-4e-3 1.3125-0.58984 1.3125-1.3164v-19.191c0-0.72656-0.58594-1.3125-1.3125-1.3164-0.72656 4e-3 -1.3164 0.58985-1.3164 1.3164z"/>
  <path d="m90.707 201.38c-0.0039 0-2.4141-0.0703-3.6992-0.0703h-0.07421c-0.53516 0-1.2734-0.0273-1.9023-0.0625l-0.10938-4e-3v-20.652c-0.0039-0.72657-0.58984-1.3125-1.3164-1.3164-0.72656 4e-3 -1.3125 0.58984-1.3125 1.3164v21.684l-0.0039 8e-3c-0.0039 0.0352-0.0078 0.0703-0.01172 0.10157 0 0.0352-0.0039 0.0664-0.0039 0.0937 0 0.68359 0.52734 1.2578 1.2188 1.3125 0.02734 0 2.0781 0.14843 3.4375 0.14843h0.07812c1.2109 0 3.6211 0.0664 3.6289 0.0664 0.01172 4e-3 0.02344 4e-3 0.03906 4e-3 0.70703 0 1.2891-0.56641 1.3125-1.2774v-0.0391c0-0.71094-0.56641-1.293-1.2773-1.3125z"/>
  <path d="m114.64 200.91c-4e-3 0-2.4727 0.0937-3.6836 0.11718-0.50782 0.0117-1.0859 0.0312-1.6094 0.0508v-8.7969h3.4141c0.79297 0 1.4297-0.64063 1.4297-1.4297s-0.63672-1.4297-1.4297-1.4297h-3.4141v-6.6016c0.55469 0.0742 0.78516 0.10156 1.5156 0.19531 0.5039 0.0664 1.3672 0.20704 2.082 0.32422 0.71875 0.1211 1.3008 0.22657 1.3047 0.22657 0.082 0.0156 0.16797 0.0195 0.25 0.0195 0.67969 0 1.2812-0.48438 1.4024-1.1797 0.14062-0.77734-0.37891-1.5156-1.1562-1.6562-0.0117 0-2.3477-0.41406-3.5156-0.56641-1.1836-0.15625-1.0469-0.13672-3.125-0.40625-0.78515-0.10156-1.5 0.44922-1.6016 1.2305-0.0156 0.10547-0.0156 0.20703-8e-3 0.3086-4e-3 0.0352-4e-3 0.0703-4e-3 0.10546v21.145c0 0.59765 0.36719 1.1094 0.89063 1.3242h4e-3c0.0391 0.0156 0.082 0.0312 0.1211 0.043 8e-3 4e-3 0.0156 4e-3 0.0234 4e-3 0.0352 0.0117 0.0703 0.0234 0.10938 0.0273 0.0195 4e-3 0.043 8e-3 0.0625 0.0117 0.0234 4e-3 0.0508 8e-3 0.0742 0.0117 0.0469 4e-3 0.0937 8e-3 0.14453 8e-3 0.0195 0 0.043-4e-3 0.0664-4e-3 0 0 1.793-0.082 3.0234-0.10547 1.2617-0.0234 3.7344-0.11719 3.7383-0.11719 0.78907-0.0312 1.4024-0.69531 1.375-1.4844-0.0312-0.78907-0.69531-1.4024-1.4844-1.375"/>
  <path d="m96.039 203.94c0.01563 0 1.7188 0.0898 3.0352 0.0898 0.15234 0 0.29297 0 0.42969-4e-3 1.2578-0.0234 3.7227-0.0977 3.7305-0.0977 0.71093-0.0195 1.2773-0.60547 1.2773-1.3125v-0.0391c-0.0234-0.71485-0.60938-1.2774-1.3164-1.2774h-0.0352l-8e-3 -0.11328v0.11328c-4e-3 0-2.4726 0.0742-3.6953 0.0977-0.11719 4e-3 -0.25 4e-3 -0.38281 4e-3 -0.46484 0-1-0.0117-1.4844-0.0273l-0.125-4e-3 0.01563-0.125c0.26953-2.2031 0.97656-6.6172 2.5664-10.68 0.36328-0.9375 1.4453-3.3086 2.4141-5.3984 0.97265-2.0938 1.8438-3.9258 1.8476-3.9336 4e-3 -4e-3 8e-3 -0.0117 0.0156-0.0312 0.0117-0.0273 0.0234-0.0547 0.0312-0.0781 4e-3 -0.0156 0.0117-0.0352 0.0156-0.0586 0.0117-0.0234 0.0156-0.043 0.0195-0.0625 8e-3 -0.0234 0.0117-0.0469 0.0195-0.0703 0-0.0195 4e-3 -0.0352 8e-3 -0.0508 4e-3 -0.0273 8e-3 -0.0547 0.0117-0.0859 0-0.0117 0-0.0195 4e-3 -0.0234 0-4e-3 -4e-3 -8e-3 0-0.0156v-0.1366c0-0.0234-4e-3 -0.0469-4e-3 -0.0742-4e-3 -0.0234-4e-3 -0.043-8e-3 -0.0586 0-0.0156-4e-3 -0.0352-0.0117-0.0547-4e-3 -0.0273-8e-3 -0.0508-0.0117-0.0742-4e-3 -0.0117-8e-3 -0.0234-0.0117-0.043-8e-3 -0.0273-0.0156-0.0547-0.0234-0.0781-4e-3 -8e-3 -8e-3 -0.0195-0.0156-0.0391-0.0117-0.0312-0.0234-0.0547-0.0352-0.0781-4e-3 -0.0117-0.0117-0.0234-0.0195-0.043-0.0117-0.0273-0.0234-0.0508-0.0352-0.0664-0.0117-0.0156-0.0195-0.0352-0.0352-0.0586-0.0156-0.0156-0.0234-0.0352-0.0312-0.0469-0.0156-0.0195-0.0312-0.0391-0.0469-0.0586-0.0156-0.0195-0.0234-0.0312-0.0312-0.0391-0.0156-0.0195-0.0352-0.0352-0.0547-0.0586-0.0156-0.0117-0.0234-0.0234-0.0352-0.0352-0.0156-0.0117-0.0312-0.0273-0.0508-0.043-0.0195-0.0156-0.0352-0.0312-0.0469-0.0391-0.0117-0.0117-0.0273-0.0195-0.043-0.0312-0.0273-0.0195-0.0469-0.0352-0.0703-0.0469-8e-3 -4e-3 -0.0195-0.0117-0.0352-0.0195-0.0273-0.0156-0.0547-0.0312-0.082-0.0469-8e-3 -4e-3 -8e-3 -4e-3 -0.0117-4e-3l-0.0234-0.0117c-0.0273-0.0117-0.0547-0.0234-0.0859-0.0352-0.0117-4e-3 -0.0273-8e-3 -0.043-0.0117-0.0273-0.0117-0.0508-0.0195-0.0781-0.0234-0.0156-8e-3 -0.0391-0.0117-0.0625-0.0156-0.0195-4e-3 -0.0391-8e-3 -0.0586-0.0117-0.0234-4e-3 -0.0508-8e-3 -0.0781-0.0117-0.0195 0-0.0312-4e-3 -0.0391-4e-3 -4e-3 0-2.4961-0.1875-3.5781-0.28125-1.1602-0.10156-3.2656-0.19141-3.2812-0.19141-0.01953 0-0.03906-4e-3 -0.05859-4e-3 -0.69922 0-1.2812 0.55468-1.3125 1.2617 0 0.0195-0.0039 0.0391 0 0.0547-0.0039 0.58203 0.37891 1.082 0.91406 1.2539l-0.05469-0.0547 0.42188 0.11719h0.06641c0.0625 4e-3 0.14844 8e-3 0.25391 0.0117 0.21484 0.0117 0.51172 0.0273 0.84375 0.043 0.66016 0.0352 1.4609 0.082 1.9805 0.1289 0.39844 0.0352 0.97265 0.0781 1.543 0.125l0.16406 0.0117-0.0703 0.14844c-0.28516 0.61328-0.6211 1.3281-0.96875 2.0781-0.98047 2.1133-2.0508 4.4492-2.4805 5.5469-2.418 6.2148-2.8789 12.785-2.8906 12.863-0.0039 0.0352-0.0039 0.0664-0.0039 0.0977 0 0.46875 0.25 0.88671 0.64062 1.125 0.19141 0.13671 0.41797 0.22656 0.66797 0.24609z"/>
  <path d="m79.512 202.24-0.11328 0.0117c0-8e-3 -0.09766-0.9375-0.25391-2.0898-0.16016-1.1562-0.37109-2.5039-0.64453-3.4805-0.14453-0.51172-0.39062-1.1758-0.69531-1.9453-0.61328-1.5547-1.4453-3.4766-1.918-4.5469l-0.03125-0.0742 0.0625-0.0547c0.39062-0.34765 0.76562-0.71484 1.1133-1.1133 0.75-0.86328 1.3906-1.8633 1.6094-3.0703 0.11719-0.60547 0.17578-1.1562 0.17578-1.6602v-0.0156c0-0.84766-0.17578-1.582-0.45703-2.1719-0.28125-0.58984-0.66406-1.0234-0.96484-1.3164-0.4375-0.37891-0.65234-0.36328-0.86719-0.42188-0.19922-0.0312-0.35547-0.0352-0.51953-0.0391-0.59766 4e-3 -1.3047 0.0977-2.082 0.21484-0.76953 0.1211-1.5781 0.26953-2.2383 0.39844-0.57422 0.10938-1.2227 0.37109-1.7148 0.92969-0.48438 0.54687-0.71094 1.2969-0.71094 2.0508v18.285c0 0.72656 0.58984 1.3125 1.3125 1.3164 0.72656-4e-3 1.3164-0.58984 1.3164-1.3164v-9.3203l0.05859-0.0352c0.43359-0.23047 1.0039-0.5586 1.6328-0.96485l0.11328-0.0742 0.05078 0.125c0.19531 0.44141 0.41797 0.95704 0.64844 1.4961 0.33203 0.78125 0.67578 1.6133 0.96484 2.3438 0.28906 0.72656 0.52344 1.3711 0.61328 1.6953 0.19922 0.69922 0.41797 2.0273 0.56641 3.125 0.07422 0.55078 0.13672 1.0547 0.17969 1.418 0.03125 0.30078 0.05469 0.50391 0.0625 0.5625v0.0234c0.07031 0.67187 0.64062 1.1758 1.3086 1.1758 0.04297 0 0.08984 0 0.13672-4e-3 0.67578-0.0703 1.1797-0.64453 1.1797-1.3086 0-0.043-0.0039-0.0898-0.0078-0.13672zm-3.6836-16.883-0.0039 0.0234c-0.06641 0.4414-0.39062 1.0625-0.94531 1.6875-0.72266 0.83593-1.8008 1.6602-2.7617 2.2852v-5.4726c0-0.0859 0.0078-0.14844 0.01562-0.1836 0.02344-8e-3 0.05859-0.0195 0.09766-0.0273 0.63672-0.1211 1.418-0.26563 2.1328-0.37891 0.51172-0.0781 1.0078-0.14062 1.3398-0.16406 0.02734 0.043 0.05469 0.0859 0.07813 0.13672 0.08984 0.19531 0.17188 0.45703 0.17578 0.95312v8e-3c0 0.28906-0.03516 0.65625-0.125 1.1094z"/>
  <path d="m66.723 201.9c0-0.34766-0.0039-2.0274-0.0625-4-0.0625-1.9844-0.17578-4.2344-0.42188-5.832-0.24609-1.5703-0.70312-3.2109-1.1328-4.5664-0.42578-1.3477-0.83203-2.4414-0.9375-2.7539-0.06641-0.16015-0.09375-0.42187-0.39453-0.85937-0.14453-0.20313-0.39453-0.4336-0.68359-0.56641-0.28906-0.13672-0.59375-0.1875-0.86328-0.1875h-0.0039c-0.41406 4e-3 -1.7773 0.39063-2.0938 0.45703-0.15625 0.0312-0.33594 0.0664-0.5625 0.15625-0.21875 0.082-0.48828 0.23438-0.69922 0.44141-0.46875 0.46875-0.67188 0.91406-0.875 1.332-0.09375 0.20313-0.17188 0.39063-0.23047 0.53906-0.05469 0.13672-0.08984 0.23438-0.10938 0.27735-0.81641 1.8906-1.1719 2.875-1.5664 5.4531-0.21484 1.3438-0.41797 3.6797-0.58203 5.7266-0.15625 1.9727-0.26172 3.6524-0.26953 3.7578l-0.02734-4e-3 0.02734 8e-3c-0.0039 0.0312-0.0039 0.0586-0.0039 0.0859 0 0.6875 0.53516 1.2656 1.2305 1.3125 0.02734 0 0.05859 4e-3 0.08594 4e-3 0.6875 0 1.2656-0.53516 1.3125-1.2266 0-0.0195 0.10938-1.7109 0.26562-3.7344 0.07031-0.88672 0.15234-1.8359 0.23438-2.7266l0.01172-0.10157h5.5117l0.0078 0.10547c0.06641 0.97266 0.10938 2.0156 0.14062 2.9844 0.05859 1.9297 0.0625 3.5898 0.0625 3.918v0.0703c0.0039 0.72266 0.58984 1.3086 1.3164 1.3086h0.0039c0.72656-4e-3 1.3086-0.59375 1.3086-1.3164v-0.0625m-7.7812-9.8672c0.38672-2.332 0.55469-2.7031 1.3398-4.5781 0.05078-0.11328 0.08203-0.20703 0.13281-0.33593 0.07422-0.1836 0.17188-0.41407 0.26953-0.59766 0.02734-0.0508 0.05469-0.10156 0.07813-0.14062 0.1875-0.0391 0.5-0.0937 0.875-0.20704 0.1875 0.51954 0.45703 1.2812 0.74219 2.1875 0.35938 1.1328 0.73047 2.4609 0.95312 3.6719z"/>
  <path d="m50.824 202.14c0.77734 4e-3 1.7266-0.22266 2.0469-0.89062 0.14844-0.29297 0.17188-0.63282 0.17188-0.98438 0-0.13281-0.0039-0.26562-0.0039-0.39844v-4e-3c0-0.61719-0.0078-1.2383-0.01562-1.8594-0.01563-0.83594-0.51172-1.6406-1.2852-1.6328-0.15234 0-0.32031 0.0273-0.5 0.0977-0.73828 0.27734-0.86719 0.96093-0.87109 1.7305 0 0.39844 0.03906 0.80469 0.03906 1.1602v0.125l-0.12109-0.0117c-0.62891-0.0508-1.2539-0.10937-1.8789-0.17578-0.08203-0.0117-0.33594-0.0117-0.57812-0.0273-0.25-0.0273-0.46875-0.0234-0.61328-0.15625l-0.02344-0.0273-0.0039-0.0312c-0.03125-0.23047-0.05469-0.45703-0.07422-0.68359-0.08984-0.98438-0.13281-1.9727-0.14453-2.9609-0.0039-0.0781-0.0039-0.16015-0.0039-0.23828 0-1.1758 0.10547-2.3672 0.35156-3.5156 0.05469-0.22266 0.07813-0.67969 0.26953-0.91797l0.01172-0.0195 0.01953-8e-3c0.19922-0.10547 0.39844-0.1914 0.60156-0.27343 0.64062-0.26172 1.293-0.48438 1.9336-0.73047l0.15234-0.0586v0.16407c0 0.24609-0.01563 0.5039-0.01563 0.75781 0 0.38281 0.03906 0.74609 0.22266 1.0273 0.26172 0.41406 0.66406 0.59375 1.0703 0.59375 0.68359-4e-3 1.3516-0.5039 1.3555-1.3047v-2.4219c0.0039-0.86719-0.83594-1.7461-1.6992-1.8477-0.0625-8e-3 -0.12109-8e-3 -0.17969-8e-3 -0.60156-4e-3 -1.1406 0.36328-1.7539 0.60547-0.85547 0.33203-1.7227 0.60937-2.543 0.98437-0.8125 0.37891-1.3398 0.8086-1.6602 1.6445-0.28125 0.74609-0.43359 1.5508-0.54687 2.3438-0.15234 1.043-0.21094 2.0859-0.21094 3.1367 0 0.72266 0.02734 1.4492 0.07031 2.1758 0.04297 0.74218 0.03906 1.668 0.23828 2.4531 0.20312 0.78906 0.58984 1.418 1.4219 1.6367 1.4258 0.375 3 0.44531 4.4805 0.54297 0.08984 4e-3 0.17578 8e-3 0.26953 8e-3"/>
  <path d="m125.07 203.02c0.42578 0 1.1211 0.043 1.875 0.043 0.57422 0 1.1914-0.0234 1.8086-0.13281 0.61718-0.10938 1.25-0.28907 1.8438-0.72657 0.3789-0.28515 0.76171-0.67968 1.1055-1.2383 0.33594-0.55468 0.61329-1.2773 0.61329-2.125v-2.3476c-8e-3 -0.53125-0.14844-0.95703-0.32422-1.375-0.64063-1.4219-1.8984-2.875-3.0938-4.2422-0.59766-0.66797-1.1758-1.293-1.6289-1.8008-0.22656-0.25391-0.42187-0.47656-0.5664-0.65625-0.14063-0.16406-0.23047-0.28906-0.25-0.32422l-4e-3 -4e-3s-4e-3 0-4e-3 -0.0117c-0.10937-0.18359-0.1875-0.42187-0.1914-0.63671 0-8e-3 4e-3 -0.0156 4e-3 -0.0156 8e-3 -0.23047 0.0547-0.47656 0.39844-0.82812 0.11328-0.11719 0.24219-0.17969 0.41016-0.22657 0.16797-0.043 0.35547-0.0547 0.54297-0.0547h0.0742l8e-3 4e-3c0.48828 0.0937 1.1562 0.3125 1.6836 0.51172 0.28906 0.10938 0.53906 0.21094 0.71875 0.28516 0.0859 0.0391 0.15625 0.0703 0.20312 0.0898 0.0469 0.0195 0.0664 0.0312 0.0664 0.0312 0.17578 0.0781 0.35938 0.11328 0.53906 0.11328 0.50391 0 0.98047-0.28515 1.1992-0.77344 0.082-0.17578 0.11719-0.35937 0.11719-0.53906 0-0.5039-0.28516-0.98047-0.77344-1.1992l-0.0352-0.0156c-0.125-0.0547-0.54688-0.24219-1.1055-0.45313-0.66016-0.24609-1.4766-0.52343-2.2812-0.66406l-0.10938-0.0195h-0.28515c-0.26953 0-0.71094 8e-3 -1.2188 0.14062-0.50782 0.12891-1.1094 0.39844-1.6172 0.91016-0.79297 0.77734-1.168 1.7773-1.168 2.6484v0.043c4e-3 0.80078 0.25391 1.4766 0.56641 2.0078 0.16797 0.27344 0.33984 0.48828 0.5625 0.75391 0.76172 0.90234 2.0508 2.2383 3.1484 3.5547 0.54297 0.65235 1.0312 1.3008 1.3594 1.832 0.16406 0.26563 0.28125 0.4961 0.35156 0.66797 0.0352 0.0859 0.0547 0.15625 0.0664 0.20313 0 0.0156 4e-3 0.0234 4e-3 0.0391l4e-3 4e-3v2.3672c-4e-3 0.25391-0.0937 0.50782-0.23438 0.74219-0.14453 0.24219-0.34375 0.4336-0.42187 0.48828-0.0937 0.0781-0.33594 0.1836-0.73047 0.25-0.3789 0.0664-0.85547 0.0937-1.3438 0.0937h-0.0195c-0.35937 0-0.71484-0.0117-1.0547-0.0234l-0.10156-4e-3 -8e-3 -0.10156c-0.0117-0.16797-0.0195-0.35157-0.0195-0.51953 0-0.19141 8e-3 -0.36329 0.0156-0.48438 0-0.0625 4e-3 -0.11328 8e-3 -0.14062v-0.0432c4e-3 -0.0391 4e-3 -0.0781 4e-3 -0.11328 0-0.67579-0.51953-1.25-1.207-1.3086-0.0352 0-0.0703-4e-3 -0.10938-4e-3 -0.67578 0-1.25 0.51953-1.3047 1.207-4e-3 0.0234-0.0352 0.39453-0.0352 0.88672 4e-3 0.45703 0.0195 0.99218 0.14453 1.5508 0.0703 0.28906 0.14844 0.57812 0.38281 0.92578 0.11719 0.17187 0.28125 0.35547 0.52735 0.50781 0.23047 0.14844 0.55469 0.25 0.85156 0.25zm1.5117-15.094c-8e-3 -4e-3 -0.0117-4e-3 -0.0117-4e-3 4e-3 0 8e-3 0 0.0117 4e-3"/>
  <path d="m135.97 202.34h0.0624l0.0273-4e-3c0.44922-0.0195 1.5898-0.0625 2.7383-0.19922 0.58203-0.0664 1.1602-0.15625 1.6992-0.29688 0.55469-0.16406 1.0273-0.26562 1.5898-0.78515 0.38672-0.38282 0.64453-0.85938 0.77344-1.3047 0.13281-0.45313 0.15625-0.86719 0.15625-1.2383 0-0.35156-0.0234-0.66797-0.0352-0.95313-0.0508-0.86718-0.41796-1.5586-0.84765-2.1602-0.65235-0.89844-1.5078-1.6328-2.2891-2.25-0.76954-0.60157-1.4961-1.0898-1.7461-1.2852-0.15234-0.11719-0.2539-0.25391-0.32812-0.42969-0.0742-0.17968-0.11719-0.39843-0.11719-0.625v-0.0274c4e-3 -0.29297 0.082-0.57031 0.14844-0.69531l0.0156-0.0234c0.0234-0.0234 0.0742-0.0664 0.16016-0.10547 0.0937-0.043 0.20703-0.0742 0.32812-0.0742h8e-3c0.0742 0 0.15625 0.0117 0.23828 0.0391 0.43359 0.13282 1.1094 0.41016 1.6523 0.64844 0.26953 0.1211 0.51172 0.23047 0.68359 0.3125 0.15235 0.0664 0.2461 0.11328 0.26954 0.1211l4e-3 4e-3c0.1836 0.0859 0.375 0.12891 0.5625 0.12891 0.49219 0 0.96485-0.27735 1.1914-0.75 0.0859-0.1836 0.125-0.375 0.125-0.56641 0-0.49219-0.27344-0.96094-0.73828-1.1836-0.0508-0.0195-1.7383-0.83594-2.957-1.2227-0.34375-0.10937-0.69532-0.16015-1.0312-0.16015-0.60157 0-1.1562 0.15234-1.6328 0.41406-0.47656 0.26172-0.89062 0.6289-1.1758 1.1367-0.32031 0.59765-0.47656 1.2617-0.48047 2 0 0.52734 0.0898 1.0859 0.32032 1.6406 0.22656 0.54688 0.60937 1.0898 1.1523 1.5039 0.26953 0.20703 0.62891 0.45312 1.0586 0.76562 0.64063 0.46485 1.4024 1.0625 1.9648 1.6524 0.28125 0.29687 0.50781 0.58593 0.64843 0.82422 0.14063 0.24609 0.17969 0.40625 0.1836 0.49218v-4e-3c0.0156 0.32422 0.0352 0.60156 0.0352 0.82422v0.0234c0 0.23047-0.0234 0.38672-0.0508 0.48047-0.0156 0.0469-0.0273 0.082-0.0508 0.11719l-0.0195 0.0273-0.0312 0.0156c-0.13672 0.0625-0.44922 0.15234-0.82812 0.22265-0.76172 0.14454-1.7383 0.22266-2.4961 0.26954l-0.11328 8e-3 -8e-3 -0.10938c0-0.0312-4e-3 -0.0586-8e-3 -0.0859-0.0234-0.32813-0.0273-0.65235-0.0273-0.80469v-0.1094c0-0.71093-0.5664-1.293-1.2812-1.3164h-0.0352c-0.70704 0-1.293 0.5664-1.3125 1.2812v0.14453c0 0.27734 4e-3 0.89844 0.0937 1.5391 0.0469 0.32813 0.10156 0.64844 0.25 1.0195 0.082 0.19141 0.17968 0.39453 0.40625 0.63281l-0.082 0.0781 0.082-0.0781c0.19531 0.21875 0.6289 0.48047 1.0938 0.48047"/>
  <path d="m99.707 307.4c-0.30078-0.21484-0.51172-0.53906-0.51172-0.91797v-0.0195c0-8e-3 0-0.0156 0.0039-0.0195v-0.78906l-0.0078-69.047c-0.0039-0.0703-0.0078-0.16796-0.0078-0.28906 0-0.33203 0.02344-0.85937 0.20703-1.4726 0.17969-0.60547 0.55469-1.3789 1.3633-1.918 0.53125-0.35938 1.1992-0.55078 1.8867-0.55078h0.0195c1.6875 4e-3 3.9648 0.1289 5.2188 0.21875 2.8359 0.21093 6.1016 0.64453 6.3164 0.67187l0.28125 0.0391c0.5586 0.0742 0.75391 0.875 0.75391 1.4805 0 0.0937-4e-3 0.1875-0.0156 0.28516-0.11328 0.78906-0.625 1.4453-1.3359 1.4609-0.043 0-0.0859 0-0.14063-8e-3 -8e-3 0-1.4609-0.19531-1.4609-0.19531v-4e-3c-0.16406-0.0195-0.33984-0.043-0.52343-0.0625-1.1875-0.14062-2.7266-0.30468-4.1172-0.40234-1.1758-0.0898-3.4375-0.21094-4.9688-0.21094h-4e-3c-0.0391 0-0.0703 4e-3 -0.0898 4e-3 -4e-3 8e-3 -8e-3 0.0156-0.0117 0.0273-0.043 0.0547-0.10937 0.60157-0.10937 0.60157 0 4e-3 8e-3 37.469 8e-3 37.469l10.977 8e-3v0.043c0.25781 0.0781 0.47656 0.2539 0.63281 0.47265 0.21094 0.29688 0.33594 0.6836 0.33594 1.1094v0.0156c-4e-3 0.42969-0.125 0.82032-0.34375 1.1172-0.21484 0.29688-0.53906 0.51172-0.91797 0.51172h-0.0352l-10.645-4e-3v29.75h-0.0469c-0.17969 0.60157-0.85156 0.96875-1.5781 0.96875h-0.0156c-0.42969 0-0.82031-0.125-1.1172-0.34375"/>
  <path d="m129.86 235.07c4.4648 0.86328 12.258 2.8594 12.262 2.8594l0.21875 0.0547-0.0547 1.3281c0 4e-3 4e-3 4e-3 0 8e-3v0.0195c0 0.0195 0 0.0469-4e-3 0.0859 0 0.0703-8e-3 0.17969-0.0117 0.31641-0.0156 0.27734-0.0312 0.67969-0.0586 1.1797-0.0508 1-0.125 2.3906-0.23047 3.9688-0.20703 3.1562-0.52343 7.0508-0.95703 10.039-0.30078 2.0352-0.92187 4.0273-0.92187 4.043l-0.0742 0.28516-0.0195-4e-3 -0.41406 1.418-0.0508-0.0274c-0.2539 0.36329-0.71484 0.53907-1.1914 0.53907-0.19141 0-0.38672-0.0274-0.58203-0.082-0.71094-0.21094-1.2461-0.74219-1.2578-1.3867 0-0.0937 0.0117-0.1875 0.0391-0.27735 4e-3 -0.0117 8e-3 -0.0234 0.0117-0.0273 0.0312-0.11719 0.63671-2.1914 0.71875-2.5117 0.17187-0.68359 0.3789-1.5898 0.5039-2.4414 0.57031-3.8828 1.082-12.441 1.168-13.957-0.67578-0.16797-1.5781-0.39062-2.5938-0.63281-2.2148-0.53516-4.9805-1.1719-7.1211-1.5859-2.1094-0.41015-5.6641-1.0312-7.9062-1.2656-0.22656-0.0273-0.42578-0.0469-0.58594-0.0625-0.0469 0.28125-0.0937 0.70312-0.10937 1.2578-0.17969 4.3711-0.74219 12.629-0.74219 21.109v0.0156c0 12.234 0.19922 19.566 0.43359 24.188 0.20703 4.0469 0.4336 5.9922 0.58203 7.4492 0.0156-0.0156 0.0312-0.0312 0.043-0.0469 0.57813-0.60546 1.1875-1.3984 1.6211-1.957 4.0234-5.1602 7.2148-11.176 8.8789-14.578l0.63672-1.4297h0.0234c0.23828-0.34375 0.66406-0.50391 1.0976-0.50391 0.26953 0 0.55469 0.0586 0.82813 0.17969 0.6289 0.28516 1.0664 0.82422 1.0742 1.4141 0 0.14063-0.0273 0.28516-0.0898 0.42579-4e-3 8e-3 -8e-3 0.0156-8e-3 0.0195l-4e-3 4e-3c-0.0312 0.0703-0.47656 1.0039-0.63671 1.332-4e-3 8e-3 -5 9.7227-9.2188 15.145-0.31641 0.40625-0.77344 1.0039-1.2891 1.6055-0.52343 0.59766-1.0898 1.2109-1.7773 1.6992-0.4375 0.30078-1 0.64453-1.8125 0.66016-0.0156 4e-3 -0.0234 4e-3 -0.0273 4e-3 -0.3711-4e-3 -0.77735-0.0977-1.1367-0.3086-0.36328-0.21094-0.63672-0.51172-0.83203-0.8164-0.36719-0.60157-0.4961-1.2305-0.56641-1.9336-0.13281-1.4375-0.41406-3.5039-0.65234-8.1953-0.23828-4.7031-0.44141-12.082-0.44141-24.355 0-8.6172 0.57031-16.969 0.74609-21.262 0.0312-0.70703 0.0781-1.2891 0.17579-1.8203 0.10156-0.51563 0.24609-1.0312 0.59765-1.5234 0.24219-0.33984 0.58594-0.6289 0.96485-0.80078 0.49218-0.23047 0.95312-0.26562 1.3164-0.26562 0.44922 0 0.84375 0.0547 1.2578 0.0977 2.4414 0.26172 6.0039 0.88672 8.1797 1.3086z"/>
  <path d="m87.773 223.02h0.0625c0.01953 0 0.02344 4e-3 0.02344 0 0.52344 0 1.0039-0.61328 1.0039-1.4297 0-0.8125-0.48047-1.4258-1.0039-1.4297h-3.5195v4e-3h-3.5117v-2.3711h4.4727c0.01953 0 0.02344 4e-3 0.02344 4e-3 0.52344-4e-3 1.0039-0.61719 1.0039-1.4336 0-0.8125-0.48047-1.4258-1.0039-1.4297h-4.4961v-1.5195h5.8281c0.51953 0 1-0.61329 1.0039-1.4297 0-0.8125-0.48047-1.4258-1.0039-1.4297h-7.5234l-0.0625 8e-3c-0.60547 0.0586-1.082 0.5625-1.0977 1.1797l-0.0039 0.0664v9.9883c0 0.63672 0.48438 1.1523 1.1016 1.2148l0.08984 8e-3zm0.20312-2.9726h-0.11719z"/>
  <path d="m63.297 224.28c0.33594 0.24219 0.67969 0.33594 1.1836 0.33594 0.08203 0 1.7812-0.15625 3.4336-0.3125 1.6562-0.15625 3.2852-0.3125 3.2852-0.3125 0.6875-0.10156 1.1523-0.59375 1.1719-1.2344l0.0039-0.16016v-10.812l-0.0039-0.0625c-0.01563-0.60547-0.45703-1.1055-1.0273-1.1875l-4.5781-0.29297h-0.01953c-0.01563-4e-3 -0.03125-4e-3 -0.04687-4e-3 -0.50391-8e-3 -0.99609 0.57813-1.043 1.3672-0.0039 0.043-0.0039 0.0859-0.0039 0.12891-0.0039 0.7539 0.41797 1.3359 0.91406 1.3594l0.10547 8e-3 1.7227 0.10546 1.1211 0.0703v8.0273l-4.7539 0.39844-0.03516-0.0195c0-4e-3 -2.1992-1.4688-2.2148-1.4844-0.12891-0.0898-0.28516-0.13672-0.45312-0.13672-0.39062 0-0.86719 0.25391-1.1953 0.71485-0.23438 0.32812-0.34766 0.6914-0.34766 1.0078 0 0.32031 0.11328 0.58203 0.32812 0.73828l0.07813 0.0586z"/>
  <path d="m103.18 222.42c0.38282 0.39062 0.92188 0.90234 1.4375 0.89453 0.375 0 0.67188-0.0469 0.85547-0.14844 0.1875-0.10547 0.27735-0.24219 0.28125-0.5v-11.109c0-0.52344-0.61718-1.0039-1.4297-1.0039s-1.4297 0.48047-1.4297 1v6.4766l-6.9219-6.8789c-0.3125-0.3086-0.75-0.59766-1.332-0.59766-0.8125 0-1.4258 0.48047-1.4297 1v10.656c0 0.19922 0.15625 0.40625 0.42969 0.55859 0.26953 0.15625 0.64062 0.25391 1 0.25 0.72656 4e-3 1.3086-0.38281 1.4062-0.82421l0.02344-0.16797v-6.7695z"/>
  <path d="m123.57 224.48c0.14844 0.27735 0.47266 0.4375 0.87891 0.4375 0.26953 0 0.57031-0.0742 0.85546-0.22265 0.55079-0.29297 0.875-0.79297 0.8711-1.207 0-0.10157-0.0156-0.19922-0.0547-0.28907l-5.5859-10.492 4e-3 -4e-3 -1.0391-1.9258c-0.0781-0.16016-0.48438-0.33984-0.98438-0.44141-0.5039-0.10156-1.1016-0.15625-1.5898-0.15625-1.2891-8e-3 -2.8203 0.25391-3.1445 0.98438l-3.7188 9.043c0 4e-3 -0.64063 1.5039-0.64844 1.5195-0.043 0.10156-0.0664 0.22656-0.0664 0.35937 0 0.51563 0.33203 1.168 0.90235 1.4024 0.24218 0.10156 0.49218 0.14843 0.71875 0.14843 0.47265 0 0.85156-0.19921 0.98437-0.52343l0.0195-0.043 0.26953-0.66016 0.50391-1.2109 0.66016-1.5859h7.582l1.082 2.0195-4e-3 4e-3c0.27344 0.51954 1.5 2.832 1.5039 2.8438m-8.8281-7.7266h-0.17187l1.1211-2.7305 0.32813-0.79297c0.1289-0.30078 0.42578-0.51171 0.77344-0.51171 0.33203 0 0.61328 0.1914 0.7539 0.46093l1.9141 3.5742z"/>
 </g>
</svg>
