<?xml version="1.0" encoding="UTF-8" standalone="no"?>
<!DOCTYPE svg PUBLIC "-//W3C//DTD SVG 1.1//EN" "http://www.w3.org/Graphics/SVG/1.1/DTD/svg11.dtd">
<svg width="100%" height="100%" viewBox="0 0 574 544" version="1.1" xmlns="http://www.w3.org/2000/svg" xmlns:xlink="http://www.w3.org/1999/xlink" xml:space="preserve" xmlns:serif="http://www.serif.com/" style="fill-rule:evenodd;clip-rule:evenodd;stroke-linejoin:round;stroke-miterlimit:2;">
    <path d="M397.297,10.603C387.809,3.907 374.752,0 360.915,0C346.853,0 333.572,4.018 324.088,10.937C321.185,12.946 324.312,17.298 327.1,15.178C329.11,13.839 331.118,12.612 333.352,11.495L333.352,13.281C333.24,13.392 333.015,13.503 332.791,13.727L295.45,47.608C295.226,47.72 257.35,47.653 257.35,47.653C248.31,42.631 236.927,39.73 225.097,39.73C211.035,39.73 197.755,43.747 188.269,50.555C185.367,52.676 188.492,56.916 191.283,54.908C193.961,53.011 196.751,51.337 199.988,49.998L199.988,61.38L173.204,61.38C170.302,61.38 170.302,65.733 173.204,65.733L178.783,65.733L178.783,161.994L388.815,161.994L388.815,15.959C388.815,15.513 388.703,15.066 388.59,14.508L388.257,14.396C387.697,13.615 386.804,13.281 385.911,13.392C377.655,10.267 370.065,8.817 360.914,8.817C352.768,8.817 344.845,10.156 337.812,12.722L337.812,9.486C344.621,6.808 352.543,5.245 360.914,5.245C373.747,5.245 385.802,8.928 394.281,14.954C397.185,16.964 400.198,12.611 397.297,10.603Z" style="fill-rule:nonzero;"/>
    <path d="M382.793,156.798L382.793,116.737C375.765,114.152 368.41,112.821 360.914,112.821C353.132,112.821 345.434,114.224 338.588,116.843L338.588,156.797L332.575,156.797L332.575,120.968L294.282,120.968L294.282,138.941C294.282,140.604 293.021,141.474 291.777,141.474C290.533,141.474 289.272,140.603 289.272,138.941L289.272,120.968L251.204,120.968L251.204,156.797L245.19,156.797L245.19,119.771C238.838,117.718 231.91,116.615 225.096,116.615C219.42,116.615 213.928,117.282 208.788,118.594C207.741,118.888 206.724,118.65 205.998,117.94C205.219,117.178 204.893,115.995 205.167,114.926C205.426,113.912 206.187,113.16 207.282,112.854C213.203,111.433 219.196,110.712 225.095,110.712C231.886,110.712 238.799,111.729 245.189,113.603L245.189,83.946C238.837,81.893 231.909,80.79 225.095,80.79C219.421,80.79 213.928,81.458 208.787,82.77C206.945,83.286 205.584,82.137 205.192,80.736C204.788,79.298 205.367,77.564 207.267,77.032C212.741,75.609 218.739,74.887 225.095,74.887C232.304,74.887 239.044,75.876 245.189,77.765L245.189,48.9C238.945,46.848 232.019,45.746 225.095,45.746C218.63,45.746 212.05,46.735 206.006,48.576L206.006,62.372C206.163,62.756 206.258,63.159 206.258,63.563C206.258,64.122 206.109,64.674 205.815,65.151C205.284,66.011 204.338,66.504 203.221,66.504L183.908,66.504L183.908,156.795L122.423,156.795L122.647,311.361C122.647,399.415 217.172,449.187 285.583,466.149C354.104,449.075 448.186,399.302 448.186,311.361L448.407,156.795L382.793,156.795L382.793,156.798ZM298.306,160.705L298.306,139.5C298.306,132.581 303.997,127.113 310.918,127.113C317.947,127.113 323.639,132.581 323.639,139.5L323.475,160.705L298.306,160.705ZM259.582,160.705L259.582,139.5C259.582,132.581 265.273,127.113 272.192,127.113C279.223,127.113 284.914,132.581 284.914,139.5L284.75,160.705L259.582,160.705Z" style="fill:rgb(255,214,74);fill-rule:nonzero;"/>
    <path d="M285.473,543.38C193.626,543.38 107.917,509.008 47.654,438.588L107.36,390.042C151.553,444.616 216.058,470.281 285.473,470.281C354.775,470.281 419.282,444.724 463.475,390.265L523.849,438.812C463.587,509.232 377.32,543.38 285.473,543.38Z" style="fill:rgb(255,214,74);fill-rule:nonzero;"/>
    <path d="M568.266,468.608L507,468.608C489.813,483.899 471.958,495.951 452.205,507.334L473.853,536.463L573.289,536.463L536.906,500.081L568.266,468.608Z" style="fill:rgb(255,214,74);fill-rule:nonzero;"/>
    <path d="M5.022,468.608L66.29,468.608C83.476,483.899 101.332,495.951 121.197,507.334L99.435,536.463L0,536.463L36.382,500.081L5.022,468.608Z" style="fill:rgb(255,214,74);fill-rule:nonzero;"/>
    <path d="M536.461,481.777L518.27,500.081L541.484,523.294L480.437,523.294L471.509,511.352C485.683,502.76 499.297,492.94 511.909,481.778L536.461,481.778L536.461,481.777Z" style="fill:rgb(0,81,148);fill-rule:nonzero;"/>
    <path d="M40.957,481.777L59.259,500.081L36.046,523.294L96.98,523.294L105.909,511.352C91.847,502.76 78.232,492.94 65.51,481.778L40.957,481.778L40.957,481.777Z" style="fill:rgb(0,81,148);fill-rule:nonzero;"/>
    <path d="M285.473,530.211C375.646,530.211 455.553,494.833 504.989,440.486L465.374,408.677C425.53,454.1 359.686,483.449 285.473,483.449C211.259,483.449 145.304,453.987 105.574,408.565L66.514,440.261C115.953,494.613 195.411,530.211 285.473,530.211Z" style="fill:rgb(0,81,148);fill-rule:nonzero;"/>
    <path d="M121.197,447.072L129.567,452.315L116.51,473.297L125.773,479.101L138.83,458.119L147.2,463.365L151.888,455.887L125.884,439.706L121.197,447.072Z" style="fill:rgb(255,214,74);fill-rule:nonzero;"/>
    <path d="M204.451,486.018L209.362,487.468C211.817,488.137 213.38,489.702 212.71,491.934C212.04,494.164 210.032,494.5 206.795,493.608L202.666,492.379L204.451,486.018ZM203.893,500.417C208.803,501.755 209.139,503.429 207.91,507.559C207.018,510.458 206.682,512.581 206.795,513.362L217.509,516.487L217.732,515.481C216.504,515.148 217.062,513.695 218.29,509.457C220.076,502.981 218.29,501.644 215.277,499.413C219.294,499.413 221.86,496.846 222.977,493.052C224.763,486.801 221.973,482.896 211.259,479.883L196.081,475.418L186.818,507.671L197.42,510.684L200.656,499.413L203.893,500.417Z" style="fill:rgb(255,214,74);fill-rule:nonzero;"/>
    <path d="M286.589,523.182L287.147,489.703L276.21,489.478L275.541,522.958L286.589,523.182Z" style="fill:rgb(255,214,74);fill-rule:nonzero;"/>
    <path d="M374.083,511.127L372.297,503.541L355.78,507.333L354.554,502.2L368.056,499.075L366.27,491.486L352.768,494.613L351.763,489.923L367.611,486.243L365.825,478.653L339.263,484.792L346.853,517.378L374.083,511.127Z" style="fill:rgb(255,214,74);fill-rule:nonzero;"/>
    <path d="M424.525,461.912L428.879,459.235C431.11,457.894 433.233,457.894 434.458,460.016C435.687,461.912 434.57,463.585 431.67,465.371L427.986,467.605L424.525,461.912ZM434.57,472.18C439.036,469.501 440.374,470.394 442.604,474.078C444.167,476.645 445.507,478.316 446.065,478.876L455.662,473.185L455.104,472.292C453.987,472.961 453.318,471.623 451.087,467.826C447.626,462.023 445.396,462.471 441.711,463.139C444.502,460.237 444.278,456.555 442.271,453.206C438.923,447.627 434.237,446.958 424.637,452.649L411.135,460.795L428.322,489.588L437.694,483.897L431.782,473.852L434.57,472.18Z" style="fill:rgb(255,214,74);fill-rule:nonzero;"/>
    <path d="M140.17,311.365C140.17,371.295 198.425,425.757 285.585,448.074C372.746,425.757 430.665,371.295 430.665,311.365L430.889,174.431L140.058,174.431L140.17,311.365Z" style="fill:none;fill-rule:nonzero;"/>
    <path d="M383.568,110.484L383.568,81.468C376.09,78.678 369.173,77.34 360.915,77.34C352.433,77.34 345.291,78.79 337.813,81.692L337.813,110.709C344.845,108.254 352.768,106.803 360.915,106.803C368.949,106.802 376.651,108.141 383.568,110.484Z" style="fill:rgb(255,214,74);fill-rule:nonzero;"/>
    <path d="M333.351,47.766L333.351,32.029L315.94,47.766L333.351,47.766Z" style="fill:rgb(255,214,74);fill-rule:nonzero;"/>
    <rect x="250.43" y="52.229" width="82.921" height="2.79" style="fill:rgb(255,214,74);"/>
    <path d="M383.568,76.781L383.568,47.877C376.09,45.198 369.173,43.859 360.915,43.859C352.433,43.859 345.291,45.198 337.813,48.1L337.813,76.893C344.845,74.326 352.768,72.987 360.915,72.987C369.173,72.987 376.203,74.215 383.568,76.781Z" style="fill:rgb(255,214,74);fill-rule:nonzero;"/>
    <path d="M383.568,43.19L383.568,17.187C376.09,14.509 369.173,13.169 360.915,13.169C352.433,13.169 345.291,14.509 337.813,17.411L337.813,43.302C344.845,40.846 352.768,39.396 360.915,39.396C369.173,39.395 376.203,40.734 383.568,43.19Z" style="fill:rgb(255,214,74);fill-rule:nonzero;"/>
    <path d="M333.351,24.887L333.351,20.312L303.104,47.766L308.239,47.766L333.351,24.887Z" style="fill:rgb(255,214,74);fill-rule:nonzero;"/>
    <rect x="250.43" y="92.963" width="82.921" height="22.767" style="fill:rgb(255,214,74);"/>
    <rect x="250.43" y="87.048" width="82.921" height="2.79" style="fill:rgb(255,214,74);"/>
    <rect x="250.43" y="58.033" width="82.921" height="24.663" style="fill:rgb(255,214,74);"/>
    <path d="M397.739,9.965L397.739,9.966L397.744,9.969L397.739,9.965Z" style="fill:rgb(0,81,148);fill-rule:nonzero;"/>
    <path d="M140.945,174.431L141.057,311.365C141.057,357.771 176.006,400.886 232.24,428.35L232.24,174.431L140.945,174.431Z" style="fill:rgb(0,81,148);fill-rule:nonzero;"/>
    <path d="M337.256,174.43L337.256,429.997C395.505,402.63 431.886,358.709 431.886,311.364L431.998,174.43L337.256,174.43Z" style="fill:white;fill-rule:nonzero;"/>
    <path d="M232.24,174.431L232.24,428.35C248.627,436.352 266.804,443.038 286.472,448.074C304.771,443.387 321.777,437.269 337.257,429.998L337.257,174.431L232.24,174.431Z" style="fill-rule:nonzero;"/>
    <path d="M359.464,291.167C359.464,293.955 358.123,295.629 355.779,295.629L349.864,295.629L349.864,305.45L413.81,305.45L413.81,275.207L404.882,275.207C404.882,293.174 399.415,295.629 389.37,295.629L377.654,295.629L377.654,272.417L383.345,272.417C386.802,272.417 388.144,277.55 388.144,281.679L388.144,284.359L396.178,284.359L396.178,250.655L388.144,250.655L388.144,253.111C388.144,260.03 386.133,262.597 380.554,262.597L377.654,262.597L377.654,241.281L387.138,241.281C399.414,241.281 404.881,243.737 404.881,259.807L413.809,259.807L413.809,231.461L349.753,231.461L349.753,241.281L355.777,241.281C358.121,241.281 359.462,242.955 359.462,245.746L359.462,291.167L359.464,291.167Z" style="fill:rgb(255,214,74);fill-rule:nonzero;"/>
    <path d="M248.756,231.459L248.756,241.279L250.877,241.279C255.787,241.279 257.238,242.619 258.912,248.199L275.652,305.449L292.727,305.449L309.468,248.199C311.03,242.619 312.592,241.279 316.833,241.279L319.176,241.279L319.176,231.459L291.052,231.459L291.052,241.279L296.52,241.279C298.418,241.279 299.536,242.06 299.423,243.623C299.535,245.52 298.529,248.533 297.973,250.653L287.816,287.257L287.594,287.257L277.438,250.653C276.879,248.533 275.987,245.52 275.987,243.623C275.987,242.06 276.991,241.279 278.889,241.279L285.027,241.279L285.027,231.459L248.756,231.459Z" style="fill:rgb(255,214,74);fill-rule:nonzero;"/>
    <path d="M213.045,230.455L205.009,230.455L203.335,235.701C197.866,231.683 191.617,229.228 185.032,229.228C171.752,229.228 157.467,234.25 157.467,252.664C157.467,284.692 199.094,271.747 199.094,287.706C199.094,294.067 193.067,297.303 188.045,297.303C176.662,297.303 168.292,289.157 167.065,277.438L158.137,277.438L158.137,306.679L166.172,306.679L168.627,300.764C174.765,305.898 182.243,307.681 189.608,307.681C202.888,307.681 216.169,301.657 216.169,283.798C216.169,251.994 174.543,263.266 174.543,249.204C174.543,241.726 179.789,239.606 185.368,239.606C193.739,239.606 202.778,246.19 204.228,257.908L213.045,257.908L213.045,230.455Z" style="fill:rgb(255,214,74);fill-rule:nonzero;"/>
    <path d="M280.228,362.367C282.237,365.936 283.13,370.846 283.13,376.986C283.13,382.901 282.237,387.811 280.563,391.604C277.997,397.184 273.867,399.975 268.064,399.975C262.819,399.975 259.024,397.744 256.458,393.166C254.337,389.373 253.222,384.351 253.222,377.99C253.222,373.08 253.891,368.838 255.118,365.265C257.573,358.681 261.815,355.445 268.064,355.445C273.755,355.446 277.772,357.677 280.228,362.367ZM274.759,391.271C276.432,388.705 277.325,384.015 277.325,377.209C277.325,372.299 276.656,368.281 275.428,365.154C274.312,361.918 271.968,360.355 268.398,360.355C265.161,360.355 262.817,361.805 261.367,364.821C259.916,367.833 259.135,372.299 259.135,378.211C259.135,382.565 259.582,386.137 260.586,388.815C262.037,392.945 264.492,394.952 268.063,394.952C270.854,394.953 273.085,393.727 274.759,391.271Z" style="fill:white;fill-rule:nonzero;"/>
    <path d="M293.507,387.699C293.844,390.824 295.293,392.946 297.749,394.172C299.087,394.73 300.54,395.066 302.323,395.066C305.45,395.066 307.905,394.061 309.468,391.942C311.03,389.931 311.811,387.7 311.811,385.133C311.811,382.12 310.806,379.778 309.02,378.103C307.122,376.429 304.89,375.648 302.324,375.648C300.541,375.648 298.866,375.981 297.525,376.762C296.187,377.431 295.07,378.436 294.065,379.778L289.378,379.442L292.727,356.116L315.16,356.116L315.16,361.362L296.744,361.362L294.958,373.415C295.964,372.745 296.856,372.076 297.75,371.74C299.424,371.071 301.322,370.738 303.441,370.738C307.346,370.738 310.694,372.076 313.485,374.531C316.273,377.098 317.615,380.447 317.615,384.352C317.615,388.481 316.386,392.053 313.818,395.177C311.363,398.302 307.234,399.864 301.766,399.864C298.194,399.864 295.07,398.859 292.391,396.852C289.602,394.841 288.151,391.83 287.816,387.7L293.507,387.7L293.507,387.699Z" style="fill:white;fill-rule:nonzero;"/>
    <path d="M343.953,83.253C349.308,81.915 355,81.133 360.915,81.133C366.83,81.133 372.634,81.914 377.989,83.253C380.332,83.812 379.439,87.271 377.208,86.602C372.074,85.374 366.606,84.705 360.915,84.705C355.336,84.705 349.865,85.374 344.734,86.602C342.5,87.161 341.606,83.812 343.953,83.253Z" style="fill-rule:nonzero;"/>
    <path d="M343.953,49.774C349.308,48.434 355,47.765 360.915,47.765C366.83,47.765 372.634,48.434 377.989,49.774C380.332,50.332 379.439,53.791 377.208,53.233C372.074,51.894 366.606,51.224 360.915,51.224C355.336,51.224 349.865,51.894 344.734,53.233C342.5,53.792 341.606,50.332 343.953,49.774Z" style="fill-rule:nonzero;"/>
    <path d="M351.094,33.592L366.16,33.592C368.504,33.592 368.504,37.051 366.16,37.051L351.094,37.051C348.75,37.052 348.75,33.592 351.094,33.592Z" style="fill-rule:nonzero;"/>
    <path d="M347.189,154.566L347.189,128.005L343.392,128.005C341.049,128.005 341.049,124.434 343.392,124.434L350.758,124.434L350.758,154.566C350.758,156.911 347.189,156.911 347.189,154.566Z" style="fill-rule:nonzero;"/>
    <path d="M358.572,149.991L358.572,124.882L353.437,124.882C351.094,124.882 351.094,121.422 353.437,121.422L362.141,121.422L362.141,149.992C362.141,152.334 358.572,152.334 358.572,149.991Z" style="fill-rule:nonzero;"/>
    <path d="M371.741,155.236L371.741,124.546L367.611,124.546C365.156,124.546 365.156,121.087 367.611,121.087L375.201,121.087L375.201,155.237C375.201,157.58 371.741,157.58 371.741,155.236Z" style="fill-rule:nonzero;"/>
    <path d="M344.173,103.23L344.173,91.848C344.173,88.611 348.972,88.611 348.972,91.848L348.972,103.231C348.972,106.467 344.173,106.467 344.173,103.23Z" style="fill-rule:nonzero;"/>
    <path d="M356.45,100.552L356.45,89.169C356.45,85.933 361.36,85.933 361.36,89.169L361.36,100.552C361.36,103.788 356.45,103.788 356.45,100.552Z" style="fill-rule:nonzero;"/>
    <path d="M368.949,101.892L368.949,90.508C368.949,87.272 373.86,87.272 373.86,90.508L373.86,101.892C373.86,105.128 368.949,105.128 368.949,101.892Z" style="fill-rule:nonzero;"/>
    <path d="M344.173,70.197L344.173,58.814C344.173,55.578 348.972,55.578 348.972,58.814L348.972,70.197C348.972,73.322 344.173,73.322 344.173,70.197Z" style="fill-rule:nonzero;"/>
    <path d="M356.45,67.407L356.45,56.023C356.45,52.787 361.36,52.787 361.36,56.023L361.36,67.407C361.36,70.643 356.45,70.643 356.45,67.407Z" style="fill-rule:nonzero;"/>
    <path d="M368.949,68.746L368.949,57.363C368.949,54.238 373.86,54.238 373.86,57.363L373.86,68.746C373.86,71.983 368.949,71.983 368.949,68.746Z" style="fill-rule:nonzero;"/>
    <path d="M344.173,32.253L344.173,20.87C344.173,17.633 348.972,17.633 348.972,20.87L348.972,32.253C348.972,35.49 344.173,35.49 344.173,32.253Z" style="fill-rule:nonzero;"/>
    <path d="M356.45,29.574L356.45,18.191C356.45,14.955 361.36,14.955 361.36,18.191L361.36,29.574C361.36,32.699 356.45,32.699 356.45,29.574Z" style="fill-rule:nonzero;"/>
    <path d="M368.949,30.914L368.949,19.53C368.949,16.294 373.86,16.294 373.86,19.53L373.86,30.914C373.86,34.15 368.949,34.15 368.949,30.914Z" style="fill-rule:nonzero;"/>
    <path d="M213.937,152.111L213.937,130.126L211.594,130.126C209.25,130.126 209.25,126.667 211.594,126.667L217.397,126.667L217.397,152.112C217.396,154.455 213.937,154.455 213.937,152.111Z" style="fill-rule:nonzero;"/>
    <path d="M227.329,148.986L227.329,128.005L222.307,128.005C219.964,128.005 219.964,124.434 222.307,124.434L230.9,124.434L230.9,148.986C230.9,151.33 227.329,151.33 227.329,148.986Z" style="fill-rule:nonzero;"/>
    <path d="M238.043,148.986L238.043,129.01L235.029,129.01C232.686,129.01 232.686,125.55 235.029,125.55L241.502,125.55L241.502,148.986C241.502,151.33 238.043,151.33 238.043,148.986Z" style="fill-rule:nonzero;"/>
    <path d="M212.933,101.892L212.933,90.508C212.933,87.272 217.732,87.272 217.732,90.508L217.732,101.892C217.732,105.128 212.933,105.128 212.933,101.892Z" style="fill-rule:nonzero;"/>
    <path d="M224.985,99.101L224.985,87.718C224.985,84.593 229.784,84.593 229.784,87.718L229.784,99.101C229.785,102.338 224.985,102.338 224.985,99.101Z" style="fill-rule:nonzero;"/>
    <path d="M236.034,101.892L236.034,90.508C236.034,87.272 240.833,87.272 240.833,90.508L240.833,101.892C240.833,105.128 236.034,105.128 236.034,101.892Z" style="fill-rule:nonzero;"/>
    <path d="M212.933,67.407L212.933,56.023C212.933,52.787 217.732,52.787 217.732,56.023L217.732,67.407C217.732,70.643 212.933,70.643 212.933,67.407Z" style="fill-rule:nonzero;"/>
    <path d="M224.985,64.729L224.985,53.345C224.985,50.109 229.784,50.109 229.784,53.345L229.784,64.728C229.785,67.854 224.985,67.854 224.985,64.729Z" style="fill-rule:nonzero;"/>
    <path d="M236.034,67.407L236.034,56.023C236.034,52.787 240.833,52.787 240.833,56.023L240.833,67.407C240.833,70.643 236.034,70.643 236.034,67.407Z" style="fill-rule:nonzero;"/>
    <rect x="257.685" y="64.617" width="5.244" height="11.383" style="fill-rule:nonzero;"/>
    <rect x="269.067" y="64.617" width="5.246" height="11.383" style="fill-rule:nonzero;"/>
    <rect x="282.125" y="64.617" width="5.245" height="11.383" style="fill-rule:nonzero;"/>
    <rect x="293.507" y="64.617" width="5.247" height="11.383" style="fill-rule:nonzero;"/>
    <rect x="305.56" y="64.617" width="5.246" height="11.383" style="fill-rule:nonzero;"/>
    <rect x="318.617" y="64.617" width="5.246" height="11.383" style="fill-rule:nonzero;"/>
    <rect x="257.685" y="98.655" width="5.244" height="11.383" style="fill-rule:nonzero;"/>
    <rect x="269.067" y="98.655" width="5.246" height="11.383" style="fill-rule:nonzero;"/>
    <rect x="282.125" y="98.655" width="5.245" height="11.383" style="fill-rule:nonzero;"/>
    <rect x="293.507" y="98.655" width="5.247" height="11.383" style="fill-rule:nonzero;"/>
    <rect x="305.56" y="98.655" width="5.246" height="11.383" style="fill-rule:nonzero;"/>
    <rect x="318.617" y="98.655" width="5.246" height="11.383" style="fill-rule:nonzero;"/>
    <path d="M192.287,161.598L192.287,70.085C192.287,68.076 195.3,68.076 195.3,70.085L195.3,135.482L203.782,130.572C205.791,129.456 207.576,132.469 205.568,133.697L195.524,139.499L195.3,139.611L195.3,161.596C195.3,163.606 192.287,163.606 192.287,161.598Z" style="fill-rule:nonzero;"/>
    <path d="M300.985,158.026L314.379,158.026L314.154,139.5C314.154,135.26 311.363,131.688 307.57,130.238C303.665,131.688 300.874,135.26 300.874,139.5L300.985,158.026Z" style="fill:white;fill-rule:nonzero;"/>
    <path d="M262.148,158.026L275.651,158.026L275.428,139.5C275.428,135.26 272.638,131.688 268.844,130.238C264.939,131.688 262.148,135.26 262.148,139.5L262.148,158.026Z" style="fill:white;fill-rule:nonzero;"/>
</svg>
