<?xml version="1.0" encoding="utf-8"?>
<!-- Generator: Adobe Illustrator 13.0.2, SVG Export Plug-In . SVG Version: 6.00 Build 14948)  -->
<!DOCTYPE svg PUBLIC "-//W3C//DTD SVG 1.0//EN" "http://www.w3.org/TR/2001/REC-SVG-20010904/DTD/svg10.dtd">
<svg version="1.0" id="Ebene_1" xmlns="http://www.w3.org/2000/svg" xmlns:xlink="http://www.w3.org/1999/xlink" x="0px" y="0px"
	 width="522.664px" height="402.696px" viewBox="0 0 522.664 402.696" enable-background="new 0 0 522.664 402.696"
	 xml:space="preserve">
<path d="M47.872,0h426.922l0,0c13.167,0,25.136,5.386,33.811,14.061c8.675,8.674,14.06,20.642,14.06,33.807v0.004v306.95v0.002
	c0,13.165-5.385,25.135-14.06,33.812c-8.675,8.673-20.644,14.057-33.808,14.061h-0.003H47.872h-0.001
	c-13.167-0.004-25.134-5.388-33.81-14.063C5.386,379.959,0.001,367.989,0,354.828v-0.006V47.872v-0.003
	c0.001-13.166,5.386-25.135,14.063-33.81C22.736,5.386,34.704,0,47.868,0H47.872L47.872,0z"/>
<path fill="#FFFFFF" d="M474.794,3.919H47.872h-0.004C35.786,3.92,24.799,8.865,16.833,16.832
	C8.867,24.798,3.921,35.786,3.921,47.869v0.003v306.95v0.006c0,12.082,4.946,23.068,12.911,31.034
	c7.968,7.967,18.954,12.912,31.039,12.912h0.001h426.922h0.003c12.081,0,23.067-4.945,31.034-12.912
	c7.967-7.966,12.912-18.952,12.912-31.038v-0.002V47.872v-0.004c0-12.083-4.945-23.07-12.909-31.035
	C497.864,8.865,486.878,3.92,474.794,3.919L474.794,3.919L474.794,3.919z"/>
<path d="M127.882,385.819l1.506,4.655h59.809l-18.404-31.958C158.468,373.612,143.775,383.373,127.882,385.819z"/>
<path d="M48.589,323.093l-35.606,35.749c4.172,18.058,20.488,31.633,39.832,31.633h25.832l6.755-16.278
	C70.57,363.212,57.841,345.398,48.589,323.093z"/>
<path d="M164.049,11.976H81.392L97.227,92.18c7.265-3.365,14.9-5.167,22.774-5.167c9.224,0,18.119,2.469,26.479,7.029
	L164.049,11.976z"/>
<path d="M190.028,326.334l50.337,64.141h189.084L201.94,289.215C198.997,302.596,194.966,315.078,190.028,326.334z"/>
<path d="M345.041,11.976H231.653l-52.854,114.023c8.096,12.595,14.807,27.748,19.702,44.689L345.041,11.976z"/>
<path d="M469.612,11.976h-44.31l-222.808,174.85c1.994,9.597,3.43,19.64,4.242,30.011L510.48,113.629V52.7
	C510.48,30.301,492.091,11.976,469.612,11.976z"/>
<path d="M32.487,236.724c0-8.837,0.455-17.503,1.322-25.926l-21.861-6.778v75.978l22.903-8.722
	C33.309,260.179,32.487,248.611,32.487,236.724z"/>
<path d="M205.676,267.242l304.804,75.442V208.3l-302.987,30.98C207.4,248.841,206.78,258.189,205.676,267.242z"/>
<path d="M65.417,119.855L25.027,22.91c-8.033,7.449-13.08,18.06-13.08,29.79v84.072l31.603,27.242
	C49.115,146.98,56.567,131.984,65.417,119.855z"/>
<path d="M120,94.39L120,94.39c23.437,0.001,44.555,16.305,59.715,42.6c14.835,25.732,24.031,61.182,24.034,100.176v0.008v0.003
	c-0.001,38.996-9.199,74.448-24.036,100.181c-15.16,26.293-36.276,42.594-59.711,42.598H120h-0.001
	c-23.438,0-44.554-16.304-59.714-42.601c-14.835-25.73-24.032-61.179-24.032-100.174v-0.007v-0.005
	c0-38.996,9.197-74.447,24.034-100.181c15.159-26.295,36.275-42.597,59.711-42.598H120L120,94.39z"/>
<path fill="#FFFFFF" d="M120.001,101.15L120.001,101.15h-0.004c-20.828,0.001-39.894,15.011-53.851,39.217
	c-14.281,24.772-23.136,59.022-23.136,96.802v0.005v0.007c0,37.777,8.855,72.024,23.136,96.798
	c13.957,24.206,33.022,39.215,53.852,39.218H120h0.002c20.826-0.003,39.893-15.012,53.851-39.218
	c14.282-24.774,23.137-59.021,23.137-96.802v-0.003v-0.008c-0.001-37.78-8.855-72.027-23.137-96.797
	C159.897,116.161,140.829,101.15,120.001,101.15L120.001,101.15z"/>
<path d="M120.001,104.495c40.578,0,73.671,59.603,73.671,132.678s-33.093,132.679-73.671,132.679
	c-40.577,0-73.672-59.604-73.672-132.679S79.424,104.495,120.001,104.495L120.001,104.495z"/>
<path fill="#FFFFFF" d="M97.93,248.302c0,14.394,6.638,26.135,14.78,26.135c8.139,0,14.78-11.741,14.78-26.135
	c0-14.396-6.641-26.139-14.78-26.139C104.568,222.164,97.93,233.906,97.93,248.302z M112.341,233.145
	c3.895,0,7.069,7.206,7.069,16.04c0,8.833-3.174,16.037-7.069,16.037c-3.892,0-7.067-7.204-7.067-16.037
	C105.274,240.351,108.449,233.145,112.341,233.145z"/>
<path fill="#FFFFFF" d="M141.903,213.074c8.478,0,16.104-4.289,21.314-11.065l-9.446-9.205c-2.945,3.634-7.176,5.917-11.869,5.917
	c-8.858,0-16.083-8.148-16.083-18.14c0-9.991,7.226-18.139,16.083-18.139c5.115,0,9.685,2.714,12.634,6.933l10.047-8.305
	c-5.189-7.875-13.431-12.982-22.681-12.982c-15.639,0-28.394,14.597-28.394,32.493C113.509,198.479,126.264,213.074,141.903,213.074
	z"/>
<path fill="#FFFFFF" d="M134.098,259.117c0,8.825,7.494,16.018,16.682,16.018s16.682-7.193,16.682-16.018
	c0-5.447-2.858-10.271-7.204-13.167c2.435-2.53,3.939-5.978,3.939-9.771c0-7.719-6.231-14.016-13.871-14.016
	c-7.641,0-13.871,6.297-13.871,14.016c0,3.982,1.657,7.586,4.31,10.141C136.721,249.249,134.098,253.899,134.098,259.117z
	 M150.508,230.538c3.346,0,6.074,2.656,6.074,5.915c0,3.259-2.729,5.917-6.074,5.917c-3.347,0-6.074-2.657-6.074-5.917
	C144.434,233.194,147.161,230.538,150.508,230.538z M150.78,251.471c5.094,0,9.249,3.517,9.249,7.828
	c0,4.312-4.154,7.826-9.249,7.826c-5.092,0-9.247-3.515-9.247-7.826C141.533,254.988,145.688,251.471,150.78,251.471z"/>
<polygon fill="#FFFFFF" points="150.143,290.657 118.46,336.393 86.563,290.657 69.319,290.657 118.46,365.386 167.601,290.657 "/>
<polygon fill="#FFFFFF" points="76.179,213.475 105.963,213.475 105.963,201.114 76.179,201.114 76.179,165.632 105.963,165.632 
	105.963,153.273 65.455,153.273 65.455,275.268 76.179,275.268 "/>
</svg>
