<?xml version="1.0" encoding="UTF-8" standalone="no"?>
<!-- Created with Inkscape (http://www.inkscape.org/) -->

<svg
   xmlns:dc="http://purl.org/dc/elements/1.1/"
   xmlns:cc="http://creativecommons.org/ns#"
   xmlns:rdf="http://www.w3.org/1999/02/22-rdf-syntax-ns#"
   xmlns:svg="http://www.w3.org/2000/svg"
   xmlns="http://www.w3.org/2000/svg"
   xmlns:sodipodi="http://sodipodi.sourceforge.net/DTD/sodipodi-0.dtd"
   xmlns:inkscape="http://www.inkscape.org/namespaces/inkscape"
   width="590"
   height="590"
   id="svg4593"
   version="1.1"
   inkscape:version="0.47 r22583"
   sodipodi:docname="FC 08 Homburg Logo.svg">
  <defs
     id="defs4595">
    <inkscape:perspective
       sodipodi:type="inkscape:persp3d"
       inkscape:vp_x="0 : 526.18109 : 1"
       inkscape:vp_y="0 : 1000 : 0"
       inkscape:vp_z="744.09448 : 526.18109 : 1"
       inkscape:persp3d-origin="372.04724 : 350.78739 : 1"
       id="perspective4601" />
    <inkscape:perspective
       id="perspective4519"
       inkscape:persp3d-origin="0.5 : 0.33333333 : 1"
       inkscape:vp_z="1 : 0.5 : 1"
       inkscape:vp_y="0 : 1000 : 0"
       inkscape:vp_x="0 : 0.5 : 1"
       sodipodi:type="inkscape:persp3d" />
  </defs>
  <sodipodi:namedview
     id="base"
     pagecolor="#ffffff"
     bordercolor="#666666"
     borderopacity="1.0"
     inkscape:pageopacity="0.0"
     inkscape:pageshadow="2"
     inkscape:zoom="0.90605547"
     inkscape:cx="295"
     inkscape:cy="295"
     inkscape:document-units="px"
     inkscape:current-layer="layer1"
     showgrid="false"
     inkscape:window-width="1280"
     inkscape:window-height="1005"
     inkscape:window-x="-4"
     inkscape:window-y="-4"
     inkscape:window-maximized="1" />
  <metadata
     id="metadata4598">
    <rdf:RDF>
      <cc:Work
         rdf:about="">
        <dc:format>image/svg+xml</dc:format>
        <dc:type
           rdf:resource="http://purl.org/dc/dcmitype/StillImage" />
        <dc:title />
      </cc:Work>
    </rdf:RDF>
  </metadata>
  <g
     inkscape:label="Ebene 1"
     inkscape:groupmode="layer"
     id="layer1"
     transform="translate(-77.459758,-194.90251)">
    <path
       id="path3029"
       style="fill:#ffffff;fill-opacity:1;fill-rule:nonzero;stroke:none"
       d="m 372.3429,778.21385 c 159.16159,0 288.19116,-129.03624 288.19116,-288.19117 0,-159.16492 -129.02957,-288.1945 -288.19116,-288.1945 -159.16493,0 -288.194504,129.02958 -288.194504,288.1945 0,159.15493 129.029574,288.19117 288.194504,288.19117" />
    <path
       id="path3033"
       style="fill:none;stroke:#76cc6e;stroke-width:8.69487667;stroke-linecap:butt;stroke-linejoin:miter;stroke-miterlimit:4;stroke-opacity:1;stroke-dasharray:none"
       d="m 372.3429,778.21385 c 159.16159,0 288.19116,-129.03624 288.19116,-288.19117 0,-159.16492 -129.02957,-288.1945 -288.19116,-288.1945 -159.16493,0 -288.194504,129.02958 -288.194504,288.1945 0,159.15493 129.029574,288.19117 288.194504,288.19117 z" />
    <path
       id="path3037"
       style="fill:none;stroke:#76cc6e;stroke-width:5.21759319;stroke-linecap:butt;stroke-linejoin:miter;stroke-miterlimit:4;stroke-opacity:1;stroke-dasharray:none"
       d="m 105.10646,490.0217 c 0,-147.35283 119.88129,-267.23412 267.23745,-267.23412 147.34949,0 267.23411,119.88129 267.23411,267.23412 0,147.34949 -119.88462,267.22744 -267.23411,267.22744 -147.35616,0 -267.23745,-119.87795 -267.23745,-267.22744 z" />
    <path
       id="path3041"
       style="fill:#293235;fill-opacity:1;fill-rule:nonzero;stroke:none"
       d="m 324.32338,592.82293 c -9.45501,-6.0544 -12.96896,-14.24919 -8.32147,-15.89282 6.43114,-2.2704 11.0753,6.52783 12.10548,11.35202 1.13687,5.29094 -0.62678,6.55449 -3.78401,4.5408 m 95.10022,-4.80085 c 1.03352,-4.82419 5.67768,-13.61575 12.10215,-11.34868 4.65749,1.64696 1.13687,9.83841 -8.32148,15.88949 -3.14722,2.02369 -4.91087,0.7568 -3.78067,-4.54081 m 63.01786,-78.41392 c 0,0 -4.15741,40.85725 32.1257,92.72646 -11.57872,3.38394 -23.06076,11.86211 -30.25537,18.45328 -11.97546,10.97195 -20.49697,28.01164 -34.43611,35.4663 -2.99387,1.61028 -6.57117,2.53711 -9.75174,2.49044 1.16354,-3.5273 1.84033,-7.42132 1.84033,-11.81877 0,-15.82947 -10.25849,-26.90477 -24.15762,-33.97936 5.78436,-11.17865 16.39624,-22.97075 19.99688,-25.40785 12.86562,-8.70154 -5.67434,-22.70403 -17.39975,-13.99915 -6.04108,4.48746 -16.35624,16.34957 -20.23693,32.90918 -8.94492,-2.28708 -18.2299,-3.40728 -26.66807,-3.40728 l 0,-0.008 c -8.43816,0 -17.71981,1.1102 -26.66807,3.40394 -3.88069,-16.56294 -14.19252,-28.43171 -20.24026,-32.90918 -11.72208,-8.70821 -30.2587,5.28761 -17.39642,13.98916 3.60731,2.4471 14.21253,14.23919 20.00022,25.41451 -13.89914,7.07459 -24.16429,18.15322 -24.16429,33.97936 0,4.39412 0.68012,8.29481 1.84699,11.82544 -3.18389,0.0299 -6.75453,-0.88683 -9.7584,-2.50045 -13.92914,-7.45799 -22.45732,-24.49101 -34.43278,-35.45963 -7.19461,-6.60117 -18.67998,-15.07601 -30.25537,-18.45327 36.28311,-51.87588 32.12904,-92.72647 32.12904,-92.72647 0,0 -0.7668,-55.67321 -42.29418,-94.22006 9.75507,-7.09126 17.69981,-18.95003 22.24395,-27.58823 7.56801,-14.37255 9.83508,-33.28591 20.42696,-45.01132 10.58855,-11.72875 32.90918,-5.29761 32.90918,-5.29761 0,0 42.51755,-34.04271 75.65343,-34.04271 l 0,0.0133 c 33.13588,0 75.65343,34.04271 75.65343,34.04271 0,0 22.32063,-6.4278 32.90918,5.29761 10.59188,11.72542 12.86562,30.63878 20.42696,45.01466 4.55081,8.63487 12.48888,20.49364 22.24395,27.58823 -41.52404,38.54685 -42.29084,94.2134 -42.29084,94.2134 m -68.46883,114.62368 c 0.10002,-1.08019 0.34673,-2.23373 0.66346,-3.41061 10.93527,7.35464 12.94896,18.33659 12.57556,23.83757 -1.45026,1.34691 -3.44394,1.96702 -5.621,2.16372 -4.68083,-5.48764 -8.4615,-12.97231 -7.61802,-22.59068 m -23.07409,9.44834 c -3.77734,-1.887 -10.45853,-3.4106 -10.96862,-12.09881 -0.68678,-11.69874 10.02178,-10.86193 19.66016,-7.72804 0.73013,7.34797 4.23409,19.43345 11.49204,31.22888 -2.23373,-0.83015 -4.19408,-1.80366 -5.43096,-2.69381 -4.16074,-3.03054 -10.96862,-6.81121 -14.75262,-8.70822 m -34.80285,-0.005 c -3.78067,1.887 -10.58854,5.67767 -14.75595,8.69821 -1.22022,0.89683 -3.1839,1.87033 -5.42096,2.69048 7.26462,-11.79543 10.75524,-23.88091 11.48537,-31.22888 9.64171,-3.13056 20.35028,-3.96737 19.66349,7.72804 -0.50676,8.68821 -7.18794,10.21515 -10.97195,12.11215 m -30.68545,13.12566 c -2.18372,-0.1835 -4.1674,-0.80681 -5.62433,-2.16038 -0.36673,-5.48764 1.64696,-16.47292 12.5789,-23.82756 0.31339,1.16687 0.56677,2.32041 0.66012,3.40393 0.85015,9.61504 -2.93719,17.10304 -7.61469,22.58401 M 541.07187,421.47251 c -13.61575,-9.45501 -19.29343,-24.5877 -21.18376,-31.01884 -3.01054,-10.24515 -3.78401,-27.6149 -9.45502,-40.09712 -6.16442,-13.56574 -18.91002,-24.96443 -34.42277,-24.96443 -8.14812,0 -15.12269,3.33726 -19.93688,6.50782 -4.56748,-9.55169 -34.30609,-49.62881 -82.57466,-49.62881 l 0,-0.016 c -48.26857,0 -78.00718,40.07711 -82.57799,49.63214 -4.81086,-3.17056 -11.78209,-6.51115 -19.93688,-6.51115 -15.50275,0 -28.25168,11.39869 -34.41944,24.96776 -5.67101,12.48222 -6.43781,29.85197 -9.45501,40.09712 -1.89034,6.42781 -7.56801,21.5605 -21.18376,31.01884 0,0 40.09378,37.44998 44.63459,88.51572 0,40.09712 -35.56632,92.14302 -35.56632,92.14302 16.01285,4.30077 26.4647,16.62629 30.41874,22.04058 6.29778,8.62153 12.89229,24.71439 22.45065,34.5428 10.38518,10.68857 26.23466,17.11304 40.83058,11.87211 1.25022,-0.45008 2.50378,-1.00018 3.66732,-1.58695 15.90616,20.42363 52.88272,24.20097 61.13752,43.36103 l 0,0.016 c 8.25813,-19.1634 45.22803,-22.93407 61.14752,-43.36437 1.15688,0.58677 2.4071,1.13687 3.65732,1.59028 14.59593,5.2376 30.44207,-1.18687 40.83725,-11.8721 9.5617,-9.83175 16.14954,-25.92461 22.44399,-34.54614 3.95403,-5.40762 14.40589,-17.73315 30.4154,-22.04058 0,0 -35.55965,-52.04257 -35.55965,-92.14302 4.53414,-51.06574 44.63126,-88.51572 44.63126,-88.51572" />
    <path
       id="path3045"
       style="fill:none;stroke:#293235;stroke-width:12.17216206;stroke-linecap:butt;stroke-linejoin:miter;stroke-miterlimit:4;stroke-opacity:1;stroke-dasharray:none"
       d="m 373.49878,638.21201 0,-85.49518" />
    <path
       id="path3049"
       style="fill:#76cc6e;fill-opacity:1;fill-rule:nonzero;stroke:none"
       d="m 373.49878,340.12842 c 0,0 -5.01756,17.54644 -15.50608,12.10548 -20.42696,-10.59188 13.31236,-41.30734 15.50608,-43.50106 2.57713,2.57379 34.79951,32.15238 15.13269,43.50106 -7.18794,4.1474 -15.13269,-12.10548 -15.13269,-12.10548" />
    <path
       id="path3053"
       style="fill:none;stroke:#293235;stroke-width:5.21759319;stroke-linecap:butt;stroke-linejoin:round;stroke-miterlimit:4;stroke-opacity:1;stroke-dasharray:none"
       d="m 373.49878,340.12842 c 0,0 -5.01756,17.54644 -15.50608,12.10548 -20.42696,-10.59188 13.31236,-41.30734 15.50608,-43.50106 2.57713,2.57379 34.79951,32.15238 15.13269,43.50106 -7.18794,4.1474 -15.13269,-12.10548 -15.13269,-12.10548 z" />
    <path
       id="path3057"
       style="fill:#76cc6e;fill-opacity:1;fill-rule:nonzero;stroke:none"
       d="m 340.94399,368.40176 c 0,0 10.13847,13.23235 -2.94719,16.5596 -17.0797,4.34411 -14.62593,-31.69562 -16.31957,-39.15695 6.9079,1.14354 41.61406,4.16074 35.80636,21.64718 -3.65398,10.99862 -16.5396,0.95017 -16.5396,0.95017" />
    <path
       id="path3061"
       style="fill:none;stroke:#293235;stroke-width:5.21759319;stroke-linecap:butt;stroke-linejoin:round;stroke-miterlimit:4;stroke-opacity:1;stroke-dasharray:none"
       d="m 340.94399,368.40176 c 0,0 10.13847,13.23235 -2.94719,16.5596 -17.0797,4.34411 -14.62593,-31.69562 -16.31957,-39.15695 6.9079,1.14354 41.61406,4.16074 35.80636,21.64718 -3.65398,10.99862 -16.5396,0.95017 -16.5396,0.95017 z" />
    <path
       id="path3065"
       style="fill:#76cc6e;fill-opacity:1;fill-rule:nonzero;stroke:none"
       d="m 325.11118,407.72175 c 0,0 1.06352,15.9695 -11.37869,10.70857 -16.22288,-6.86122 4.99089,-31.77231 12.18216,-41.60739 -0.38006,13.23902 24.13095,29.50524 11.27534,39.34032 -9.2083,7.03792 -12.07881,-8.4415 -12.07881,-8.4415" />
    <path
       id="path3069"
       style="fill:none;stroke:#293235;stroke-width:5.21759319;stroke-linecap:butt;stroke-linejoin:round;stroke-miterlimit:4;stroke-opacity:1;stroke-dasharray:none"
       d="m 325.11118,407.72175 c 0,0 1.06352,15.9695 -11.37869,10.70857 -16.22288,-6.86122 4.99089,-31.77231 12.18216,-41.60739 -0.38006,13.23902 24.13095,29.50524 11.27534,39.34032 -9.2083,7.03792 -12.07881,-8.4415 -12.07881,-8.4415 z" />
    <path
       id="path3073"
       style="fill:#76cc6e;fill-opacity:1;fill-rule:nonzero;stroke:none"
       d="m 280.10988,391.3745 c 0,0 0.35006,14.63927 -10.00177,10.83526 -19.6935,-7.24129 5.35428,-42.20083 5.35428,-42.20083 0,0 30.08201,24.53769 16.41625,36.90322 -8.59153,7.77138 -11.76876,-5.53765 -11.76876,-5.53765" />
    <path
       id="path3077"
       style="fill:none;stroke:#293235;stroke-width:5.21759319;stroke-linecap:butt;stroke-linejoin:round;stroke-miterlimit:4;stroke-opacity:1;stroke-dasharray:none"
       d="m 280.10988,391.3745 c 0,0 0.35006,14.63927 -10.00177,10.83526 -19.6935,-7.24129 5.35428,-42.20083 5.35428,-42.20083 0,0 30.08201,24.53769 16.41625,36.90322 -8.59153,7.77138 -11.76876,-5.53765 -11.76876,-5.53765 z" />
    <path
       id="path3081"
       style="fill:#76cc6e;fill-opacity:1;fill-rule:nonzero;stroke:none"
       d="m 270.84856,430.62448 c 0,0 12.24217,-9.54502 15.64944,2.18039 4.67417,16.11286 -26.1013,9.45835 -35.43629,19.96688 2.14705,-13.53574 -0.84015,-39.9971 17.27974,-36.60983 11.38868,2.12704 2.50711,14.46256 2.50711,14.46256" />
    <path
       id="path3085"
       style="fill:none;stroke:#293235;stroke-width:5.21759319;stroke-linecap:butt;stroke-linejoin:round;stroke-miterlimit:4;stroke-opacity:1;stroke-dasharray:none"
       d="m 270.84856,430.62448 c 0,0 12.24217,-9.54502 15.64944,2.18039 4.67417,16.11286 -26.1013,9.45835 -35.43629,19.96688 2.14705,-13.53574 -0.84015,-39.9971 17.27974,-36.60983 11.38868,2.12704 2.50711,14.46256 2.50711,14.46256 z" />
    <path
       id="path3089"
       style="fill:#76cc6e;fill-opacity:1;fill-rule:nonzero;stroke:none"
       d="m 299.52399,451.62621 c 0,0 9.49169,-10.9186 13.82913,0.47342 6.05107,15.88615 -23.8309,17.77982 -32.10904,19.12006 1.0902,-10.79858 0.62011,-38.15677 16.60295,-33.49595 9.07828,2.64714 1.67696,13.90247 1.67696,13.90247" />
    <path
       id="path3093"
       style="fill:none;stroke:#293235;stroke-width:5.21759319;stroke-linecap:butt;stroke-linejoin:round;stroke-miterlimit:4;stroke-opacity:1;stroke-dasharray:none"
       d="m 299.52399,451.62621 c 0,0 9.49169,-10.9186 13.82913,0.47342 6.05107,15.88615 -23.8309,17.77982 -32.10904,19.12006 1.0902,-10.79858 0.62011,-38.15677 16.60295,-33.49595 9.07828,2.64714 1.67696,13.90247 1.67696,13.90247 z" />
    <path
       id="path3097"
       style="fill:#76cc6e;fill-opacity:1;fill-rule:nonzero;stroke:none"
       d="m 304.07547,503.73477 c 0,0 2.84717,14.18585 -7.36464,12.67225 -19.43345,-2.88385 -1.89367,-26.1013 -0.37673,-35.18291 6.4278,6.43114 31.39224,15.50942 23.48083,27.70158 -6.31445,9.71506 -15.73946,-5.19092 -15.73946,-5.19092" />
    <path
       id="path3101"
       style="fill:none;stroke:#293235;stroke-width:5.21759319;stroke-linecap:butt;stroke-linejoin:round;stroke-miterlimit:4;stroke-opacity:1;stroke-dasharray:none"
       d="m 304.07547,503.73477 c 0,0 2.84717,14.18585 -7.36464,12.67225 -19.43345,-2.88385 -1.89367,-26.1013 -0.37673,-35.18291 6.4278,6.43114 31.39224,15.50942 23.48083,27.70158 -6.31445,9.71506 -15.73946,-5.19092 -15.73946,-5.19092 z" />
    <path
       id="path3105"
       style="fill:#76cc6e;fill-opacity:1;fill-rule:nonzero;stroke:none"
       d="m 336.55857,469.98046 c 0,0 13.149,-6.65785 11.79543,3.87402 -1.70697,13.32236 -18.15323,11.02196 -27.43487,14.93265 -3.78067,-16.25955 2.60713,-37.49332 14.55591,-29.49524 5.78103,3.86736 1.08353,10.68857 1.08353,10.68857" />
    <path
       id="path3109"
       style="fill:none;stroke:#293235;stroke-width:5.21759319;stroke-linecap:butt;stroke-linejoin:round;stroke-miterlimit:4;stroke-opacity:1;stroke-dasharray:none"
       d="m 336.55857,469.98046 c 0,0 13.149,-6.65785 11.79543,3.87402 -1.70697,13.32236 -18.15323,11.02196 -27.43487,14.93265 -3.78067,-16.25955 2.60713,-37.49332 14.55591,-29.49524 5.78103,3.86736 1.08353,10.68857 1.08353,10.68857 z" />
    <path
       id="path3113"
       style="fill:#76cc6e;fill-opacity:1;fill-rule:nonzero;stroke:none"
       d="m 348.75804,520.73347 c 0,0 -1.46359,12.2355 -9.68172,5.50764 -10.39184,-8.50817 -1.13353,-22.70069 4.53748,-31.39557 4.9242,8.32148 28.75177,20.80369 14.77929,30.6321 -5.68435,4.00405 -9.63505,-4.74417 -9.63505,-4.74417" />
    <path
       id="path3117"
       style="fill:none;stroke:#293235;stroke-width:5.21759319;stroke-linecap:butt;stroke-linejoin:round;stroke-miterlimit:4;stroke-opacity:1;stroke-dasharray:none"
       d="m 348.75804,520.73347 c 0,0 -1.46359,12.2355 -9.68172,5.50764 -10.39184,-8.50817 -1.13353,-22.70069 4.53748,-31.39557 4.9242,8.32148 28.75177,20.80369 14.77929,30.6321 -5.68435,4.00405 -9.63505,-4.74417 -9.63505,-4.74417 z" />
    <path
       id="path3121"
       style="fill:#76cc6e;fill-opacity:1;fill-rule:nonzero;stroke:none"
       d="m 316.14327,552.67282 c 0,0 12.71892,-8.6482 13.47572,1.93368 0.95684,13.40237 -18.54329,13.90246 -26.86477,19.5768 -5.66767,-15.4094 -2.31708,-36.01972 10.97862,-30.54208 6.43114,2.64713 2.41043,9.0316 2.41043,9.0316" />
    <path
       id="path3125"
       style="fill:none;stroke:#293235;stroke-width:5.21759319;stroke-linecap:butt;stroke-linejoin:round;stroke-miterlimit:4;stroke-opacity:1;stroke-dasharray:none"
       d="m 316.14327,552.67282 c 0,0 12.71892,-8.6482 13.47572,1.93368 0.95684,13.40237 -18.54329,13.90246 -26.86477,19.5768 -5.66767,-15.4094 -2.31708,-36.01972 10.97862,-30.54208 6.43114,2.64713 2.41043,9.0316 2.41043,9.0316 z" />
    <path
       id="path3129"
       style="fill:#76cc6e;fill-opacity:1;fill-rule:nonzero;stroke:none"
       d="m 277.84881,546.52239 c 0,0 12.16216,-9.41834 13.56908,1.1102 1.78032,13.30903 -14.2792,18.03987 -25.60455,21.1871 -6.60784,-15.03934 -3.14722,-34.25609 9.06828,-31.15887 6.74453,1.70697 2.96719,8.86157 2.96719,8.86157" />
    <path
       id="path3133"
       style="fill:none;stroke:#293235;stroke-width:5.21759319;stroke-linecap:butt;stroke-linejoin:round;stroke-miterlimit:4;stroke-opacity:1;stroke-dasharray:none"
       d="m 277.84881,546.52239 c 0,0 12.16216,-9.41834 13.56908,1.1102 1.78032,13.30903 -14.2792,18.03987 -25.60455,21.1871 -6.60784,-15.03934 -3.14722,-34.25609 9.06828,-31.15887 6.74453,1.70697 2.96719,8.86157 2.96719,8.86157 z" />
    <path
       id="path3137"
       style="fill:#76cc6e;fill-opacity:1;fill-rule:nonzero;stroke:none"
       d="m 406.05656,368.41811 c 0,0 -10.1418,13.23234 2.95053,16.56294 17.07303,4.34077 14.2692,-28.95848 16.31289,-39.16362 -7.95474,1.81032 -41.60405,4.16407 -35.80302,21.65384 3.65398,10.99529 16.5396,0.94684 16.5396,0.94684" />
    <path
       id="path3141"
       style="fill:none;stroke:#293235;stroke-width:5.21759319;stroke-linecap:butt;stroke-linejoin:round;stroke-miterlimit:4;stroke-opacity:1;stroke-dasharray:none"
       d="m 406.05656,368.41811 c 0,0 -10.1418,13.23234 2.95053,16.56294 17.07303,4.34077 14.2692,-28.95848 16.31289,-39.16362 -7.95474,1.81032 -41.60405,4.16407 -35.80302,21.65384 3.65398,10.99529 16.5396,0.94684 16.5396,0.94684 z" />
    <path
       id="path3145"
       style="fill:#76cc6e;fill-opacity:1;fill-rule:nonzero;stroke:none"
       d="m 422.4168,408.2655 c 0,0 -1.06019,15.97284 11.37535,10.70857 16.22955,-6.86455 -5.68767,-31.41225 -12.87228,-41.24733 0.3734,13.23902 -23.44083,29.14518 -10.57521,38.97692 9.20163,7.04125 12.07214,-8.43816 12.07214,-8.43816" />
    <path
       id="path3149"
       style="fill:none;stroke:#293235;stroke-width:5.21759319;stroke-linecap:butt;stroke-linejoin:round;stroke-miterlimit:4;stroke-opacity:1;stroke-dasharray:none"
       d="m 422.4168,408.2655 c 0,0 -1.06019,15.97284 11.37535,10.70857 16.22955,-6.86455 -5.68767,-31.41225 -12.87228,-41.24733 0.3734,13.23902 -23.44083,29.14518 -10.57521,38.97692 9.20163,7.04125 12.07214,-8.43816 12.07214,-8.43816 z" />
    <path
       id="path3153"
       style="fill:#76cc6e;fill-opacity:1;fill-rule:nonzero;stroke:none"
       d="m 466.88768,391.3925 c 0,0 -0.34673,14.63594 10.00178,10.83193 19.69349,-7.24129 -5.35095,-42.20083 -5.35095,-42.20083 0,0 -30.08534,24.53769 -16.41958,36.90322 8.58819,7.77471 11.76875,-5.53432 11.76875,-5.53432" />
    <path
       id="path3157"
       style="fill:none;stroke:#293235;stroke-width:5.21759319;stroke-linecap:butt;stroke-linejoin:round;stroke-miterlimit:4;stroke-opacity:1;stroke-dasharray:none"
       d="m 466.88768,391.3925 c 0,0 -0.34673,14.63594 10.00178,10.83193 19.69349,-7.24129 -5.35095,-42.20083 -5.35095,-42.20083 0,0 -30.08534,24.53769 -16.41958,36.90322 8.58819,7.77471 11.76875,-5.53432 11.76875,-5.53432 z" />
    <path
       id="path3161"
       style="fill:#76cc6e;fill-opacity:1;fill-rule:nonzero;stroke:none"
       d="m 476.15367,430.63915 c 0,0 -12.24884,-9.54503 -15.65277,2.18372 -4.6775,16.10953 26.1013,9.45502 35.43629,19.96021 -2.14372,-13.5324 0.84015,-39.99043 -17.27974,-36.6065 -11.38869,2.12705 -2.50378,14.46257 -2.50378,14.46257" />
    <path
       id="path3165"
       style="fill:none;stroke:#293235;stroke-width:5.21759319;stroke-linecap:butt;stroke-linejoin:round;stroke-miterlimit:4;stroke-opacity:1;stroke-dasharray:none"
       d="m 476.15367,430.63915 c 0,0 -12.24884,-9.54503 -15.65277,2.18372 -4.6775,16.10953 26.1013,9.45502 35.43629,19.96021 -2.14372,-13.5324 0.84015,-39.99043 -17.27974,-36.6065 -11.38869,2.12705 -2.50378,14.46257 -2.50378,14.46257 z" />
    <path
       id="path3169"
       style="fill:#76cc6e;fill-opacity:1;fill-rule:nonzero;stroke:none"
       d="m 447.47357,451.63755 c 0,0 -9.48835,-10.91527 -13.82579,0.48008 -6.05441,15.88616 23.8309,17.77649 32.1057,19.11673 -1.09353,-10.79525 -0.61678,-38.15677 -16.59961,-33.49595 -9.08162,2.64714 -1.6803,13.89914 -1.6803,13.89914" />
    <path
       id="path3173"
       style="fill:none;stroke:#293235;stroke-width:5.21759319;stroke-linecap:butt;stroke-linejoin:round;stroke-miterlimit:4;stroke-opacity:1;stroke-dasharray:none"
       d="m 447.47357,451.63755 c 0,0 -9.48835,-10.91527 -13.82579,0.48008 -6.05441,15.88616 23.8309,17.77649 32.1057,19.11673 -1.09353,-10.79525 -0.61678,-38.15677 -16.59961,-33.49595 -9.08162,2.64714 -1.6803,13.89914 -1.6803,13.89914 z" />
    <path
       id="path3177"
       style="fill:#76cc6e;fill-opacity:1;fill-rule:nonzero;stroke:none"
       d="m 442.91879,503.75445 c 0,0 -2.84718,14.18252 7.36797,12.66892 19.43012,-2.88051 1.89034,-26.1013 0.3834,-35.18291 -6.43114,6.43114 -31.3989,15.50942 -23.48417,27.70158 6.31112,9.71839 15.7328,-5.18759 15.7328,-5.18759" />
    <path
       id="path3181"
       style="fill:none;stroke:#293235;stroke-width:5.21759319;stroke-linecap:butt;stroke-linejoin:round;stroke-miterlimit:4;stroke-opacity:1;stroke-dasharray:none"
       d="m 442.91879,503.75445 c 0,0 -2.84718,14.18252 7.36797,12.66892 19.43012,-2.88051 1.89034,-26.1013 0.3834,-35.18291 -6.43114,6.43114 -31.3989,15.50942 -23.48417,27.70158 6.31112,9.71839 15.7328,-5.18759 15.7328,-5.18759 z" />
    <path
       id="path3185"
       style="fill:#76cc6e;fill-opacity:1;fill-rule:nonzero;stroke:none"
       d="m 410.44534,469.99513 c 0,0 -13.159,-6.65785 -11.80209,3.87402 1.71697,13.31903 18.15989,11.02195 27.43487,14.93932 3.77733,-16.26622 -2.6038,-37.49999 -14.55259,-29.50524 -5.77769,3.87402 -1.08019,10.6919 -1.08019,10.6919" />
    <path
       id="path3189"
       style="fill:none;stroke:#293235;stroke-width:5.21759319;stroke-linecap:butt;stroke-linejoin:round;stroke-miterlimit:4;stroke-opacity:1;stroke-dasharray:none"
       d="m 410.44534,469.99513 c 0,0 -13.159,-6.65785 -11.80209,3.87402 1.71697,13.31903 18.15989,11.02195 27.43487,14.93932 3.77733,-16.26622 -2.6038,-37.49999 -14.55259,-29.50524 -5.77769,3.87402 -1.08019,10.6919 -1.08019,10.6919 z" />
    <path
       id="path3193"
       style="fill:#76cc6e;fill-opacity:1;fill-rule:nonzero;stroke:none"
       d="m 398.23952,520.74979 c 0,0 1.46359,12.22884 9.68172,5.50098 10.39518,-8.50151 1.13353,-22.6907 -4.53747,-31.39224 -4.92088,8.32147 -28.74844,20.81036 -14.77929,30.6321 5.68767,4.00738 9.63504,-4.74084 9.63504,-4.74084" />
    <path
       id="path3197"
       style="fill:none;stroke:#293235;stroke-width:5.21759319;stroke-linecap:butt;stroke-linejoin:round;stroke-miterlimit:4;stroke-opacity:1;stroke-dasharray:none"
       d="m 398.23952,520.74979 c 0,0 1.46359,12.22884 9.68172,5.50098 10.39518,-8.50151 1.13353,-22.6907 -4.53747,-31.39224 -4.92088,8.32147 -28.74844,20.81036 -14.77929,30.6321 5.68767,4.00738 9.63504,-4.74084 9.63504,-4.74084 z" />
    <path
       id="path3201"
       style="fill:#76cc6e;fill-opacity:1;fill-rule:nonzero;stroke:none"
       d="m 430.85595,552.68581 c 0,0 -12.71892,-8.65154 -13.47906,1.94034 -0.9535,13.39571 18.54329,13.89914 26.86477,19.56681 5.67101,-15.40607 2.32041,-36.01306 -10.97861,-30.53209 -6.42781,2.64714 -2.4071,9.02494 -2.4071,9.02494" />
    <path
       id="path3205"
       style="fill:none;stroke:#293235;stroke-width:5.21759319;stroke-linecap:butt;stroke-linejoin:round;stroke-miterlimit:4;stroke-opacity:1;stroke-dasharray:none"
       d="m 430.85595,552.68581 c 0,0 -12.71892,-8.65154 -13.47906,1.94034 -0.9535,13.39571 18.54329,13.89914 26.86477,19.56681 5.67101,-15.40607 2.32041,-36.01306 -10.97861,-30.53209 -6.42781,2.64714 -2.4071,9.02494 -2.4071,9.02494 z" />
    <path
       id="path3209"
       style="fill:#76cc6e;fill-opacity:1;fill-rule:nonzero;stroke:none"
       d="m 469.15376,546.53538 c 0,0 -12.16215,-9.41834 -13.5724,1.1102 -1.77699,13.3057 14.28253,18.0432 25.60787,21.18376 6.60784,-15.026 3.1439,-34.24941 -9.07161,-31.1522 -6.74786,1.70364 -2.96386,8.85824 -2.96386,8.85824" />
    <path
       id="path3213"
       style="fill:none;stroke:#293235;stroke-width:5.21759319;stroke-linecap:butt;stroke-linejoin:round;stroke-miterlimit:4;stroke-opacity:1;stroke-dasharray:none"
       d="m 469.15376,546.53538 c 0,0 -12.16215,-9.41834 -13.5724,1.1102 -1.77699,13.3057 14.28253,18.0432 25.60787,21.18376 6.60784,-15.026 3.1439,-34.24941 -9.07161,-31.1522 -6.74786,1.70364 -2.96386,8.85824 -2.96386,8.85824 z" />
    <path
       id="path3217"
       style="fill:none;stroke:#293235;stroke-width:6.9479003;stroke-linecap:round;stroke-linejoin:miter;stroke-miterlimit:4;stroke-opacity:1;stroke-dasharray:none"
       d="m 373.49878,561.81476 24.5877,-19.29342 18.54329,-4.53414 17.77316,-12.48555 23.82756,0 m -84.73171,-47.28506 41.61072,-41.99079 17.40309,-0.7568 30.25537,-21.18043 m -89.26918,147.50952 -24.5877,-19.29009 -18.53329,-4.54081 -17.77982,-12.48221 -21.71052,0 m 82.61133,-47.28506 -41.60739,-41.99079 -17.40309,-0.75347 -30.26203,-21.18376 m 89.27251,138.44458 0,-143.73885" />
    <path
       id="path3221"
       style="fill:none;stroke:#293235;stroke-width:3.47728419;stroke-linecap:round;stroke-linejoin:miter;stroke-miterlimit:4;stroke-opacity:1;stroke-dasharray:none"
       d="m 434.40159,525.50298 8.51818,-21.74719 m -26.29133,34.22941 14.22919,14.69927 m -37.31329,-6.75786 4.69417,-25.17781 m 70.91592,25.78792 -10.92527,-21.03374 m 0,0 14.00582,-15.51275 m -61.79097,-39.99377 -17.27307,-11.45203 m 69.59902,-44.25786 4.1174,-22.89407 m -4.1174,22.89407 13.38238,16.3529 m -43.63775,4.83086 14.95933,16.1662 m -32.36242,-15.4094 6.78121,-28.49172 m -48.39526,0.87682 32.55911,-40.1938 m -93.45659,157.06455 -8.52485,-21.7472 m 26.30467,34.22941 -14.23586,14.70595 m 37.30996,-6.75787 -4.69417,-25.18114 m -70.91259,25.79125 10.91861,-21.0404 m 0,0 -13.99249,-15.50609 m 61.78431,-39.9971 17.26973,-11.45203 m -69.59902,-44.25453 -4.1174,-22.8974 m 4.1174,22.8974 -13.37905,16.35291 m 43.64109,4.82752 -14.966,16.17287 m 32.36575,-15.41607 -6.77787,-28.48839 m 48.38526,0.87682 -32.55245,-40.19713 m 32.55245,36.03639 0,-64.31141" />
    <path
       id="path3225"
       style="fill:#293235;fill-opacity:1;fill-rule:nonzero;stroke:none"
       d="m 569.82262,484.34834 c -1.42025,-1.70363 -1.79365,-6.07774 -3.9707,-8.79823 -3.94403,-4.88753 -5.22093,-5.4443 -14.4659,-5.4443 -4.48747,0 -9.79174,0.67679 -12.10548,2.03703 -7.88474,4.75418 -12.0088,9.64838 -11.44204,25.25448 0.69679,19.41679 11.31201,33.98604 34.82952,33.98604 11.82877,0 11.41203,-2.20706 14.53258,-4.4808 3.11722,-2.2704 6.80788,0.85349 4.53747,5.10424 -1.4936,2.80383 -5.67434,5.39429 -9.64171,8.51151 -4.20741,3.30059 -12.27551,5.96106 -17.3064,5.96106 -28.155,0 -44.54458,-18.24657 -44.54458,-42.84094 0,-23.91424 13.11566,-32.44909 24.68438,-38.30013 12.3722,-6.26445 24.54769,-6.24444 28.08499,-6.24444 9.10828,0 19.04338,2.71381 20.30694,4.33743 1.25355,1.62029 -3.5673,14.95933 -5.83771,18.9267 -2.2704,3.9707 -6.2411,3.69065 -7.66136,1.99035" />
    <path
       id="path3229"
       style="fill:#293235;fill-opacity:1;fill-rule:nonzero;stroke:none"
       d="m 186.50758,503.92048 18.15989,-0.0133 c 3.22724,0 6.44782,-3.97738 7.49133,-8.74489 l 2.84384,0 0,25.02778 -2.84384,0 c -0.66345,-4.42079 -3.03387,-8.6282 -5.97106,-8.6282 l -19.68016,0.1635 0,26.87143 c 0,4.99089 4.35078,5.55766 7.76471,7.03125 l 0,3.40394 -29.23519,0 0,-3.40394 c 3.69733,-1.02018 8.04477,-1.81699 8.04477,-7.03125 l 0,-60.10734 c 0,-5.23092 -4.34744,-6.0244 -8.04477,-7.05458 l 0,-3.40061 49.92887,0 0,15.06935 -2.84384,0 c -0.47342,-8.87491 -5.29761,-7.41132 -10.60855,-7.41132 l -15.006,0 0,28.22835 z" />
    <path
       id="path3233"
       style="fill:#76cc6e;fill-opacity:1;fill-rule:nonzero;stroke:none"
       d="m 412.65275,658.25788 c -2.84051,-1.13353 -7.0946,0.28339 -8.7949,-1.98701 -1.70363,-2.27041 -6.80787,-6.24111 -9.64504,-7.94141 -2.84051,-1.70364 -5.95773,-4.54414 -9.93177,-6.52783 -3.96737,-1.98369 -10.78191,-1.7003 -10.78191,-1.7003 0,0 -6.80788,-0.28339 -10.78192,1.7003 -3.96737,1.98369 -7.08792,4.82419 -9.92509,6.52783 -2.83717,1.7003 -7.94808,5.671 -9.64838,7.94141 -1.7003,2.2704 -5.95439,0.85348 -8.7949,1.98701 -2.83383,1.13687 0.56677,3.40728 2.55379,4.53748 1.98702,1.13353 1.42025,4.82752 3.12056,4.5408 1.70363,-0.28005 4.25408,-4.5408 6.8112,-6.80454 2.55046,-2.27374 7.66136,-9.08161 9.9251,-10.50186 2.27374,-1.42026 15.03934,-2.83717 16.73964,-2.83717 1.70697,0 14.4759,1.41691 16.7363,2.83717 2.27374,1.42025 7.38131,8.22812 9.93177,10.50186 2.55378,2.26374 5.1109,6.52449 6.81121,6.80454 1.70363,0.28672 1.1402,-3.40727 3.11722,-4.5408 1.98702,-1.1302 5.39429,-3.40061 2.55712,-4.53748" />
    <path
       id="path3237"
       style="fill:#ffffff;fill-opacity:1;fill-rule:nonzero;stroke:none"
       d="m 379.45349,682.9596 c 0,3.88403 -3.15056,7.03459 -7.04125,7.03459 -3.88402,0 -7.03791,-3.15056 -7.03791,-7.03459 0,-3.89069 3.15389,-7.04125 7.03791,-7.04125 3.89069,0 7.04125,3.15056 7.04125,7.04125" />
    <g
       style="font-size:40.00710297px"
       id="text3239">
      <path
         d="m 353.4313,728.46406 c 0,-3.72711 0.38347,-6.72673 1.1504,-8.99887 0.76692,-2.27209 1.90656,-4.02456 3.41892,-5.25741 1.51235,-1.23278 3.41534,-1.84919 5.70897,-1.84923 1.69153,4e-5 3.17521,0.34049 4.45105,1.02138 1.27581,0.68095 2.32944,1.6629 3.16089,2.94587 0.83142,1.28302 1.48367,2.84554 1.95675,4.68758 0.47303,1.84209 0.70956,4.32564 0.70959,7.45068 -3e-5,3.69847 -0.37991,6.68376 -1.13965,8.95587 -0.75978,2.27212 -1.89584,4.02817 -3.40817,5.26815 -1.51237,1.23999 -3.42253,1.85998 -5.73046,1.85999 -3.03906,-1e-5 -5.42585,-1.08947 -7.1604,-3.26841 -2.07859,-2.62332 -3.11789,-6.89519 -3.11789,-12.8156 z m 3.978,0 c -10e-6,5.17499 0.60565,8.619 1.81698,10.33204 1.21131,1.71305 2.70574,2.56957 4.48331,2.56957 1.77754,0 3.27197,-0.86011 4.4833,-2.58032 1.2113,-1.72021 1.81696,-5.16064 1.81698,-10.32129 -2e-5,-5.18929 -0.60568,-8.63688 -1.81698,-10.34279 -1.21133,-1.70585 -2.7201,-2.55879 -4.52631,-2.55882 -1.77757,3e-5 -3.19674,0.75262 -4.25753,2.25778 -1.33317,1.92094 -1.99976,5.46887 -1.99975,10.64383 z"
         style="font-size:44.03748703px;font-variant:normal;font-weight:normal;font-stretch:normal;writing-mode:lr-tb;fill:#2e2a2b;fill-opacity:1;fill-rule:nonzero;stroke:none;font-family:Myriad Pro;-inkscape-font-specification:MyriadPro-Regular"
         id="path2953" />
      <path
         d="m 381.97879,726.91587 c -1.60554,-0.58772 -2.79535,-1.42633 -3.56944,-2.51582 -0.7741,-1.08944 -1.16115,-2.39394 -1.16115,-3.91348 0,-2.2936 0.82427,-4.22167 2.47281,-5.78422 1.64853,-1.5625 3.84181,-2.34376 6.57982,-2.3438 2.75233,4e-5 4.9671,0.79922 6.64433,2.39755 1.67719,1.5984 2.51579,3.54439 2.51581,5.83798 -2e-5,1.4622 -0.38348,2.73445 -1.15039,3.81673 -0.76695,1.08232 -1.93167,1.91734 -3.49418,2.50506 1.93522,0.63076 3.40815,1.64855 4.4188,3.05338 1.0106,1.40485 1.51591,3.08206 1.51593,5.03163 -2e-5,2.695 -0.9533,4.95995 -2.85985,6.79484 -1.90659,1.8349 -4.41523,2.75234 -7.52594,2.75235 -3.11073,-1e-5 -5.61937,-0.92104 -7.52594,-2.7631 -1.90657,-1.84206 -2.85986,-4.13926 -2.85985,-6.89161 -1e-5,-2.04991 0.51964,-3.76654 1.55894,-5.14989 1.03929,-1.38332 2.51939,-2.32586 4.4403,-2.8276 z m -0.77409,-6.55832 c -10e-6,1.49088 0.48022,2.70936 1.44068,3.65546 0.96044,0.94613 2.20759,1.41919 3.74146,1.41917 1.49084,2e-5 2.71291,-0.46945 3.66621,-1.40842 0.95327,-0.93893 1.42991,-2.08932 1.42993,-3.45118 -2e-5,-1.41915 -0.491,-2.61255 -1.47294,-3.5802 -0.98197,-0.96759 -2.20403,-1.4514 -3.6662,-1.45143 -1.47653,3e-5 -2.70218,0.47309 -3.67696,1.41918 -0.9748,0.94614 -1.46219,2.07861 -1.46218,3.39742 z m -1.24716,14.55731 c 0,1.10382 0.26161,2.17178 0.78485,3.2039 0.52322,1.03214 1.3009,1.83132 2.33304,2.39755 1.03212,0.56624 2.14309,0.84936 3.33292,0.84936 1.84921,0 3.3759,-0.59491 4.58007,-1.78472 1.20413,-1.18981 1.8062,-2.70217 1.80622,-4.53707 -2e-5,-1.86355 -0.62001,-3.40458 -1.85998,-4.62308 -1.24,-1.21847 -2.79178,-1.82771 -4.65533,-1.82772 -1.82057,10e-6 -3.32934,0.60209 -4.52631,1.80622 -1.19699,1.20416 -1.79548,2.70935 -1.79548,4.51556 z"
         style="font-size:44.03748703px;font-variant:normal;font-weight:normal;font-stretch:normal;writing-mode:lr-tb;fill:#2e2a2b;fill-opacity:1;fill-rule:nonzero;stroke:none;font-family:Myriad Pro;-inkscape-font-specification:MyriadPro-Regular"
         id="path2955" />
    </g>
    <path
       id="path3245"
       style="fill:#293235;fill-opacity:1;fill-rule:nonzero;stroke:none"
       d="m 208.63218,302.48504 c 3.04054,3.69065 4.55747,5.53432 7.59801,9.2283 5.20759,-4.29076 7.86807,-6.33112 13.28903,-10.20847 -2.78049,-3.8907 -4.17074,-5.83104 -6.95123,-9.72173 1.5336,-1.09686 2.30707,-1.64029 3.85401,-2.70381 6.47115,9.415 9.70173,14.1225 16.17287,23.54084 -1.37691,0.94684 -2.06036,1.43026 -3.42394,2.4071 -3.11388,-4.36078 -4.67083,-6.54117 -7.78471,-10.89861 -5.35095,3.82402 -7.97475,5.83771 -13.11566,10.07179 3.40393,4.13407 5.10757,6.20444 8.51151,10.3385 -1.2969,1.06686 -1.93701,1.60696 -3.21724,2.70048 -7.42132,-8.68487 -11.13198,-13.03231 -18.55663,-21.71718 1.44026,-1.23022 2.16705,-1.837 3.62398,-3.03721" />
    <path
       id="path3249"
       style="fill:#293235;fill-opacity:1;fill-rule:nonzero;stroke:none"
       d="m 243.15665,295.3598 c 3.24391,5.17092 9.28165,7.77138 14.93266,4.56414 5.69434,-3.23057 6.54782,-9.64171 3.60063,-15.4194 -2.58045,-5.0609 -8.54818,-8.77156 -15.13602,-5.03423 -6.54116,3.71066 -6.73119,10.57521 -3.39727,15.88949 m 22.53734,-13.04231 c 4.3041,8.8449 0.67345,16.35957 -6.32446,20.34027 -7.24462,4.12074 -15.35606,2.53045 -20.09023,-4.7075 -4.96088,-7.59135 -2.30374,-16.5196 5.97106,-21.2071 8.4615,-4.79085 16.73297,-2.04703 20.44363,5.57433" />
    <path
       id="path3253"
       style="fill:#293235;fill-opacity:1;fill-rule:nonzero;stroke:none"
       d="m 297.34758,271.71627 c -1.46693,-3.71399 -3.24724,-8.16478 -4.31076,-11.56539 -0.06,0.0187 -0.0899,0.024 -0.1467,0.0432 -0.0667,3.54396 -0.25337,7.41132 -0.54009,11.63873 -0.37007,5.99774 -0.49009,8.98827 -0.60344,14.95266 -1.14021,0.42674 -1.71031,0.64678 -2.84717,1.09353 -3.85736,-4.34077 -5.84104,-6.47782 -9.90843,-10.67857 -2.9972,-3.11722 -5.70768,-5.96105 -7.95475,-8.68154 -0.0365,0.016 -0.0533,0.024 -0.0901,0.04 1.32691,3.30392 3.01054,7.79472 4.4608,11.83543 1.64696,4.62749 2.4771,6.9379 4.15407,11.55539 -1.40692,0.62344 -2.11038,0.9435 -3.51063,1.59028 -4.00737,-10.73857 -5.96105,-16.12953 -9.7684,-26.94812 2.11038,-0.9535 3.1739,-1.41691 5.30094,-2.32041 4.36745,4.1474 6.49782,6.26111 10.64189,10.56188 2.57713,2.76049 4.74085,5.29094 6.54783,7.77804 0.0501,-0.0213 0.0734,-0.0267 0.12669,-0.0467 -0.27671,-2.98053 -0.30672,-6.32779 -0.16003,-10.21848 0.32006,-5.99773 0.54677,-9.0016 1.1302,-15.03267 2.18039,-0.73346 3.27058,-1.08686 5.46097,-1.77031 4.24076,10.64522 6.32113,15.98283 10.38185,26.69807 -1.4936,0.45341 -2.24373,0.68012 -3.73067,1.1602 -1.83699,-4.68083 -2.76382,-7.01791 -4.63415,-11.6854" />
    <path
       id="path3257"
       style="fill:#293235;fill-opacity:1;fill-rule:nonzero;stroke:none"
       d="m 314.76267,276.80184 c 0.79348,-0.0702 1.93368,-0.31006 3.32726,-0.64678 4.05072,-0.97017 7.52467,-3.10722 6.69452,-7.17794 -0.78347,-3.82068 -4.85086,-4.64416 -9.33165,-3.5673 -1.36025,0.32672 -2.03703,0.49008 -3.39394,0.83681 1.08353,4.22409 1.62362,6.33446 2.70381,10.55521 m -3.39727,-13.25902 c 1.5036,-0.3834 2.26041,-0.5701 3.76734,-0.93017 4.39078,-1.05018 6.5645,-3.55396 6.00106,-6.24777 -0.68345,-3.27725 -3.94069,-3.96404 -8.30147,-2.92052 -1.98035,0.47342 -3.09055,0.88682 -3.75066,1.18688 0.91349,3.56396 1.37024,5.35095 2.28373,8.91158 m -7.23128,-10.18514 c 1.79699,-0.84349 4.72751,-1.88034 7.78472,-2.6138 4.36077,-1.04685 7.3513,-0.9435 9.70839,-0.0213 1.91033,0.75014 3.32392,2.20039 3.74399,4.40745 0.51676,2.70382 -1.11686,5.45764 -4.27075,7.25796 0.005,0.0333 0.0107,0.0533 0.016,0.0867 3.1939,0.0133 7.17461,1.54694 7.94808,5.71435 0.44674,2.41709 -0.26672,4.48746 -1.54028,6.12108 -1.71697,2.20039 -4.99088,3.72066 -9.87508,4.92088 -2.66714,0.65345 -4.74085,1.03351 -6.06775,1.22021 -2.97719,-10.84192 -4.47079,-16.25955 -7.44799,-27.09481" />
    <path
       id="path3261"
       style="fill:#293235;fill-opacity:1;fill-rule:nonzero;stroke:none"
       d="m 335.65841,246.41543 c 0.9635,6.69452 1.44359,10.04178 2.40376,16.73964 0.91016,6.33112 4.35744,8.56819 8.47817,8.10811 4.57748,-0.51009 7.2913,-3.51063 6.79454,-9.80174 -0.53343,-6.74453 -0.80014,-10.11513 -1.33357,-16.85633 1.79699,-0.14002 2.70048,-0.20324 4.5008,-0.31672 0.40674,6.64784 0.61344,9.9751 1.02018,16.62628 0.53676,8.75822 -4.18741,12.61558 -10.78525,13.35237 -6.23444,0.70013 -11.44536,-1.81699 -12.85895,-10.56187 -1.07019,-6.64785 -1.60695,-9.96844 -2.68047,-16.60962 1.78365,-0.28672 2.67381,-0.42341 4.46079,-0.68012" />
    <path
       id="path3265"
       style="fill:#293235;fill-opacity:1;fill-rule:nonzero;stroke:none"
       d="m 368.84796,257.21802 c 1.72697,-0.024 2.59379,-0.024 4.32076,-0.016 4.5108,0.016 7.44799,-2.02369 7.55801,-5.28427 0.12322,-3.68399 -3.0372,-5.4443 -7.67469,-5.47764 -2.11705,-0.016 -3.64732,0.18003 -4.35411,0.36007 0.06,4.1674 0.0901,6.24777 0.14989,10.41851 M 364.217,244.31639 c 2.23706,-0.45008 5.46097,-0.72346 8.53485,-0.72013 4.76418,0.0107 7.82806,0.86349 9.89509,2.53712 1.65363,1.34357 2.52045,3.34059 2.40709,5.54098 -0.19016,3.76734 -3.04387,6.11442 -6.49448,7.04459 0,0.0499 0,0.0768 -0.003,0.12669 2.48711,0.82681 3.88736,2.94385 4.5108,5.93105 0.84348,4.01738 1.43025,6.82121 2.00702,7.95475 -1.63695,-0.0899 -2.4471,-0.12989 -4.08405,-0.1899 -0.47009,-0.86682 -1.09687,-3.32393 -1.857,-6.89123 -0.84015,-3.9407 -2.52378,-5.51764 -6.31446,-5.65433 -1.57027,0 -2.36041,0 -3.93069,0.024 0.0701,4.94755 0.10348,7.42799 0.17336,12.3822 -1.58028,0.024 -2.37042,0.0333 -3.95403,0.0832 -0.3534,-11.272 -0.53677,-16.903 -0.89016,-28.16833" />
    <path
       id="path3269"
       style="fill:#293235;fill-opacity:1;fill-rule:nonzero;stroke:none"
       d="m 413.1088,274.72947 c -1.87033,0.27005 -5.49431,0.64012 -9.59837,0.0765 -4.59748,-0.63345 -8.27147,-2.11704 -11.0653,-5.0409 -2.4671,-2.58379 -3.92069,-6.51782 -3.60397,-10.94527 0.60011,-8.47151 8.12811,-14.38922 19.61682,-12.76894 3.96403,0.5601 6.94123,1.80032 8.2948,2.64047 -0.63011,1.11353 -0.94017,1.66363 -1.56028,2.7805 -1.68029,-0.97684 -3.85068,-1.89367 -7.26795,-2.37376 -8.2348,-1.16021 -14.01582,2.76049 -14.63593,9.89509 -0.62345,7.21795 3.74066,11.8321 10.91527,12.82228 2.60046,0.3634 4.43412,0.31005 5.41763,0.0435 0.54676,-3.36726 0.82347,-5.04756 1.37024,-8.41149 -2.60046,-0.42341 -3.90069,-0.61344 -6.50782,-0.96351 0.15682,-1.17687 0.23684,-1.76698 0.39673,-2.94052 4.2741,0.57344 6.40781,0.90683 10.65856,1.6703 -0.9735,5.40429 -1.45692,8.1081 -2.43043,13.51573" />
    <path
       id="path3273"
       style="fill:#293235;fill-opacity:1;fill-rule:nonzero;stroke:none"
       d="m 430.90799,266.71704 c -0.26672,1.07019 -0.40007,1.60028 -0.66679,2.67047 -4.58414,-1.14354 -6.88789,-1.65696 -11.50871,-2.57046 0.21337,-1.08019 0.32006,-1.62028 0.53343,-2.70048 4.6775,0.9235 7.00458,1.44359 11.64207,2.60047" />
    <path
       id="path3277"
       style="fill:#293235;fill-opacity:1;fill-rule:nonzero;stroke:none"
       d="m 433.1267,275.91467 c 1.49693,1.45692 3.81068,2.98386 6.47782,3.79401 3.95737,1.20021 6.87789,0.10001 7.79138,-2.63047 0.85015,-2.53378 -0.29338,-4.63416 -4.07405,-7.27129 -4.53414,-3.16056 -7.24796,-6.30779 -6.20777,-10.19515 1.15353,-4.30076 6.36113,-6.38446 12.83227,-4.34743 3.40394,1.07352 5.64434,2.56712 6.86789,3.75733 -0.86349,0.97351 -1.28689,1.45692 -2.14038,2.4371 -0.89683,-0.84348 -2.81717,-2.39043 -5.79436,-3.32726 -4.4908,-1.41025 -6.86455,0.37007 -7.40465,2.24373 -0.7368,2.56713 0.88682,4.36078 4.79419,7.19795 4.78418,3.46728 6.63451,6.64451 5.23092,10.59855 -1.47359,4.1574 -6.08108,6.52449 -13.05565,4.42078 -2.85384,-0.86015 -5.76102,-2.54378 -7.10459,-3.9507 0.71012,-1.09353 1.06685,-1.63696 1.78698,-2.72715" />
    <path
       id="path3281"
       style="fill:#293235;fill-opacity:1;fill-rule:nonzero;stroke:none"
       d="m 473.07846,282.56118 c 0.20324,-3.52729 0.28339,-5.29427 0.40341,-8.84157 0.0632,-2.01035 0.28005,-3.774 0.47008,-5.49097 -0.04,-0.016 -0.0568,-0.0267 -0.0966,-0.0435 -1.14687,1.35024 -2.35375,2.72049 -3.63731,4.06072 -2.52378,2.51712 -3.76734,3.78734 -6.21444,6.3578 3.65732,1.5036 5.47097,2.29707 9.07494,3.95737 m -10.97194,-1.61696 c -2.60046,2.82051 -3.88069,4.24743 -6.39114,7.1246 -1.55027,-0.60344 -2.32708,-0.90016 -3.88402,-1.47693 7.93141,-9.25497 12.12549,-13.74577 20.97706,-22.40397 2.01369,0.85348 3.02053,1.29023 5.02089,2.19039 -0.30339,12.38886 -0.71346,18.53995 -2.0437,30.67544 -1.54694,-0.78347 -2.32374,-1.17021 -3.88402,-1.92034 0.35673,-3.82068 0.50676,-5.74102 0.76013,-9.58837 -4.18407,-1.94701 -6.29778,-2.86717 -10.5552,-4.60082" />
    <path
       id="path3285"
       style="fill:#293235;fill-opacity:1;fill-rule:nonzero;stroke:none"
       d="m 499.56116,296.84606 c 0.62678,-3.48395 0.91683,-5.23759 1.46026,-8.75155 0.30339,-1.99369 0.73013,-3.72066 1.12354,-5.40763 -0.0333,-0.0187 -0.0534,-0.0333 -0.0902,-0.0533 -1.31357,1.19021 -2.68381,2.40043 -4.13407,3.56397 -2.8305,2.17372 -4.23075,3.28058 -6.99124,5.51431 3.48728,1.97368 5.21426,3.00387 8.63153,5.13424 m -10.81525,-3.0572 c -2.94719,2.4671 -4.40078,3.72066 -7.26463,6.25444 -1.48026,-0.80348 -2.22372,-1.19688 -3.71732,-1.97035 9.05494,-8.17812 13.80578,-12.09882 23.72087,-19.55681 1.92035,1.11353 2.87718,1.6803 4.77752,2.84051 -1.78365,12.29551 -2.92719,18.36326 -5.71101,30.27871 -1.46026,-0.99018 -2.19039,-1.47026 -3.66732,-2.4271 0.81014,-3.76067 1.19021,-5.65434 1.90367,-9.45168 -3.97071,-2.49377 -5.98106,-3.68732 -10.04178,-5.96772" />
    <path
       id="path3289"
       style="fill:#293235;fill-opacity:1;fill-rule:nonzero;stroke:none"
       d="m 516.75022,304.49876 c 1.46025,1.07352 2.18372,1.61695 3.63064,2.72048 3.774,2.88051 7.48133,3.14389 9.53836,0.61344 2.32708,-2.86051 0.73346,-6.28778 -3.14056,-9.26831 -1.76364,-1.36024 -3.16056,-2.16705 -3.86068,-2.47044 -2.46711,3.36393 -3.70066,5.0409 -6.16776,8.40483 m 3.91402,-13.21235 c 2.14372,1.04685 5.00756,2.86384 7.58135,4.82086 3.99071,3.0372 6.05107,5.68767 6.77787,8.35148 0.58677,2.13705 0.11682,4.29076 -1.3069,5.97439 -2.43376,2.88052 -6.26111,2.91385 -9.72173,1.44359 -0.0301,0.04 -0.0467,0.06 -0.0765,0.10002 1.59361,2.2504 1.4936,4.83419 0.22004,7.62135 -1.71364,3.74734 -2.90719,6.36447 -3.10722,7.64136 -1.32357,-1.1302 -1.98702,-1.69363 -3.32726,-2.79383 0.12669,-0.99017 1.08019,-3.34393 2.5938,-6.67785 1.66696,-3.68065 1.19687,-6.0244 -1.89701,-8.54152 -1.3169,-1.00017 -1.97702,-1.4936 -3.30725,-2.47044 -2.92719,3.99071 -4.38745,5.9844 -7.31463,9.97511 -1.34024,-0.98351 -2.0137,-1.47026 -3.36727,-2.43043 6.50449,-9.2083 9.7484,-13.80912 16.25289,-23.01409" />
    <path
       id="path3293"
       style="fill:#ffffff;fill-opacity:1;fill-rule:nonzero;stroke:none"
       d="m 408.42365,678.87989 c 0.98017,-1.24355 3.54396,-2.39376 8.70488,-5.74435 0,0 5.98773,-4.02405 6.7712,-4.70084 0.78347,-0.67011 4.09073,-3.89069 5.04756,-4.80752 0.95351,-0.92349 2.0737,-1.97035 2.73716,-2.33708 0.66011,-0.36673 2.6638,-0.86348 1.53027,1.19688 -1.12687,2.05703 -5.53432,7.02125 -8.35149,9.365 -2.42043,2.00035 -8.54485,5.2576 -10.77191,6.46115 -2.22706,1.20021 -3.20723,1.3269 -4.30076,1.62695 -1.10686,0.31006 -1.36691,-1.06019 -1.36691,-1.06019" />
    <path
       id="path3297"
       style="fill:#ffffff;fill-opacity:1;fill-rule:nonzero;stroke:none"
       d="m 340.48193,678.87989 c -0.9835,-1.24355 -3.54396,-2.39376 -8.70154,-5.74435 0,0 -5.99107,-4.02405 -6.77454,-4.70084 -0.78347,-0.67011 -4.09072,-3.89069 -5.04423,-4.80752 -0.95683,-0.92349 -2.07703,-1.97035 -2.74048,-2.33708 -0.66345,-0.36673 -2.66048,-0.86348 -1.53361,1.19688 1.13354,2.05703 5.53765,7.02125 8.35815,9.365 2.4171,2.00035 8.53818,5.2576 10.76525,6.46115 2.22706,1.20021 3.21057,1.3269 4.30409,1.62695 1.1102,0.31006 1.36691,-1.06019 1.36691,-1.06019" />
  </g>
</svg>
