<?xml version="1.0" encoding="UTF-8"?>
<svg width="656.1" height="772.2" version="1.2" viewBox="0 0 492.08 579.15" xmlns="http://www.w3.org/2000/svg" xmlns:xlink="http://www.w3.org/1999/xlink">
 <defs>
  <clipPath id="clip2">
   <path d="m579 248.43h102v120.57h-102z"/>
  </clipPath>
 </defs>
 <g transform="matrix(4.7172 0 0 4.7172 -2724.4 -1164.2)" stroke-width=".21199">
  <g>
   <path d="m629.95 366.68c26.961 0 48.953-19.48 48.953-43.363s-21.992-43.363-48.953-43.363c-26.965 0-48.953 19.48-48.953 43.363s21.988 43.363 48.953 43.363" fill="#fff" fill-rule="evenodd"/>
   <path d="m648.13 267.18c0-0.65625 0.67187-1.4609 1.3476-1.4609h0.5625c0.57031 0 1.2344 0.66406 1.2344 1.2344v0.5625c0 0.86329-0.88282 1.3477-1.7969 1.3477-0.64453 0-1.3476-0.96094-1.3476-1.6836m-32.898-1.0117c0-0.62891 0.75-1.4609 1.4609-1.4609h0.33593c0.60547 0 1.3477 0.60547 1.3477 1.2383v0.5586c0 0.80078-0.73047 1.3476-1.5742 1.3476-0.83203 0-1.5703-0.83203-1.5703-1.6836m17.516-0.89844c0-0.67187 0.78907-1.3477 1.4609-1.3477h0.22266c0.80859 0 1.4609 0.81641 1.4609 1.6836 0 0.78515-0.75 1.4609-1.5703 1.4609-0.84375 0-1.5742-0.54688-1.5742-1.3477zm-18.312-6.9023c0.0117 0.875 0.34766 1.2539 0.34766 2.0742v0.5625l-2.6875 0.48046-8e-3 0.41797c0 0.30078 0.0547 0.3086 0.11328 0.5586l2.5742-0.48438 0.39062 2.5-2.5156 0.45313c0 0.53906 0.65234 3.1094 0.47656 3.2812-0.10156 0.10156-3.0117 0.53125-3.3984 0.53906l-1.5586-9.2539zm11.238 2.1875v0.44922c0 1.4023 2.1875 2.0391 3.3672 2.3555v0.5625c-0.30078 0.0742-0.21094 0.11329-0.44531 0.11329-1.1758 0-1.8125-0.58204-2.6953-0.78516v2.6953c0 0.52735 1.8906 0.89844 2.4688 0.89844h0.89843c1.6367 0 3.4805-1.6133 3.4805-3.2578v-0.78907c0-0.57812-0.92187-1.4883-1.3867-1.7539-0.0352-0.0195-2.2773-0.81641-2.3203-0.82813 0.0391-0.44531 0.21875-0.55859 0.67578-0.55859h0.22266c0.80469 0 1.6367 0.95312 2.3594 1.1211v-2.6953c0-0.5-1.543-1.0117-2.1328-1.0117h-1.3476c-1.8711 0-3.1445 1.5039-3.1445 3.4844m17.699 7.082 3.1289 0.40625 4.7734-8.4961-3.4805-0.45312c-0.42969 0.64062-2.168 4.8008-2.3594 4.9414 0-1.9375-0.28515-2.8945-0.33203-4.4961-0.0312-1.0508-0.21484-1.0547-1.2383-1.1211-0.73437-0.043-1.2617-0.33594-2.1328-0.33594h-0.34375zm-45.883-6.6328-3.4648 12.512 3.9141-1.2852c0.99219 0 5.6133-1.4922 6.9883-1.7695 2.4727-0.5 4.9297-0.95703 7.4102-1.4609 4.4805-0.89844 11.02-1.4844 16.258-1.4844h4.9375c4.0859 0 8.8477 0.54688 12.465 1.125 2.0117 0.31641 3.9375 0.625 5.8477 1 1.2852 0.25391 4.6016 1.2461 5.5938 1.2774l6.2969 1.875c-0.10156-1.2617-0.96093-3.6016-1.2812-5.0078-0.33593-1.4766-0.79687-3.6484-1.2656-5.0195-0.29297-0.85937-0.13672-1.9688-1.0117-2.1289-0.57422-0.10938-1.9766-0.375-2.5664-0.58203-1.1914-0.41407-3.8008-0.85547-5.1641-1.1211-6.6484-1.2891-15.113-2.4219-22.844-2.4219h-4.3789c-1.7578 0-5.8047 0.27734-7.4375 0.53515-1.2344 0.19532-2.4219 0.16797-3.6289 0.41016-0.84375 0.17188-2.8086 0.47656-3.5312 0.51563-1.8633 0.0976-12 2.4258-13.137 3.0312" fill="#fff" fill-rule="evenodd"/>
   <g>
    <path d="m663.71 339.82 3.5977 1.5508c0.0469 0.0234 0.13672 0.0586 0.25781 0.10937 0.49219 0.19532 0.91797 0.3711 1.2773 0.53516-0.23828-0.18359-0.5664-0.44531-0.98437-0.78516-0.10156-0.0859-0.17969-0.14453-0.23438-0.1875l-3.1445-2.5547 1.5742-2.7227 6.9531 2.75-1.1992 2.0781-3.4922-1.6641c-0.22656-0.10937-0.46094-0.21875-0.71094-0.33593-0.25-0.11719-0.50781-0.24219-0.77734-0.375 0.27734 0.21093 0.55859 0.4375 0.85156 0.68359 0.29297 0.24219 0.45313 0.37109 0.47266 0.38672l3.0039 2.4336-1.4688 2.543-3.6406-1.543c-0.19531-0.0781-0.41016-0.17187-0.65625-0.27734-0.24219-0.10156-0.51172-0.21875-0.80469-0.34375 0.23828 0.17969 0.50391 0.38672 0.79688 0.61719 0.29296 0.22656 0.46093 0.35937 0.51562 0.39843l3.1016 2.3398-1.1758 2.0391-5.6914-4.9414z" fill="#006eb5"/>
    <path d="m656.86 347.8 6.6055 4.2266-2.1953 1.7148-0.98828-0.76563-1.9531 1.5274 0.51172 1.1367-2.25 1.7578-2.3555-7.5508z" fill="#006eb5"/>
    <path d="m657.3 350.7c-0.0977-0.0703-0.27343-0.21093-0.52734-0.41796-0.13672-0.11329-0.25-0.19922-0.33203-0.26172 0.0312 0.0664 0.0937 0.22656 0.19141 0.47265 0.10156 0.2461 0.18359 0.44922 0.25 0.60938l0.68359 1.5976 1.1719-0.91406z" fill="#fff"/>
    <path d="m647.61 353.86 0.75 2.0586-1.9922 0.76563 1.7774 4.8945-2.4062 0.92578-1.7812-4.8984-1.9922 0.76563-0.75-2.0586z" fill="#006eb5"/>
    <path d="m637.53 357.03c1.0977-0.19531 1.918-0.16797 2.4648 0.0781 0.54688 0.25 0.88282 0.74219 1.0156 1.4805 0.0977 0.55078 0.0469 1.0039-0.14844 1.3516-0.19531 0.35546-0.54687 0.625-1.0547 0.8125 0.27344 0.0273 0.52344 0.12109 0.75 0.28906 0.22657 0.16015 0.42969 0.39062 0.60547 0.6875l1.1992 1.9609-2.75 0.48437-0.90625-1.7422c-0.0937-0.17968-0.19922-0.30078-0.3125-0.36328s-0.27344-0.0703-0.47656-0.0351l-0.28516 0.0508 0.375 2.375-2.5391 0.44531-1.1562-7.3086z" fill="#006eb5"/>
    <path d="m637.8 358.78-0.71484 0.125 0.23047 1.4375 0.71875-0.125c0.25391-0.0469 0.42969-0.13672 0.53906-0.27344 0.10547-0.13672 0.13672-0.32422 0.0937-0.55859-0.043-0.24219-0.13672-0.41797-0.28515-0.51563-0.14844-0.10156-0.33985-0.13281-0.58204-0.0898" fill="#fff"/>
   </g>
  </g>
  <g fill="#006eb5">
   <path d="m628.91 357.72-0.20313 4.0156-4e-3 0.082c-0.0156 0.42187 0.0391 0.70312 0.16016 0.85156 0.12109 0.14844 0.34375 0.23047 0.66797 0.24219 0.32422 0.0117 0.55859-0.0586 0.69531-0.20704 0.14063-0.15234 0.21875-0.42968 0.23828-0.83593l0.19532-4.0898 2.5508 0.0899-0.20313 4.3203c-0.0469 1.0469-0.375 1.8281-0.99219 2.3438-0.61328 0.51172-1.5 0.75-2.6562 0.71094-1.1211-0.0391-1.957-0.32422-2.5078-0.85547s-0.8125-1.2969-0.77734-2.293l4e-3 -0.0859 0.22657-4.3828z"/>
   <path d="m625.14 357.58-0.38671 2-3.3594-0.59375-0.15234 0.78125 3.3555 0.58984-0.375 1.9453-3.3555-0.59375-0.5 2.5391-2.5117-0.44141 1.4141-7.2617z"/>
   <path d="m614.15 354.75-1.3906 3.3008 3.0976-2.6094 2.7656 1.1172-3.4609 2.5312 0.57813 4.2852-2.7774-1.125-0.28125-4.043-1.4219 3.3555-2.375-0.96094 2.8828-6.8125z"/>
   <path d="m607.48 351.27-1.1133 4.4375c-0.0274 0.0937-0.0586 0.21484-0.0937 0.36328-0.0352 0.14844-0.0859 0.39062-0.16016 0.72265 0.10938-0.1875 0.22656-0.38671 0.35547-0.59765s0.20312-0.32813 0.21484-0.35547l2.1719-3.6797 1.9414 1.2617-4.0625 6.1836-2.7148-1.7656 1.0742-4.2617c0.0391-0.16016 0.0898-0.34375 0.14062-0.54297 0.0547-0.19922 0.11329-0.41797 0.17969-0.64453-0.0586 0.0898-0.18359 0.28906-0.36719 0.60156-0.11328 0.19141-0.20312 0.34375-0.27343 0.45703l-2.1016 3.5156-1.9336-1.2539 4.0898-6.1641z"/>
   <path d="m602.55 347.73-3.5117 7.0117-1.9336-2.0039 0.65234-1.0625-1.7226-1.7852-1.0742 0.62891-1.9844-2.0547 7.2617-3.1289z"/>
  </g>
  <g>
   <g>
    <path d="m599.71 348.47c0.0625-0.10547 0.18359-0.29297 0.36328-0.56641 0.0977-0.14844 0.17188-0.26953 0.22656-0.35938-0.0664 0.0391-0.21484 0.11719-0.44921 0.24219-0.23829 0.1211-0.42969 0.22656-0.58204 0.3125l-1.5156 0.84375 1.0312 1.0703z" fill="#fff"/>
    <path d="m596.19 340.34c0.60546 0.9375 0.90234 1.7031 0.89062 2.3047-0.0156 0.59766-0.33594 1.1016-0.96875 1.5117-0.46875 0.30469-0.90234 0.43359-1.3008 0.39062-0.40234-0.043-0.78516-0.25781-1.1602-0.65234 0.082 0.26172 0.0937 0.52734 0.0312 0.80078s-0.19531 0.54688-0.39843 0.82813l-1.3359 1.8672-1.5195-2.3398 1.25-1.5156c0.125-0.15625 0.19922-0.30079 0.20703-0.42969 0.0156-0.12891-0.0391-0.28125-0.14844-0.45313l-0.16016-0.24218-2.0391 1.2734-1.4023-2.1602 6.2734-3.9219z" fill="#006eb5"/>
    <path d="m594.68 341.27-0.39453-0.60937-1.2305 0.77734 0.39453 0.60937c0.14063 0.21875 0.29297 0.34375 0.46094 0.39063 0.16797 0.043 0.35156 0 0.55078-0.12891 0.21094-0.13672 0.32813-0.29297 0.36719-0.46484 0.0352-0.17969-0.0156-0.36719-0.14844-0.57422" fill="#fff"/>
    <path d="m593.9 336.98-1.9023 0.73438-1.2773-3.1641-0.7461 0.28515 1.2774 3.1602-1.8438 0.71094-1.2774-3.1602-2.418 0.92188-0.95703-2.3672 6.9102-2.6445z" fill="#006eb5"/>
   </g>
   <path d="m621.86 253.59h16.266l0.6875-4.043h-18.078c0 0.84375 0.32812 1.5156 0.4414 2.1445 0.0742 0.41796 0.24219 1.8984 0.6836 1.8984" fill="#006eb5" fill-rule="evenodd"/>
   <path d="m593.06 281.59c-0.39453-0.26172-0.84765-0.85937-0.84765-1.3867v-0.55859c0-1.7617 2.2578-3.5938 4.2969-3.5781zm69.172-6.4102c1.8789 0.0117 4.3125 1.7969 4.3125 3.4531v0.78516c0 0.52344-0.47656 1.2383-0.85156 1.3164zm-66.426-1.4883-2.918 1.0117c0.0508-0.64453 1.1367-4.1641 1.418-4.9844 0.55468-1.6367 1-3.4219 1.4883-5.0234 0.27344-0.91015 0.44922-1.6211 0.75-2.5039 0.33203-0.96875 0.10937-1.9375 1.0781-2.1797 1.6172-0.40625 3.6328-1.0859 5.1524-1.3594 1.7617-0.3164 3.6367-0.83203 5.293-1.1094 1.9258-0.32422 3.7109-0.51172 5.6562-0.85547 3.1875-0.55859 8.5156-0.96484 12.062-0.96484h4.2656c2.4414 0 6.3086 0.0859 8.4336 0.4375 1.2812 0.21484 2.6797 0.17187 3.9844 0.39453 0.91797 0.16015 3.3633 0.28906 3.9766 0.51953 0.39844 0.14453 3.1797 0.55078 3.7305 0.64453 1.3867 0.23437 2.4805 0.39062 3.8398 0.65234 1.2383 0.24219 2.543 0.51953 3.6797 0.8125 0.66016 0.16797 3.1953 0.79688 3.6406 0.82032l3.8594 14.137c-0.54297-0.0117-3.0586-0.9414-3.793-1.1445-1.2578-0.35156-2.5781-0.66015-3.9102-1.0312-2.4883-0.69531-5.5781-1.2891-8.1562-1.7266-5.5859-0.94922-11.812-1.6016-18.273-1.6016h-3.0312c-6.2617 0-11.562 0.95312-17.066 1.5742-2.4922 0.28515-5.3203 1.2109-7.75 1.5703-1.0976 0.16406-2.5547 0.63672-3.6602 0.94141-0.76563 0.21093-3.1719 0.96875-3.75 0.96875m1.0117-14.711c-0.4961 0.93359-0.92188 1.3242-1.4258 2.5078-0.42578 1-0.77343 1.8164-1.0898 2.9492-0.59766 2.1445-1.1445 4.0117-1.5898 6.3828-0.41407 2.1719-0.98828 4.543-1.1719 6.8008-0.15625 1.9062-0.33984 5.7266 1.7969 5.7266 0.44531 0 3.6758-5.7266 4.1758-6.4922 1.5156-2.3242 3.9688-2.875 6.8984-3.7656 4.3438-1.3203 13.598-2.0938 19.242-2.0938h8.5312c1.8984 0 3.6914 0.23828 5.3906 0.22657 1.0195-8e-3 4.3476 0.11718 5.3242 0.28906 1.6523 0.28906 3.5156 0.16015 5.1641 0.44922 1.7031 0.29687 3.3711 0.36718 5.0742 0.65234 1.707 0.28906 3.2031 0.64453 4.6758 0.94141 1.9766 0.39453 2.4219 1.0039 3.3398 2.3828 0.85157 1.2773 3.7031 6.0859 4.7188 6.625 0.73828-1.1016 1.5703-2.4258 1.5703-4.2656 0-2.1094-1.0117-4.3906-1.4805-6.1562-0.50391-1.9062-1.1055-4.0156-1.6797-5.957-0.55859-1.9023-1.1758-4.0469-1.6719-5.9648-0.44531-1.7422-0.17578-1.4219-2.0234-1.7891-1.0586-0.21094-2.168-0.44922-3.2031-0.73047-1.9219-0.51563-4.375-0.8711-6.375-1.2617-2.1172-0.40625-4.5703-0.73438-6.6094-1.0273-4.375-0.62891-9.5625-0.92188-14.461-0.92188-2.9062 0-6.2852 0.0469-8.9727 0.34766-2.875 0.3164-5.6562 0.69922-8.418 1.0117-2.5859 0.28906-5.5312 0.93359-8.0117 1.4219-1.3125 0.25781-2.5352 0.54688-3.8555 0.85938-0.84375 0.19921-3.207 0.85156-3.8633 0.85156" fill="#fff" fill-rule="evenodd"/>
  </g>
  <g fill="#006eb5" fill-rule="evenodd">
   <path d="m651.73 255.1c0.66797 0.11328 2.4141 0.51171 2.9531 0.69921 0.74219 0.25391 2.0742 0.39844 2.8789 0.60157 0.94141 0.23828 5.0703 1.2344 5.8359 1.2344 0.043 0 3.0976-3.6484 3.3906-4.0195 0.48828-0.62109 3.2461-3.7891 3.3477-4.1758l-14.898 0.0234z"/>
   <path d="m595.69 258.08c0.625 0 4.4844-0.94141 5.4766-1.1484 1.7695-0.36718 3.7422-0.79297 5.5273-1.207-0.16797-0.64062-3.4688-5.7305-3.8164-5.7305h-14.82c0.16016 0.60547 7.4102 8.0859 7.6328 8.0859"/>
   <path d="m625.67 260.55v0.44922c0 1.4023 2.1875 2.0391 3.3711 2.3555v0.5625c-0.30469 0.0742-0.21485 0.11329-0.45313 0.11329-1.1719 0-1.8086-0.58204-2.6953-0.78516v2.6914c0 0.53125 1.8984 0.90234 2.4727 0.90234h0.89843c1.6367 0 3.4805-1.6133 3.4805-3.2578v-0.78516c0-0.58594-0.92187-1.4922-1.3867-1.7578-0.0352-0.0195-2.2773-0.81641-2.3164-0.82813 0.0352-0.44531 0.21094-0.55859 0.67187-0.55859h0.22266c0.80469 0 1.6367 0.95312 2.3594 1.1211v-2.6953c0-0.5-1.543-1.0078-2.1328-1.0078h-1.3476c-1.8711 0-3.1445 1.5-3.1445 3.4805"/>
   <path d="m632.75 265.27v0.44922c0 0.80078 0.73047 1.3477 1.5703 1.3477 0.82421 0 1.5742-0.67579 1.5742-1.4609 0-0.86719-0.65234-1.6836-1.4609-1.6836h-0.22266c-0.67187 0-1.4609 0.67579-1.4609 1.3477"/>
   <path d="m615.23 266.17c0 0.85156 0.73828 1.6836 1.5703 1.6836 0.84375 0 1.5742-0.54687 1.5742-1.3476v-0.5625c0-0.62891-0.74219-1.2344-1.3477-1.2344h-0.33593c-0.71094 0-1.4609 0.83203-1.4609 1.4609"/>
   <path d="m643.37 267.64 3.1289 0.40625 4.7734-8.4961-3.4805-0.45312c-0.42969 0.64062-2.1641 4.8008-2.3594 4.9414 0-1.9414-0.28515-2.8945-0.33203-4.4961-0.0312-1.0508-0.21484-1.0547-1.2383-1.1211-0.73437-0.043-1.2617-0.33594-2.1328-0.33594h-0.34375z"/>
   <path d="m608.17 259.5 1.5586 9.2539c0.38672-8e-3 3.2969-0.4375 3.3984-0.53906 0.17578-0.16797-0.47656-2.7422-0.47656-3.2812l2.5156-0.45313-0.39062-2.5039-2.5742 0.48828c-0.0586-0.25-0.11328-0.25782-0.11328-0.5586l8e-3 -0.41797 2.6875-0.48046v-0.5625c0-0.82032-0.33594-1.1992-0.34766-2.0742z"/>
   <path d="m648.13 267.18c0 0.72265 0.70312 1.6836 1.3476 1.6836 0.91406 0 1.7969-0.48437 1.7969-1.3477v-0.5625c0-0.57031-0.66407-1.2344-1.2344-1.2344h-0.5625c-0.67578 0-1.3476 0.80469-1.3476 1.4609"/>
  </g>
  <g fill-rule="evenodd">
   <path d="m597.49 261c1.1406-0.60547 11.273-2.9375 13.137-3.0352 0.71875-0.0352 2.6875-0.33984 3.5312-0.51172 1.207-0.24219 2.3945-0.21484 3.6289-0.41016 1.6328-0.25781 5.6797-0.53515 7.4375-0.53515h4.3789c7.7305 0 16.195 1.1328 22.844 2.4219 1.3633 0.26563 3.9766 0.70703 5.1641 1.1211 0.58594 0.20703 1.9883 0.47265 2.5664 0.57812 0.875 0.16406 0.71875 1.2734 1.0117 2.1328 0.46875 1.3711 0.93359 3.543 1.2656 5.0234 0.32032 1.3984 1.1797 3.7422 1.2812 5.0039l-6.2969-1.875c-0.99219-0.0352-4.3086-1.0234-5.5938-1.2774-1.9102-0.375-3.8359-0.68359-5.8477-1.0039-3.6172-0.57422-8.3789-1.1211-12.465-1.1211h-4.9375c-5.2383 0-11.777 0.58204-16.258 1.4883-2.4805 0.5-4.9375 0.95703-7.4102 1.457-1.375 0.27734-6 1.7695-6.9883 1.7695l-3.9141 1.2852zm-1.6836 12.688c0.57812 0 2.9844-0.75782 3.75-0.96875 1.1055-0.30469 2.5625-0.77735 3.6602-0.9375 2.4297-0.36329 5.2578-1.2891 7.75-1.5742 5.5039-0.6211 10.805-1.5742 17.066-1.5742h3.0312c6.4609 0 12.688 0.65234 18.273 1.6016 2.5781 0.4375 5.668 1.0312 8.1562 1.7266 1.332 0.3711 2.6523 0.67969 3.9102 1.0312 0.73438 0.20313 3.25 1.1328 3.793 1.1445l-3.8594-14.137c-0.44532-0.0234-2.9805-0.65235-3.6406-0.82032-1.1367-0.29297-2.4414-0.57031-3.6797-0.8125-1.3594-0.26562-2.4531-0.41797-3.8398-0.65234-0.55078-0.0937-3.332-0.5-3.7305-0.64453-0.61328-0.23047-3.0586-0.35938-3.9766-0.51953-1.3047-0.22266-2.7031-0.17969-3.9844-0.39453-2.125-0.35157-5.9922-0.4375-8.4336-0.4375h-4.2656c-3.5469 0-8.875 0.40625-12.062 0.96484-1.9453 0.34375-3.7305 0.53125-5.6562 0.85547-1.6562 0.27734-3.5312 0.79297-5.293 1.1094-1.5195 0.27344-3.5391 0.95313-5.1524 1.3594-0.96875 0.24219-0.74609 1.2109-1.0781 2.1797-0.30078 0.88281-0.47656 1.5938-0.75 2.5039-0.48828 1.6016-0.9336 3.3867-1.4883 5.0234-0.28125 0.82031-1.3672 4.3398-1.418 4.9844z" fill="#000002"/>
   <path d="m666.62 271.53c0.69531 1.2734 1.6094 4.1797 1.6094 6.0938 0 2.7344-0.86719 3.6797-1.0078 5.3906 0.65234-0.17578 12.125-11.105 12.125-11.453v-15.273l-0.10938-0.0899z" fill="#006eb5"/>
   <path d="m629.49 273.58c-0.61719 0-1.0078-0.55859-1.1211-0.55859-0.36328 0-0.58594 0.35547-0.92969 0.53125-0.46875 0.23828-0.625 0.0273-1.2031 0.0273h-0.78906c-0.25781 0-0.67187 0.12891-0.67187 0.33985 0 1.5195 3.5273 3.7031 5.3906 3.7031h0.44922c0.81641 0 0.98828-0.28906 1.5703-0.33593v-1.1211l0.12891-0.0664 0.54687 1.1875c0.875-0.0742 2.8398-2.6641 2.918-3.5938h-2.0195c-0.32031 0-0.49219-0.41016-0.5625-0.67188h-0.33594c-0.35937 0-0.59375 0.37109-0.67578 0.67188-1.0938-0.0234-1.1836-0.78516-1.457-0.78516-0.46875 0-0.83203 0.67187-1.2383 0.67187" fill="#fff"/>
   <path d="m596.51 276.07c-2.0391-0.0156-4.2969 1.8164-4.2969 3.5781v0.55859c0 0.52735 0.45312 1.125 0.84765 1.3867z" fill="#000002"/>
   <path d="m662.23 275.18 3.4609 5.5586c0.375-0.0859 0.85156-0.79687 0.85156-1.3203v-0.78516c0-1.6562-2.4336-3.4414-4.3125-3.4531" fill="#000002"/>
   <path d="m654.98 280.88 0.22656 2.1328h0.33594c0.99219 0 1.9531-1.8555 3.1445-2.1328-0.0703 0.84765-3.1484 2.5352-3.3672 3.1445h0.55859c1.3281 0 2.707-0.41407 3.5273-0.96485 0.69532-0.46484 1.9336-1.7188 1.7812-2.8594l-0.2539-1.6797c-1.7812 0.0391-4.6758 1.6836-5.9531 2.3594" fill="#fff"/>
   <path d="m596.59 280.09c0.88672 1.3242 3.1133 1.8203 4.9414 2.2461-0.25-0.94531-2.3594-1.6719-2.3594-4.6055v-1.2344c-1.5078 0.35156-1.9219 2.3477-2.582 3.5938" fill="#e30030"/>
   <path d="m599.4 277.4v0.44922c0 1.4219 1.0938 2.2578 1.9375 2.8906 0.69922 0.52734 2.1016 1.7109 3.1133 1.7109h0.5625c0.18359 0 0.33594-0.0664 0.33594-0.22266 0-0.5664-2.4492-1.5469-2.918-2.2461 0.76562 0.0156 1.9023 0.89844 1.9102 0.89844 0.56641 0 1.6836-0.13672 1.6836-0.67579 0-1.1836-4.0977-2.918-5.3906-2.918h-0.67578c-0.17578 0-0.42187 0.0586-0.55859 0.11328" fill="#fff"/>
   <path d="m580.42 276.5c0.48438 0.12891 4.3789 2.8789 5.1445 3.3906 0.72656 0.48829 4.7422 3.3477 5.2969 3.3477h1.125c-0.0703-0.25781-0.69922-1.1875-0.89062-1.6953-0.16407-0.44141-0.23438-1.7109-0.23438-2.3477v-0.44922c0-1.4414 0.14844-2.6172 0.42578-3.7305 0.0977-0.39062 0.69922-3.3203 0.69922-3.457 0-0.0156-11.074-11.547-11.566-11.68z" fill="#006eb5"/>
   <path d="m660.26 284.14 3.1406-0.78906c0.23437 0.4375 0.33593 0.90234 0.33593 1.5742v0.78516c0 1.7266-3.1172 3.1133-3.8164 4.1562 0.42578 0.58203 4.6211 1.6836 5.8398 1.6836h1.0117c0.40625 0 0.39063-0.13281 0.78516-0.22265 0 4.0625-3.3711 5.2773-7.4102 5.2773h-1.9102c0.0234 1.0586 2.2656 1.9961 3.168 2.2227 0.96094 0.23828 3.5195 0.91797 4.4688 0.91797h0.89844c0.70703-3.0312 2.1328-5.8086 2.1328-9.543v-0.11328c0-1.4453-2.4297-4.5391-3.1875-5.6797-0.51953-0.77734-3.2617-4.9453-3.6641-5.2109 0 0.7461-0.27734 2.2734-0.46875 2.8984-0.31641 1.0586-0.83984 1.3164-1.3242 2.043" fill="#e30030"/>
   <path d="m597.6 282.68c0 1.9688 4.1875 6.1758 5.9492 6.1758h1.125c0.25781 0 0.33594-0.0781 0.33594-0.33594v-1.125l-1.1211-0.22265v-0.44922c-0.79687-0.0195-2.3594-0.66797-2.6875-1.1562l3.5859 0.82031v-0.44922h0.67188v-0.5625c0-2.207-2.0274-1.668-3.6211-1.9922-1.5625-0.32032-2.9375-1.4609-4.2383-1.4883z" fill="#fff"/>
   <path d="m660.7 285.04-0.5625 0.0351-2.2422-0.26172h-1.3477c-1.0352 0-1.2422 0.21094-1.9688 0.58203l0.73438 2.2266c1.8984 0 3.7109-1.3477 4.7148-1.3477h0.33594c-0.0977 1.1953-2.3438 1.6836-3.5938 1.6836-0.66016 0.44532-1.3477 0.42188-1.3477 1.5703v0.11328c0 0.25781 0.0781 0.33594 0.33984 0.33594h0.44922c1.9883 0 6.9609-3.0117 6.9609-4.7148v-0.33594c0-0.30468-0.0547-0.3125-0.11328-0.5625h-0.33594c-0.27344 0-0.9414 0.67579-2.0234 0.67579" fill="#fff"/>
   <path d="m590.64 290.42v0.33985c0 0.92578 1.0547 3.6133 1.3828 4.4531 0.35937 0.92188 1.3125 3.5938 1.3125 4.6406v0.5625c0.98047-0.082 5.8203-2.8477 6.2852-3.4805-0.35156 0.0273-0.39843 0.11328-0.78515 0.11328h-1.0117c-3.293 0-6.3984-2.1875-6.3984-5.6172v-0.22265c0-0.38672 0.082-0.4375 0.11328-0.78907 0.88672 0.0195 1.8594 0.78907 3.3672 0.78907 1.5508 0 2.3242-0.62891 3.4648-1.0274 0.57422-0.20312 1.0195-0.38672 1.6211-0.625 0.5-0.19922 1.6523-0.21875 1.6523-0.70703v-0.33594c-3.1914-0.74609-4.8164-7.168-5.7266-7.4141-0.125 0.53125-2.2734 3.793-2.7383 4.5625-0.44922 0.73047-2.5391 4.0312-2.5391 4.7578" fill="#e30030"/>
   <path d="m602.32 289.88c-0.61328 0.39062-6.3828 2.3398-7.4141 2.3398h-0.55859c-0.53125 0-1.2539-0.55859-1.4609-0.55859h-0.44922c0 2.4453 3.5781 4.0391 6.2852 4.0391h1.7969c0.94922 0 5.7266-0.76953 5.7266-1.2344 0-0.40625-0.47265-0.59765-0.67187-0.89843 0.21484-0.32032 1.1211-1.082 1.1211-1.457 0-0.1914-0.14844-0.42187-0.22656-0.54296l-1.1211-0.13282v-1.5703c-0.29297-0.0703-0.6875-0.26953-1.0156-0.26953z" fill="#fff"/>
   <path d="m599.85 276.27c0 0.71484 3.4336 0.71875 4.2461 1.0312 4e-3 0 1.5977 0.95312 1.6758 1.0195 0.53906 0.45703 0.62891 1.0938 1.6016 1.0938h2.3555c0-1.2774 0.39844-2.8047 1.168-3.3281 0.27344-0.18359 3.2188-1.0508 3.5508-1.0508h0.33594c0.64062 0 0.22266 3.5078 0.22266 4.2656v1.6875c0 0.89843 0.5625 2.2031 0.5625 2.6953 0 3.5977-4.9414 2.7188-4.9414 4.2656 0 1.8008 3.5039 2.3594 5.3906 2.3594 0.28125 0.1875 1.4609 1.0156 1.4609 1.3477 0 0.89062-0.89844 2.2891-0.89844 2.918v0.11329c0 0.57031 0.46875 1.3476 1.1211 1.3476h0.33594c0.58984 0 2.793-3.7226 3.2344-4.4023 1.0039-1.5391 5.2812-0.78125 5.6367-2.1094h-0.55859c-0.4961 0-2.8086-0.69922-2.8086-1.0117 0-0.47265 2.8633-2 3.3672-2.1328v-0.45312c-0.65234-0.14844-1.4609-0.1836-1.4609-1.0078l0.0508-0.26562 0.92969-0.62891-0.0781-0.11718c-1.2422-0.59375-1.4336-0.19922-2.8086-1.1211-1.1836 0.27344-2.4102 1.1211-3.8164 1.1211-0.64844 0-0.92579-0.22266-1.3477-0.33594 0.26562-1.0039 5.0938-0.4375 5.7266-3.1445l-0.0351-0.10547-2.5469 0.77734c-0.0156-0.58594-0.22656-0.77734-0.22656-1.3476 0-1.0703 0.94531-1.8906 1.9726-2.0664 0.92579-0.16016 3.0586-0.0977 3.082-1.0742-0.82032-0.21875-2.3594-1.7734-2.3594-2.9219v-0.44922c0.96484 0 1.3242-0.33203 2.1289-0.33985 1.6445-0.0156 1.543-0.55859 1.9141-0.55859h0.33594c0.32031 0 0.52734 0.44922 1.1211 0.44922s0.80078-0.44922 1.125-0.44922h0.22266c0.22265 0 0.80859 0.53516 1.0117 0.67578 0.35156-0.1875 0.78906-0.67578 1.0117-0.67578 0.33594 0 0.60157 0.625 1.0078 0.89844 1.2969 0 2.5-0.23438 3.0352 0.5625-0.36718 0.6914-3.1445 3.6758-3.1445 3.8164v0.44922c0 0.95313 1.0391 2.8398 2.0195 2.9219-0.0273 0.3164 4e-3 0.44922-0.33593 0.44922h-0.11329c-0.38671 0-0.43359-0.0859-0.78515-0.11329v0.33594c0 1.0078 1.4688 2.043 1.9102 2.6953l-0.12109 0.54297-0.32031 0.0977-1.6953-0.30469c0.43359 0.37891 3.2578 3.3086 3.2578 3.707 0 0.23438-1.4062 0.4961-1.6836 0.5625 0.16407 0.61719 1.1641 1.1484 1.7305 1.5234 0.70703 0.47266 1.1641 1.0586 1.7227 1.6484 1.0273 1.0781 1.4297 3.5664 3.0586 3.5664h0.5625c0.30078 0 0.3086-0.0547 0.51953-0.11718l0.30079-4.0078 1.6484-1.4922c2.2774 0 4.043 0.0234 4.043-2.2461v-1.0078c-0.8789 0-2.5312-0.64453-3.1836-0.97266-0.92188-0.46484-1.7578-1.0664-1.7578-2.3984 0-1.6758 1.5742-3.9102 1.5742-6.4024-0.3164-0.46484-0.44921-0.51172-0.44921-1.3438v-0.33988c0-0.25781 0.0781-0.33594 0.33593-0.33594h1.457c0.74219 0 0.875 0.22266 1.6875 0.22266 0.8086 0.54687 2.1328 1.6367 2.1328 2.9219l0.0234 0.22657-0.13671 1.0078c0.23437 0.125 2.2305 0.78515 2.4726 0.78515 1.2695 0 5.4219-2.6562 7.0703-2.6914-0.043-2.0312-4.3359-3.2148-6.2422-3.7539-2.9453-0.82812-5.5-0.84765-8.7774-1.3281-5.4141-0.78907-13.285-0.75782-19.449-0.75782h-2.0195c-4.7891 0-9.2617 0.40235-13.578 0.90625-2.4648 0.28907-10.789 1.668-10.789 3.6953" fill="#e30030"/>
  </g>
  <g fill="#fff" fill-rule="evenodd">
   <path d="m610.07 298.06c0 1.5039 0.4414 1.957 1.207 2.7227 0.26562 0.26953 1.9766 1.6562 2.2734 1.6562h0.78516c0.69531 0 1.5703-0.28516 1.5703-0.89844v-0.10937c0-1.1484-1.0195-2.4766-1.1211-3.707h-0.33594c-0.76562 0-1.9961-1.0117-3.1445-1.0117-0.87109 0-1.2344 0.46093-1.2344 1.3476"/>
   <path d="m594.79 301.09c0 0.92578 3.2109 1.4609 4.4922 1.4609h0.44921c4.4961 0 8.082-1.9141 9.8828-4.6016-0.16797-0.23047-0.25782-0.33985-0.67578-0.33985h-0.10938c-8e-3 0-3.082 1.5625-3.6406 1.75-0.9961 0.33985-3.1562 1.1484-4.2227 1.1719v-0.22656c1.625-0.37891 5.1016-1.7852 6.2891-2.582l0.0664-0.63282 0.26953-0.60156h-0.55859c0.0586-0.25391 0.10937-0.25781 0.10937-0.5625 0-0.23047-0.32812-0.5625-0.44922-0.5625-2.0234 0-5.0742 1.4727-6.5508 2.2109-0.77344 0.38672-5.3516 3.0234-5.3516 3.5156"/>
   <path d="m627.92 299.29c0 0.55469 1.2852 2.4102 1.3438 3.1289l-1.2305 0.12891h-0.33594v1.4609h2.0195c0.32422 0 2.0156 3.2031 2.1328 3.707h-3.1445v1.3438h4.4922c0.12891-0.55469 0.78516-1.2891 0.78516-1.6836 0-0.48438-1.7031-3.1055-2.0195-3.7031h2.0195v-1.4609l-0.44922 0.0274-2.3555-0.14063c-0.21484-0.40625-1.5742-2.4609-1.5742-2.6953 0-0.13672 0.23438-0.33594 0.44922-0.33594h2.8086v-1.5742h-3.4805c-0.26563 0-1.4609 1.6758-1.4609 1.7969"/>
  </g>
  <g fill-rule="evenodd">
   <path d="m667.78 300.64-0.0742 1.0195 0.41797 3.8203 0.12891 0.0664 11.207-3.332v-15.832c-0.62891 0.14453-6.7031 4.4297-7.7695 5.1406-2.293 1.5273-1.7031 1.0898-2.8242 3.6914-0.5625 1.3008-1.0859 3.6094-1.0859 5.4258" fill="#076eb5"/>
   <path d="m580.2 304.12c0 0.44141 2.0938 0.74609 2.6562 0.93359 0.92187 0.30469 2.0742 0.4375 2.9688 0.73828 1.6562 0.55469 4.0781 1.0625 5.8281 1.4688 0.59375-0.88671 1.0078-2.6445 1.0078-4.1523v-1.4609c0-1.6797-0.37891-3.9609-0.9336-5.1289-0.69531-1.4727-2.0547-1.9531-3.3984-2.7774-1.2226-0.74218-6.9062-4.0078-8.1289-4.1094z" fill="#006eb5"/>
   <path d="m657.67 303.23 9.8828 5.9492v-1.0078c0-1.2891-0.0508-2.793-0.23828-3.9219-0.15625-0.93359-0.48438-2.9453-0.54688-3.7148-1.2812 0.0273-0.68359 0.66016-1.7227 1.1992-0.73828 0.38281-1.2344 0.64062-2.1211 0.79687-1.3047 0.22657-3.9648 0.69922-5.2539 0.69922" fill="#e30030"/>
   <path d="m592.44 309.18v0.78516c0.35547-0.0937 3.207-2.6914 3.8164-3.1406 0.66015-0.48828 1.2539-1.0234 1.9375-1.543 0.63671-0.48047 1.5781-1.0352 2.1055-1.4922-1.375 0-2.7852-0.27344-3.9336-0.44532-1.6094-0.24609-1.8633-1.1328-2.6914-1.6875 0 2.3984-1.2344 5.5156-1.2344 7.5234" fill="#e30030"/>
   <path d="m627.92 299.29c0-0.1211 1.1953-1.7969 1.4609-1.7969h3.4805v1.5742h-2.8086c-0.21484 0-0.44922 0.19922-0.44922 0.33594 0 0.23437 1.3594 2.2891 1.5742 2.6953l2.3555 0.14063 0.44922-0.0274v1.4609h-2.0195c0.3164 0.59766 2.0195 3.2188 2.0195 3.7031 0 0.39453-0.65625 1.1289-0.78516 1.6836h-4.4922v-1.3438h3.1445c-0.11719-0.50391-1.8086-3.707-2.1328-3.707h-2.0195v-1.4609h0.33594l1.2305-0.12891c-0.0586-0.71875-1.3438-2.5742-1.3438-3.1289m-1.0117 0.11328v0.22656c0 0.67969 0.84766 1.5156 1.0117 2.1328h-1.0117v2.0195c0 1.4062 1.1719 1.0117 2.5742 1.0156l1.1328 2.1289h-1.6836c-0.45703 0-1.0117 0.12109-1.0117 0.5625v2.0195c0 0.39453 0.5 0.45312 0.89844 0.45312h3.9297c1.1133 0 2.1328-1.6289 2.1328-2.3594v-0.22656c0-0.44141-1.3945-2.4883-1.6836-2.918 0.94531 0 1.5703 0.0312 1.5703-0.89844v-1.5742c0-0.30859-0.36328-0.54297-0.55859-0.67187l-2.6016 8e-3 -0.76953-1.582h2.5859c0.26172 0 0.44532-0.1836 0.44532-0.44922v-2.0195c0-0.30469-0.0508-0.3086-0.10938-0.5625-0.2539-0.0586-0.25781-0.10938-0.5625-0.10938h-4.043c-0.60937 0-2.2461 2.1836-2.2461 2.8047" fill="#000002"/>
   <path d="m594.57 310.41c0 0.44921 1.5977 0.5625 2.1328 0.5625 4.3945 0 6.625-0.61329 9.4297-2.2461 1.168-0.67969 6.4024-4.0391 6.4024-5.2773 0-0.47266-0.27735-0.0859-0.33594-0.78516-2.3242 0-6.3789 5.1055-8.9844 5.1641 0.12891-0.48437 7.4688-5.7031 7.9727-5.8398v-0.33594c0-0.21484-0.19922-0.44922-0.33594-0.44922-0.61719 0-0.83984 0.5625-1.3476 0.5625-0.16407 0-0.16407-0.14062-0.25391-0.26953l1.2617-0.96484c-3.4648 0.0781-15.941 7.1641-15.941 9.8789" fill="#fff"/>
   <path d="m657.79 307.71c-2.6719-0.0586-6.4297-5.0664-7.6641-5.3711l0.25391 0.54297-0.69141 8e-3 0.35547 0.89063h-0.22656c-0.10938-0.41407-0.59375-0.66016-1.1211-0.67188v0.44922c0 0.91016 3.8438 4.3984 4.7148 4.9375 1.793 1.1094 4.4336 2.4727 7.2969 2.4727h1.0117c1.7266 0 3.2148-0.57422 4.6055-0.89844-0.13281-1.5703-12.367-7.8711-14.934-8.0859 0.0469 2.2578 6.2852 4.375 6.3984 5.7266" fill="#fff"/>
  </g>
  <g fill="#e30030" fill-rule="evenodd">
   <path d="m626.91 299.41c0-0.62109 1.6367-2.8047 2.2461-2.8047h4.043c0.30469 0 0.3086 0.0508 0.5625 0.10938 0.0586 0.2539 0.11328 0.25781 0.11328 0.5625v2.0195c0 0.26562-0.1875 0.44922-0.45312 0.44922h-2.582l0.76953 1.582 2.6016-8e-3c0.19531 0.13281 0.55859 0.36328 0.55859 0.67187v1.5742c0 0.92969-0.625 0.89844-1.5703 0.89844 0.28906 0.42968 1.6836 2.4766 1.6836 2.918v0.22656c0 0.73047-1.0156 2.3594-2.1328 2.3594h-3.9297c-0.39844 0-0.89844-0.0586-0.89844-0.45312v-2.0195c0-0.44141 0.55469-0.5625 1.0117-0.5625h1.6836l-1.1289-2.1289c-1.4062-4e-3 -2.5781 0.39063-2.5781-1.0156v-2.0195h1.0117c-0.16406-0.61718-1.0117-1.4531-1.0117-2.1328zm-2.2461-4.4922c0 2.3594-0.11719 9.7188 0.28906 11.504 0.46875 2.0586 0.46094 2.8789 1.5898 4.3633 0.81641 1.0703 2.1289 1.9883 3.9609 1.9883 4.8242 0 6.4023-5.1523 6.4023-10.105l0.0274-2.9219-0.12891-4.9258-5.6055-0.82813-0.0195 0.14063h-0.44922c-0.80859 0-2.5195 0.0117-3.2188 0.15234-0.85937 0.17187-2.0742 0.57031-2.8476 0.63281"/>
   <path d="m591.76 315.46v0.5625c0 3.5586 0.19531 5.7344 0.79297 8.6406 0.41406 2.0117 1.5 5.4102 2.3164 7.1172 2.1211 4.4258 4.082 8.3438 7.3633 11.613 3.6211 3.6094 6.0312 5.6523 10.898 8.0742 3.8984 1.9414 9.4805 3.7461 15.234 3.7461h1.5703v-0.33984c0-1.5039-3.5938-6.3242-3.5938-7.4102 0-0.16406 1.6914-1.9297 1.9453-2.2148 0.40625-0.46094 0.86328-2.4766 0.86328-3.3984v-0.48047l-1.5703 0.14062c-0.82031 0.55079-1.375 0.37891-2.0703 1.4141-0.14453 0.21875-1.1758 2.293-1.1875 2.293-0.79297 0-1.3516-1.3477-1.7969-1.3477-0.28906 0-1.1016 0.45703-1.7656 0.58984-0.64453 0.12891-1.4961 0.125-2.1445 0.32422-1.5938 0.4961-1.2383 1.6016-1.9258 2.9024-1.0703-0.2461-2.4727-2.0703-2.4727-3.4805v-1.0117c0-2.6016 4.3633-5.7227 7.0469-5.7148l0.0273-1.0195c0.1289-1.1406 0.9414-2.9219 2.1328-2.9219 1.3203 0 0.74219 2.0234 2.8086 2.0234 1.1445 0 1.9102-2.8672 1.9102-4.2656v-0.45312c0-0.88282-0.19922-1.7969-0.52344-2.3984-0.125-0.23047-1.2852-1.6406-1.3867-1.6406-1.3711 0-1.3906 2.8047-2.0234 2.8047h-0.10938c-0.52734 0-1.2969-1.4141-1.3476-2.0195-0.89063 0.23828-8.7578 5.8164-8.7578 6.2891 0 0.44531 1.1289 0.67188 1.6836 0.67188 0.15625 0.32812 1.0117 1.7617 1.0117 1.9102v1.0117c0 0.16016-0.5586 0.83203-0.67579 1.3438-0.52343 0.0469-1.0273 0.44922-1.2344 0.44922h-0.11328c-0.25781 0-0.67188-0.125-0.67188-0.33594 0-0.5 0.33594-0.83203 0.33594-1.1211 0-0.80469-2.1055-2.1328-3.2578-2.1328h-0.22266c-0.35156 0-0.65234 0.20312-0.89844 0.33593 0.0586 0.70704 0.78516 2.1016 0.78516 2.1328 0 0.58984-0.10156 0.99609-0.33594 1.3476v0.44922c-0.42187 0.62891-1.2617 3.3672-2.1328 3.3672h-0.22656c-0.25781 0-0.33594-0.0781-0.33594-0.33594v-0.67187c0-0.49219 0.22656-0.41016 0.22656-0.89844 0-0.78516-0.89843-1.1328-0.89843-1.5742 0-0.58203 0.91015-2.2617-0.22657-2.3555-0.0469 0.20313-0.35937 1.168-0.45703 1.4492-0.19922 0.54688-0.46875 0.79297-1.1914 0.83203l-0.47657 0.41406-0.12109 1.1211c-0.21875 0.11719-0.33203 0.22265-0.67188 0.22265h-0.22656c-0.46094 0-0.67187-0.61718-0.67187-1.1211v-0.5625c0-0.86328 0.11718-1.4336 0.21093-2.1445 0.15625-1.1992 0.40625-1.1523 0.58594-1.7422l2.1211-0.60547v-0.33593c0-0.36329-0.40625-0.5625-0.78516-0.5625h-1.4609c-1.1641 0-0.64062 0.5625-1.457 0.5625h-0.22656c-0.25781 0-0.33594-0.0781-0.33594-0.33594v-0.33594c0-0.88672 0.65625-1.7305 1.0547-2.3164 0.32031-0.46875 1.6133-1.2812 2.1992-1.2812 0.41015 0 2.1562 1.3516 3.5938 1.3516h1.0117c2.1328 0 3.9062-2.5234 5.0781-3.6797 0.57031-0.55859 4.0156-4.3047 4.0156-4.8555 0-0.70312-0.60547-1.0234-0.89844-1.4609 0.50781-0.75781 6.625-5.9141 6.625-6.2891 0-0.98828-1.457-3.9727-2.1328-4.1523 0 1.5156-1.8672 5.3476-2.5391 6.4453-1.4141 2.3203-2.1797 3.1797-3.832 5.1484-1.3359 1.5898-3.0976 2.9414-4.9219 4.0586-1.043 0.63672-1.8203 0.99219-3.0117 1.4805-0.47266 0.19531-3.1875 0.94531-3.6602 0.94531l-2.6992 0.043-2.3438-0.29687-1.4688-0.53125c0.14844-1.8203 7.6914-5.4219 7.7461-7.9727-0.48438 0.0391-1.3359 0.49609-1.6992 0.65625-0.58594 0.26172-1.2461 0.35156-1.957 0.51562-0.9961 0.22657-3.2266 0.51172-4.3164 0.51172l-0.67969 0.0859-4.1484-0.53516v-0.33593c0-0.64844 2.2969-2.2383 2.8516-2.6524 0.96094-0.71484 2.0508-1.8203 2.9414-2.6719 0.9961-0.94531 1.8633-1.8242 2.8242-2.7891 0.64453-0.64454 2.5898-2.0195 2.6133-3.0039-1.5508 0.35937-3.6523 1.2344-5.5039 1.2344h-1.9062c-0.46094 0-1.6992-0.39843-2.0234-0.55859-0.26953-0.13672-1.5391-1.125-1.5703-1.125-0.94922 0-1.125 3.9102-1.125 5.1641"/>
   <path d="m662.28 311.65h-2.0234c-0.36329 0-1.8672-0.25-2.2539-0.32813-0.54297-0.11719-1.832-0.44922-2.2344-0.46094 0.39844 1.7227 10.789 10.18 12.609 10.223l0.30078-4.1562v-3.3711c0-1.0195-0.19922-2.9766-0.78516-3.3672-1.4883 0.78906-3.3594 1.4609-5.6133 1.4609"/>
  </g>
  <g fill-rule="evenodd">
   <path d="m646.22 303.68c0 3.3945 7.8438 9.0898 7.9727 10.668h-0.33594c-2.6055 0-6.9648-8.7969-8.1094-9.0898l0.35938 1.3398-0.44922-0.22266c0.0391 1.7305 2.1172 5.3711 2.9219 6.5117 1.3008 1.8555 2.8086 3.4375 4.582 4.8477 1.7969 1.4297 3.7109 2.4688 6.1484 3.2852 1.2852 0.42969 2.4766 0.61329 3.8906 0.82813 0.83203 0.125 1.4023-0.0977 2.2226-0.0898 1.2188 0.0117 1.418 0.0508 0.72266-0.83594-0.78125-0.99219-4.1367-3.2461-5.3711-4.0625-1.832-1.207-3.4531-2.9219-4.9805-4.4492-1.2148-1.2148-8.8164-9.2031-9.5742-9.4062z" fill="#fff"/>
   <path d="m614 304.68v-0.44531c0-0.30469 0.0508-0.3125 0.10938-0.5625-1.332 0.10938-8.5039 7.2109-9.793 8.5039-1.0352 1.0352-8.9062 8.8789-9.4062 9.0117 0.14062 0.52343 0.83203 0.67578 1.4609 0.67578 3.0664 0 5.0625-0.92188 7.4102-1.5742 2.4375-0.67969 4.0469-1.7774 5.6406-3.3398 1.332-1.3047 6.5508-9.3672 6.5976-11.48-0.6289 0.0508-1.5859 1.7422-2.0469 2.2188-0.73828 0.76562-1.3164 1.5391-2.0781 2.3008-1.0664 1.0586-3.2461 3.6641-4.7461 4.0117 0.19922-0.7461 3.8555-4.3203 4.6328-5.2461 0.82032-0.97656 1.6133-1.418 2.3516-2.5898 0.34765-0.54688 1.875-2.6758 1.8867-3.168h-0.33593c-0.69532 0-0.91797 1.4805-1.6836 1.6836" fill="#fff"/>
   <path d="m636.79 315.8c0 2.8281 4.5508 6.2891 7.5234 6.2891-0.12891-1.543-4.7188-7.9688-4.7188-10.668v-0.33593c-0.49609 0.13281-2.8047 4.2422-2.8047 4.7148" fill="#e30030"/>
   <path d="m643.41 305.7v0.22266c0 0.7539 0.48047 0.45703 0.15235 1.0547l-0.71485-1.0547c0 4.7344 6.7383 11.312 6.7383 14.938-1.4492-0.33594-3.8438-5.3594-4.5273-6.9297-0.58203-1.3359-1.1797-2.6641-1.7188-4.0078-0.27344-0.67969-0.51172-1.3828-0.75-2.0547-0.19141-0.52344-0.35156-1.918-0.86328-2.0547l-0.10156 1.0391-0.34766-1.375h-1l-0.46094 3.4805c-0.33203 2.1172 1.5274 6.6445 2.207 8.0117 1.0078 2.0234 2.8633 4.4141 4.3906 5.9375 1.6289 1.6328 3.7266 3.2266 5.9023 4.3164 1.082 0.53906 2.5078 1.1094 3.7852 1.3789 0.58594 0.12109 4.4883 0.38281 4.4883-0.21875 0-0.59766-2.1094-1.8359-2.6055-2.2266-0.65234-0.51172-1.7109-1.8633-2.3633-2.5742-1.4492-1.5742-3.3086-3.6211-4.4844-5.3945-0.65234-0.98437-1.3242-1.8398-1.957-2.875-0.64843-1.0703-1.1328-2.1211-1.7734-3.168-0.45313-0.73828-3.043-6.1094-3.0977-6.7812h-0.5625c-0.25781 0-0.33594 0.0781-0.33594 0.33594" fill="#fff"/>
   <path d="m600.86 327.59v0.10937c0 0.80079 0.72657 1.3477 1.5703 1.3477h1.0117c3.1367 0 11.82-5.582 13.02-7.6367 1.5664-2.6797 5.8438-11.145 5.8438-14.934v-0.33594c0-0.55469-0.375 8e-3 -0.44922-0.89844l-0.4375 4e-3 -0.23828 1.2305h-0.22266l-0.22656-0.89844c-0.65235 0.4375-1.8906 3.5547-2.3555 4.4922-0.79688 1.6016-1.4766 3.0547-2.4492 4.5156-0.50781 0.76172-1.1484 1.3242-1.5508 1.9297-0.53516 0.79688-0.84375 1.3203-1.4102 2.0703-0.71484 0.94922-2.3594 3.1367-3.2344 3.7266 0.10547-0.40625 4.5586-6.9609 5.207-7.9297 0.83594-1.2461 4.6719-7.2031 4.6719-8.5781 0-0.2539 0.043 0.0508-0.14062-0.26562l-0.64453 0.375-4e-3 -0.8125-0.89453 0.14062v-0.5625h-0.33984c-0.46485 0-2.6758 5.9102-3.1055 6.7774-1.1055 2.2383-2.582 3.957-4.0117 5.8672-0.91797 1.2266-9.6094 10.25-9.6094 10.266" fill="#fff"/>
   <path d="m632.63 330.74v1.2344c0 1.2031 1.1094 3.0312 2.3594 3.0312 1.6406 0 2.2617-1.6484 2.582-3.0312h0.44922c0.42578 0 1.5625 0.62109 1.8281 0.86718 0.45703 0.41797 0.69922 1.1602 0.75391 1.9414 0.0547 0.73437 0.32422 1.543 0.73437 1.9609 0.35157 0.35547 1.3711 0.84375 1.9609 0.84375l1.1562-0.0234 0.75-2.5898 0.11328 0.0312c0.97656 0 1.0078 0.0156 1.2891-0.6211 0.32422-0.73828 0.98829-0.10547 1.1836-0.83984-2.1562-0.5-7.1094-4.8438-9.0625-6.1562l-0.92969 1.8906c-0.89844-0.60156-2.3398-2.6953-3.4844-2.6953h-0.10938c-1.332 0-1.5742 2.707-1.5742 4.1562" fill="#e30030"/>
  </g>
  <g fill="#fff" fill-rule="evenodd">
   <path d="m640.27 327.14c0.51563 0.77344 3.4844 2.8711 4.4453 3.5273 0.60547 0.41016 4.6094 3.0039 4.7617 3.2109-0.32031 0.4336-1.6016 0.76953-2.3594 0.78516v0.67187c0 0.46485 0.55078 1.125 0.89843 1.125h0.11329c0.72656 0 1.4766-1.0117 2.582-1.0117h0.33593c0.76954 0 1.1406 0.75391 1.6875 0.89844v0.78516c0 0.6914-0.5625 1.3906-0.5625 1.6875 0 0.34765 0.66016 0.89453 1.1211 0.89453h0.44922c0.21484 0 0.47265-0.21875 0.51953-0.34766l-0.62891-3.4688h0.44531c0.76563 0 1.1758 1.3711 1.4688 1.8594l1.5742 0.17969-0.0469 0.10156 0.26172 1.4531h0.5625c0.26172 0 0.5625-0.30078 0.5625-0.5625v-0.5625c0-0.30078-0.0547-0.30859-0.11328-0.5664l-0.67579-0.10547c0-1.4141-1.1133-2.6484-2.1836-2.9453l0.27734-0.53516c0.94922 0 2.4688-0.043 2.4688-0.89844 0-0.64062-0.99218-1.125-1.6836-1.125h-0.33594c-2.0312 0-0.72656 1.5742-3.0312 1.5742h-0.33984c-2.2383 0-4.5547-2.1875-5.5898-3.5039-0.6875-0.86718-3.4922-4.4766-3.7266-5.3672h-0.67578c-0.76562 0-1.1992 0.33984-1.5 0.85937-0.42187 0.73438-0.71875 0.84375-1.082 1.3867"/>
   <path d="m608.83 332.98h-0.33593c-1.8828 0-2.5274-1.2383-3.2539-1.2383h-0.5625c-0.57031 0-1.0117 0.61328-1.0117 1.0117v0.22656c0 0.40625 0.0937 0.625 0.22656 0.89844 0.75391-0.0195 1.293-0.45312 1.5703-0.45312 0.44531 0 1.2344 1.2148 1.2344 1.7969 0 0.98047-2.918 1.0664-2.918 2.1367v0.55859c0 0.50391 0.58203 1.2383 1.0078 1.2383h0.11328c0.79687 0 1.3984-1.7148 1.4609-2.4727h0.67188c0.53125 0 0.58203 0.25391 0.76953 0.56641l0.13281 1.1172c0.0508 0.40235-0.45312 0.54297-0.45312 0.90235v0.22265c0 0.41016 0.55078 0.78516 1.0117 0.78516h0.44922c0.46484 0 1.0117-0.375 1.0117-0.78516v-0.89843c0-0.73047-0.89843-0.96875-0.89843-2.0195 0-1.0195 1.3516-1.5742 2.4688-1.5742h0.44922c1.9297 0 1.8789 1.9102 2.3594 1.9102 0.4375 0 1.0117-0.42969 1.0117-0.78906v-0.33594c0-0.72265-2.0234 0.12891-2.0234-1.2344 0-1.543 3.0352-3.7383 4.1094-4.5391 0.8125-0.60156 4.8242-3.2461 5.0703-3.6602l0.14062-1.7969-0.90234 0.0312-2.0156-0.14062c-2.2695 1.5156-3.082 2.9219-4.9141 4.7422-1.2891 1.2852-3.5898 3.793-5.9805 3.793"/>
   <path d="m610.74 281.44c-0.84766-0.0703-1.3047-1.5742-2.3594-1.5742-1.0274 0-2.582 1.1133-2.582 2.2461l-0.0859 0.125 0.53515 3.918-0.0547 0.51172-0.39454 0.5c0 0.7539-0.22265 0.83203-0.22265 1.1211 0 0.49219 0.59765 2.0039 0.80469 2.3398 0.45312 0.72265 0.97265 0.5 0.99609 2.1484 0.0156 1.1562-0.16797 2.0469 0.375 2.7695 0.25781 0.34766 1.2891 1.3906 1.7539 1.3906 0.36328 0 0.5625-0.41016 0.5625-0.78906 0-0.94922-0.11329-1.7852-0.40625-2.5156-0.17579-0.44922-0.82422-1.8438-0.82422-2.1094l0.875 0.29687-0.0508-0.11328 0.42968-0.46484 0.0859 0.0781-0.0273 1.2383 0.14062 2.2461c0.61719 0.92187 3.3633 2.2461 4.9414 2.2461 0 0.74609 0.25 1.8867 0.64062 2.2773 0.10938 0.10938 1.8906 1.0898 1.9414 1.0898h0.11328c0.73828 0 0.87109-0.22656 1.6836-0.22656-0.0625 0.73046-2.4453 1.3945-3.2578 1.4609 0.10938 1.2812 2.5352 3.1445 4.1562 3.1445 1.6328 0 2.8516-1.0234 3.2734-2.2305 0.58984-1.6953 0.082-3.0859 0.0937-5.0664 0.0117-2.2734-0.68359-3.3594 1.5781-3.8125 1.6289-0.32813 3.0469-0.57031 5.0469-0.57031h1.5742c1.4883 0 5.2578 0.55859 5.4844 1.7031 0.20703 1.0312 0.0117 2.543 0.1211 3.4727 0.11718 1 0.11718 2.4219 0.11718 3.4726 0 5.5117-1.4414 11.676-6.7344 11.676h-1.7969c-1.7656 0-3.3555-1.7383-4.043-2.918-0.6875-1.1875-1.3477-3.7266-1.3477-5.6133-0.52734 0.1914-0.67188 1.543-0.67188 2.2461-0.25781 0.37891-0.5625 0.9375-0.5625 1.5703v0.67578c0 1.1797 0.84766 2.9062 1.3086 3.7422 0.40625 0.73828 2.0781 2.7305 2.1719 2.9961-1.707 0.81641-2.3008 1.457-3.5625 2.7227-0.41015 0.40625-3.1719 2.9258-3.1719 3.2266v0.22266c0 0.94531 1.9766 1.5742 3.0273 1.5742h0.78906v0.89844c0 1.3984-0.1875 2.6055 0.78516 3.2578 0.44531-0.66406 1.7305-4.2695 2.2461-4.2695 0.1836 0 0.33594 0.0703 0.33594 0.22656 0 0.67969-0.33594 1.0117-0.33594 1.4609v0.10937c0 0.52344 1.4453 0.9336 1.8945 2.1445 0.39062 1.0469 0.6875 1.9297 0.6875 3.3594v0.44922c0 1.8555-0.83204 4.9414-2.4688 4.9414h-0.22657c-1.168 0-2.5976-2.0234-2.6953-2.0234-0.64453 0-1.2344 0.48437-1.2344 1.125v0.33593c0 0.65625 0.13281 1 0.22656 1.5703 0.16015 1 0.38672 0.95312-0.67188 1.0156-0.99609 0.0586-2.1562 0.51563-2.9609 0.85938-1.2695 0.54296-3.668 2.2812-3.668 3.8516v0.67578c0 1.1328 0.71875 1.8008 0.89843 2.4688 1.0508-0.27734-0.0781-2.1133 2.9609-2.6523 1.9609-0.34766 3.0938-0.0977 3.5508-2.0625h0.33594c0 0.64843 0.73047 2.0938 1.2383 2.1328v-0.33594c0-1.2891 1.1055-1.9609 2.1289-2.2461 1.4023-0.39063 2.0938-0.61719 3.2148-1.2422l0.26953-1.3398c0.47266 0.0391 0.67578 0.44921 0.67578 0.89843 0 1.0469-0.5625 3.8125-0.76562 4.7422-0.35938 1.6758-2.3789 3.1367-2.3789 3.2305 0 0.11719 1.6953 2.9414 1.9453 3.4414 0.48828 0.98046 1.2812 2.957 1.8711 3.6328 0.19922-0.85156 1.1211-3.0469 1.5508-3.7266 0.23828-0.38282 2.1562-3.1992 2.1562-3.2344 0-0.19141-1.8672-2.6367-2.1367-3.0312-0.75781-1.125-1.0117-2.418-1.0117-4.2695v-1.1211c0-0.40235 0.26953-0.44141 0.67578-0.44922v0.67187c0 1.0625 2.5703 1.3359 3.3242 1.8398 0.5625 0.3789 0.94141 0.76171 1.2774 1.3047 0.17968 0.29297 0.67578 1.5742 1.0117 1.5742h0.11328c1.2422 0 1.3281-1.7969 3.1445-1.7969h0.44922c2.8711 0 2.8164 3.8164 3.8164 3.8164 1.2148 0 1.9102-2.2617 1.9102-3.5938 0-0.84765-0.28125-2.0078-0.64844-2.4961-0.24609-0.31641-0.46484-0.51953-0.85937-0.71484-0.54688-0.26563-0.33594-0.47657-0.89453-0.67579-1.4492-0.51171-4.3047-0.22656-5.0078-1.2773 0.082-0.36328 0.22266-0.69531 0.22266-1.125 0-1.0547-0.84766-3.1445-1.6836-3.1445-0.41016 0-1.0156 2.8086-2.8086 2.8086h-0.78515c-1.6719 0-3.1445-3.332-3.1445-5.2773v-0.44922c0-1.6328 1.2812-4.4922 2.5859-4.4922h0.44922c0.92188 0 1.8984 1.9375 2.7969 2.5039l0.92578-2.7969-0.13282-0.043c0.33204-0.4961 0.3125-1.4609 1.125-1.4609 0.50391 0 0.58985 0.26953 1.2305 0.23047 0.48828-0.0312 0.78125-0.11719 1.4648-0.11328 1.1875 0 1.7109-0.36329 2.582-0.56641-0.0195-0.85156-0.28906-0.44141-1.1094-0.6875-0.45312-0.13672-1.0586-0.30078-1.5-0.41016-0.94922-0.23828-1.8867-0.75-2.6719-1.1445-1.0938-0.55859-3.3672-2.7539-3.3672-4.2695v-1.2344c0-1.4102 2.9219-4.3906 2.9219-7.3008v-5.0547c0.5 0.0547 0.82812 0.66406 1.2344 0.89843 0.0859 0.0508 1.6641 0.5625 1.6836 0.5625h0.5625c1.0586 0 3.1445-1.0195 3.1445-2.3594 0-0.99609-1.4961-0.85547-1.5742-1.7969h2.582c0.33203 0 0.58984-0.44531 1.0117-0.55859l-0.0156-2.332-1.332-0.69922v-0.44922c1.4531-0.12109 2.0625-1.6445 2.3594-2.9219 0.35937 8e-3 0.55859-0.0352 0.55859 0.33593 0 1.0781-0.52344 1.4922-0.85156 2.293-0.47657 1.1641-0.15625 1.4766-0.15625 2.875v0.78516c0 0.625-0.3711 0.75781-0.86328 0.93359-0.44532 0.16016-1.1172 0.46485-1.3828 0.52735v0.33593c0 0.41016 1.2227 0.5586 1.6836 0.5586h0.67578c0.86719 0 2.3711-2.3438 2.3945-2.4727l-0.26172-2.4648c-0.0859-0.71875 0.5625-1.1094 1.2344-1.125v0.33984c0 0.52344-0.33594 0.64063-0.33594 1.0078 0 0.30469 0.98437 0.85938 1.1211 1.2344l-1.0117-0.22266c0.21485 0.92188 0.8086 0.16797 0.88672 1.0508l-0.76953-0.27734-0.0898 0.082 0.64062 0.90235-0.89062-0.0742v0.67578h0.33593c0.65235 0 3.8281 1.5703 4.9414 1.5703 2.3516 0 8.043-0.30078 8.0859-2.2461-1.0195-0.0859-4.2461-1.2422-5.2109-1.6367-0.92578-0.37891-1.5-0.69141-2.2461-1.2383-0.29688-0.21485-1.8359-1.5039-1.9766-1.5039h-0.33593v0.33594c-0.54688-0.0117-0.7461-0.16406-0.78907-0.67188h0.33985v-0.44922c0-0.25781 0.0781-0.33593 0.33594-0.33593h0.22656c0.76172 0 1.9336 0.67187 3.3672 0.67187h2.8047c1.0898 0 1.9062-0.44922 2.9219-0.44922 0.59375-0.39843 2.582-1.0391 2.582-2.0195v-0.5625c-1.3164 0-2.875-0.41406-4-0.71875-0.73828-0.19922-3.3008-0.96484-3.75-0.96484l-0.55859-8e-3 -3.4805 0.45703h-1.2383c0.15234-0.5625 0.67578-0.77344 0.67578-1.4609v-0.5625h-0.67578l-0.0664-0.11328 0.74219-0.33594v-0.33594l-0.24219-0.0117 0.35547-0.77343-0.72656-0.0274 0.38671-0.89062-0.67187 0.13281v-0.44922c0-0.65234-0.98828-0.52734-1.0117-1.4609 0.58984-0.15625 1.9102-1.0586 1.9102-1.7969v-0.11328c0-0.67578-2.168-2.4688-2.4688-2.4688-0.71875 0-0.85547 0.22265-1.5742 0.22265h-0.44922c0.082-0.96093 0.5625-1.5352 0.5625-2.582 0-0.64062-0.28906-0.96093-0.92188-1.0156l0.13672-0.5586c-0.39453-0.26171-1.1562-0.6875-1.9141-0.57812l-0.89453 0.12891v2.1367c0 2.4219-1.4609 2.9609-1.4609 4.3789v0.33594c0 1.7695 0.95313 1.9492 2.2344 2.3711 0.61718 0.20313 1.1523 0.30078 1.7383 0.6211 0.33984 0.18359 1.082 0.95703 1.082 1.2734 0 3.7227-1.4688 3.4492-4.5977 3.8242-1.5391 0.1836-0.7539 5.5-2.9258 5.5h-0.44922c-0.67187 0-2.1367-1.2383-2.3438-1.6992-0.57812-1.2695-0.64453-1.5898-1.5547-2.5976-0.55079-0.60938-4.1836-3.6797-4.1836-4.0156v-0.55859c0.91016 0.0742 1.2031 0.55859 2.0195 0.55859h0.33594c-0.082-0.98047-3.5508-2.4375-3.5859-4.4258l2.0156 0.27344c-0.0859-1-2.4727-2.8008-2.4727-3.3711 0-0.25781 0.0781-0.33593 0.33985-0.33593h0.44531v-0.44922c0-0.51563-0.47266-2.0195-0.89453-2.0195h-0.5625c-0.92188 0-1.3203 0.17187-1.9961 0.3125l0.62891 0.72656-0.0937 0.082c-0.76953 0-0.59766-0.22656-1.1211-0.22656h-0.33985c-0.5664 0-0.47656 0.78906-1.0078 0.78906h-0.33594c-1.5273 0 1.6484-2.2266-2.875-1.418-1.543 0.27735-2.8516 0.22266-2.8516 2.0898h0.33594c0.13281 0 1.0976-0.5586 1.7969-0.5586h1.2344c0.95703 0 1.7734 0.49219 2.582 0.5586v0.78515c0 2.0117-2.6758 0.58203-3.0312 1.9102 0.13672 0.0781 0.12109 0.11328 0.33594 0.11328h0.67578c0.61328 0 0.62109-0.22656 1.2344-0.22656h1.5703c-0.0273 1.1914-2.1328 1.2852-2.1328 2.0234v0.33594h1.9102c0 2.3711-3.3203 2.3398-3.5938 3.3711 0.59375 0.0469 0.64453 0.33593 1.3476 0.33593l0.45313 0.0234 1.6797-0.13672c0 2.7227-4.6602 1.75-6.3633 2.8477-1.4883 0.95703-1.6875 4.9023-4.3047 4.9023-1.0078 0-1.7969-0.64062-1.7969-1.5742v-0.5625c0-0.76953 0.5625-1.5508 0.5625-2.3555 0-1.3359-2.7695-1.3476-4.2656-1.3476-0.64063-0.42969-2.6953-1.8242-2.6953-2.6953 0-0.96094 1.3906-1.7969 2.4688-1.7969 0.92187-0.61719 2.8086-0.33984 2.8086-2.4727v-0.44921c0-1.5781-0.89844-3.2344-0.89844-4.8281v-0.89844c0-0.60937 0.33594-1.3242 0.33594-1.3476 0-0.25782-0.0352-0.12891-0.11328-0.44922h-1.2344c-2.582 0-1.9375 3.2773-2.1328 5.6172"/>
  </g>
  <path d="m662.16 328.38c-0.54687 0.8164-1.9414 1.3476-3.2578 1.3476h-0.22266c-2.3906 0-5.5391-1.3594-7.3125-2.0078-0.99218-0.36328-2.0781-1.1133-2.875-1.7305-0.76562-0.58984-1.9688-1.6719-2.6133-2.1016-0.57031 0-1.7969 0.15234-1.7969 0.67187 0 2.0312 6.6602 8.6484 8.5352 8.6484 0.94922 0 2.8125-1.9102 3.8164-1.9102h0.5625c0.57031 0 0.91797 0.40625 1.1211 0.78907 1.832 0 2.6953 0.53515 2.6953 2.3555v0.44921c-0.625 0.16797-0.3711 0.5625-0.67188 0.5625-0.58594 0-0.83984-1.3476-1.4609-1.3476h-0.11328c-0.39453 0-1.1211 0.42187-1.1211 0.78515v0.11329c0 1.0469 1.7969 2.0156 1.7969 3.2578 0 0.60547-0.72656 1.9062-1.2344 1.9062h-0.11328c-0.75782 0-0.92188-0.21094-1.5274-0.35547l0.26172-0.8125 0.14453 0.0469-8e-3 -0.53906-1.793-0.35937c0 1.4062-0.33594 2.918-1.6836 2.918h-0.11328c-0.3711 0-1.6836-1.7383-1.6836-2.2461v-0.44534c0-0.51953 0.44922-0.94531 0.44922-1.4609 0-0.54687-0.37109-1.0117-0.89844-1.0117-0.94921 0-1.4102 0.75-2.1328 1.2344-0.64844-0.0547-1.2852-0.44922-1.6836-0.44922h-0.11328c-0.36328 0-0.5586 0.41016-0.5586 0.78516v0.33984c0 0.33984 0.10547 0.45312 0.22266 0.67187-0.0781 0.13672-0.11328 0.1211-0.11328 0.33594 0 0.65235 1.3476 1.3672 1.3476 3.4844v0.67187c0 2.043-1.5117 4.2695-3.2539 4.2695h-0.33985c-0.043-2.0117-1.0156-4.1562-3.0312-4.1562h-0.44921c-1.2695 0-2.6133 1.9688-3.0859 1.418-1.707-1.9805-2.2109-3.3281-4.9961-3.3281v0.33593c0 1.4219 2.0938 5.6406 3.2539 5.9531-0.12109 1.4609-3.9297 4.5078-3.9297 7.75h0.33594c9.543 0 19.125-5.7109 23.945-10.531 2.9219-2.9219 5.3359-6.1484 7.2734-10.02 0.85547-1.7188 2.0391-4.1055 2.582-6.0625 0.39453-1.418 1.7969-5.4492 1.7969-6.8516-0.82813 0.39453-1.9375 0.67187-3.1445 0.67187h-0.22657c-1.7734 0-3.875-0.20312-5.4375-0.51172-1.8633-0.36719-3.1641-0.79297-4.7773-1.1719 1.2227 2.3203 6.4766 5.4492 7.6328 7.6367" fill="#e30030" fill-rule="evenodd"/>
  <g clip-path="url(#clip2)" stroke-width=".21199">
   <path d="m632.63 330.74c0-1.4492 0.24219-4.1562 1.5742-4.1562h0.10938c1.1445 0 2.5859 2.0938 3.4844 2.6953l0.92969-1.8906c1.9531 1.3125 6.9062 5.6562 9.0625 6.1562-0.19531 0.73437-0.85938 0.10156-1.1836 0.83984-0.28125 0.63672-0.3125 0.6211-1.2891 0.6211l-0.11328-0.0312-0.75 2.5898-1.1562 0.0234c-0.58984 0-1.6094-0.48828-1.9609-0.84375-0.41015-0.41797-0.67968-1.2266-0.73437-1.9609-0.0547-0.78125-0.29688-1.5234-0.75391-1.9414-0.26562-0.24609-1.4023-0.86718-1.8281-0.86718h-0.44922c-0.32031 1.3828-0.94141 3.0312-2.582 3.0312-1.25 0-2.3594-1.8281-2.3594-3.0312zm24.809 7.1055c0.0351 0.75781-0.043 1.3438-0.39844 1.7734l1.0742-0.14453c1.1367-0.0742 0.52734-2.0977 0.10937-2.3789-0.1875 0.20312-0.17187 0.52734-0.55469 0.60547 0-1.4141-1.1133-2.6484-2.1836-2.9453l0.27734-0.53516c0.94922 0 2.4688-0.043 2.4688-0.89844 0-0.64062-0.99218-1.125-1.6836-1.125h-0.33594c-2.0273 0-0.72656 1.5742-3.0312 1.5742h-0.33984c-2.2422 0-4.5547-2.1836-5.5898-3.5039-0.6875-0.86718-3.5703-4.793-3.8086-5.6836h-0.78906c-0.6875 0.39453-2.6172-0.21094-2.918 0.30859-0.42187 0.73438-0.0937 1.1211-0.45312 1.6641 0.51953 0.77343 4.4688 3.4609 5.4297 4.1172 0.60157 0.41016 4.6094 3.0039 4.7617 3.2109-0.32031 0.4336-1.6016 0.76953-2.3594 0.78516v0.67187c0 0.46094 0.55078 1.125 0.89843 1.125h0.11329c0.72656 0 1.4766-1.0117 2.582-1.0117h0.33593c0.76954 0 1.1406 0.75391 1.6875 0.89844v0.78516c0 0.6914-0.5625 1.3906-0.5625 1.6875 0 0.34765 0.66016 0.89453 1.1211 0.89453h0.44922c0.21484 0 0.47265-0.21875 0.51953-0.34766l-0.62891-3.4688h0.44531c0.76563 0 1.1797 1.3711 1.4688 1.8594zm-48.613-4.8633c2.3906 0 4.6914-2.5039 5.9805-3.7891 1.832-1.8203 2.6445-3.6992 4.9141-5.2148l1.4648 0.53516 1.4531 0.0469-0.14062 1.7969c-0.24609 0.41406-4.2578 3.0586-5.0703 3.6602-1.0742 0.80079-4.1094 2.9961-4.1094 4.5391 0 1.3633 2.0234 0.51172 2.0234 1.2344v0.33594c0 0.35937-0.57422 0.78906-1.0117 0.78906-0.48047 0-0.42969-1.9102-2.3594-1.9102h-0.44922c-1.1172 0-2.4688 0.55468-2.4688 1.5742 0 1.0508 0.89843 1.2891 0.89843 2.0195v0.89843c0 0.41016-0.54687 0.78516-1.0117 0.78516h-0.44922c-0.46094 0-1.0117-0.375-1.0117-0.78516v-0.22656c0-0.35547 0.5039-0.5 0.44922-0.89453l-0.13282-1.1211c-0.18359-0.3125-0.23437-0.56641-0.76562-0.56641h-0.67188c-0.0625 0.75781-0.66406 2.4727-1.4609 2.4727h-0.11328c-0.42579 0-1.0078-0.73438-1.0078-1.2383v-0.55859c0-1.0703 2.918-1.1562 2.918-2.1367 0-0.58203-0.78906-1.793-1.2344-1.793-0.27735 0-0.81641 0.42969-1.5703 0.44922-0.13281-0.27344-0.22656-0.49219-0.22656-0.90234v-0.22266c0-0.39453 0.44141-1.0117 1.0117-1.0117h0.5625c0.72656 0 1.3672 1.2344 3.2539 1.2344zm20.887 33.355c7.3711 0 13.719-1.7227 18.992-3.8047 5.7344-2.2656 9.5977-5.1055 13.934-8.7461 3.8438-3.2227 7.5156-8.0664 10.039-12.645 1.4648-2.6523 2.4141-4.8086 3.5352-7.8086 0.58594-1.5703 2.457-7.0391 2.457-8.8828-2.1562-1.0352-3.6172-2.6016-5.0352-4.3984-0.73438-0.9375-1.3125-1.6992-1.9961-2.7227-0.33203-0.5-1.4531-2.7344-1.8398-2.875 0 5.4844-1.6133 13.559-3.332 17.332-2.5938 5.6953-3.9805 8.2422-7.9258 12.621-5.9766 6.6289-16.242 12.27-28.828 12.27-12.598 0-21.773-5.4336-28.098-11.762-5.8555-5.8555-11.09-16.961-11.09-28.664-0.39843 0.10547-1.7578 2.3516-2.0898 2.8516-0.60938 0.92578-1.4219 1.9883-2.1484 2.793-0.69531 0.77344-1.6797 1.8359-2.4766 2.4609-0.34766 0.27344-2.7148 1.8789-2.7148 2.1133 0 1.6719 1.7695 7.1641 2.3203 8.6836 0.89453 2.4531 2.207 5.4648 3.4922 7.5117 0.74609 1.1836 1.3711 2.2148 2.1367 3.3672 0.7461 1.1328 1.6094 2.0742 2.3789 3.1211 1.5664 2.1328 3.5898 3.6484 5.418 5.4727 3.1484 3.1406 9.1719 6.3125 13.703 8.1953 4.6406 1.9258 11.863 3.5156 18.383 3.5156zm32.449-37.957c-0.54687 0.82031-1.9414 1.3476-3.2578 1.3476h-0.22266c-2.3906 0-5.5391-1.3594-7.3125-2.0078-0.99218-0.36328-2.0781-1.1133-2.875-1.7305-0.76562-0.58594-1.9688-1.668-2.6133-2.1016-0.57031 0-1.7969 0.15234-1.7969 0.67187 0 2.0312 6.6602 8.6484 8.5352 8.6484 0.94922 0 2.8125-1.9102 3.8164-1.9102h0.5625c0.57031 0 0.92187 0.40625 1.1211 0.78907 1.8281 0 2.6953 0.53515 2.6953 2.3594v0.44531c-0.625 0.16797-0.375 0.5625-0.67188 0.5625-0.58594 0-0.83984-1.3476-1.4609-1.3476h-0.11328c-0.39062 0-1.1211 0.42578-1.1211 0.78515v0.11329c0 1.0469 1.7969 2.0156 1.7969 3.2578 0 0.60547-0.72656 1.9062-1.2344 1.9062h-0.11328c-0.75782 0-0.92188-0.21094-1.5274-0.35547l0.26172-0.8125 0.13672-0.49219-1.793-0.35937c0 0.76953 0.0977 1.4297-0.27734 2.1055-0.3086 0.5625 0.43359 1.5742-0.17969 1.5742-1.207 0.5-3.6016-2.0312-3.0234-3.0039v-0.44922c0-0.51953 0.44922-0.94531 0.44922-1.4609 0-0.54687-0.37109-1.0117-0.89844-1.0117-0.94921 0-1.4102 0.75-2.1328 1.2344-0.64844-0.0547-1.2852-0.44922-1.6836-0.44922h-0.11328c-0.35938 0-0.5586 0.41016-0.5586 0.78516v0.33984c0 0.34375 0.10547 0.45312 0.22266 0.67187-0.0781 0.13672-0.11328 0.1211-0.11328 0.33985 0 0.64844 1.3476 1.3633 1.3476 3.4805v0.67187c0 2.043-1.5078 4.2695-3.2539 4.2695h-0.33594c-0.0469-2.0078-1.0195-4.1562-3.0352-4.1562h-0.44921c-0.34766 0-1.4375 2.1328-3.8164 2.1328-0.66406 0-0.79688-4.043-4.2656-4.043v0.33593c0 1.4219 2.0938 5.6445 3.2539 5.9531-0.12109 1.4609-3.9297 4.5078-3.9297 7.75h0.33985c9.543 0 19.121-5.7109 23.941-10.531 2.9219-2.9219 5.3398-6.1484 7.2695-10.02 0.85938-1.7188 2.043-4.1055 2.5859-6.0625 0.39453-1.418 1.7969-5.4492 1.7969-6.8516-0.82813 0.39843-1.9375 0.67187-3.1445 0.67187h-0.22657c-1.7734 0-3.875-0.20312-5.4375-0.51172-1.8633-0.36719-3.1641-0.79297-4.7812-1.1719 1.2305 2.3203 6.4805 5.4492 7.6367 7.6367m-25.375-12.578c0-0.47266 2.3086-4.582 2.8047-4.7148v0.33593c0 2.6992 4.5898 9.125 4.7188 10.668-2.9688 0-7.5234-3.4609-7.5234-6.2891m-45.027-0.33594v0.5625c0 3.5586 0.19531 5.7305 0.79297 8.6406 0.41406 2.0117 1.5 5.4102 2.3164 7.1172 2.1211 4.4258 4.082 8.3438 7.3633 11.613 3.6211 3.6094 6.0312 5.6523 10.902 8.0742 3.8945 1.9414 9.4766 3.7461 15.23 3.7461h1.5703v-0.33984c0-1.5039-3.5898-6.3281-3.5898-7.4102 0-0.16406 1.6875-1.9297 1.9375-2.2148 0.41015-0.46094 0.86718-2.4766 0.86718-3.3984l-4e-3 -0.48047-1.5664 0.14062c-0.82031 0.55079-1.375 0.37891-2.0703 1.4141-0.14453 0.21484-1.1758 2.293-1.1875 2.293-0.79297 0-1.3516-1.3477-1.7969-1.3477-0.28906 0-1.0976 0.45703-1.7656 0.58984-0.64844 0.12891-1.5 0.125-2.1445 0.32813-1.5938 0.49219-1.2383 1.5976-1.9297 2.8984-1.0664-0.2461-2.4688-2.0703-2.4688-3.4805v-1.0078c0-2.6055 4.3633-5.7305 7.043-5.7188l0.0312-1.0195c0.1289-1.1406 0.9414-2.9219 2.1328-2.9219 1.3164 0 0.74219 2.0234 2.8086 2.0234 1.1445 0 1.9062-2.8672 1.9062-4.2695v-0.44921c0-0.88282-0.19531-1.7969-0.51953-2.3984-0.125-0.23438-1.2852-1.6406-1.3867-1.6406-1.3711 0-1.3906 2.8047-2.0195 2.8047h-0.11328c-0.52734 0-1.2969-1.4141-1.3476-2.0195-0.89063 0.23828-8.7578 5.8164-8.7578 6.2891 0 0.44531 1.1289 0.67188 1.6836 0.67188 0.15625 0.32812 1.0078 1.7617 1.0078 1.9102v1.0078c0 0.16406-0.55078 0.83593-0.67188 1.3516-0.52343 0.043-1.0273 0.44531-1.2344 0.44531h-0.11328c-0.25781 0-0.67188-0.125-0.67188-0.33594 0-0.5 0.33594-0.83203 0.33594-1.1211 0-0.80469-2.1055-2.1367-3.2578-2.1367h-0.22266c-0.35156 0-0.65234 0.20703-0.89844 0.33984 0.0586 0.70704 0.78516 2.1016 0.78516 2.1328 0 0.58984-0.10156 0.99218-0.33594 1.3476v0.44922c-0.42187 0.62891-1.2617 3.3672-2.1328 3.3672h-0.22656c-0.25781 0-0.33594-0.0781-0.33594-0.33594v-0.67187c0-0.49219 0.22266-0.41016 0.22266-0.89844 0-0.78516-0.89844-1.1289-0.89844-1.5742 0-0.58203 0.91406-2.2617-0.22266-2.3594-0.0469 0.20703-0.35937 1.1719-0.45703 1.4531-0.19922 0.54688-0.46484 0.79297-1.1914 0.83203l-0.47657 0.41406-0.12109 1.1211c-0.21875 0.11719-0.33203 0.22265-0.67188 0.22265h-0.22656c-0.46094 0-0.67187-0.61718-0.67187-1.1211v-0.5625c0-0.86328 0.11718-1.4336 0.21093-2.1445 0.15625-1.1992 0.40625-1.1484 0.58594-1.7422l2.1211-0.60547v-0.33593c0-0.36329-0.40625-0.5586-0.78516-0.5586h-1.4609c-1.1641 0-0.64062 0.5586-1.4609 0.5586h-0.22265c-0.25781 0-0.33594-0.0781-0.33594-0.33594v-0.33594c0-0.88281 0.65625-1.7305 1.0547-2.3164 0.32031-0.46875 1.6133-1.2773 2.1992-1.2773 0.41015 0 2.1562 1.3477 3.5938 1.3477h1.0117c2.1328 0 3.9062-2.5234 5.082-3.6797 0.5664-0.55859 4.0117-4.3086 4.0117-4.8555 0-0.70703-0.60547-1.0234-0.89844-1.4609 0.50781-0.7539 6.625-5.9141 6.625-6.2891 0-0.98828-1.457-3.9727-2.1328-4.1562 0 1.5195-1.8672 5.3516-2.5391 6.4492-1.4141 2.3203-2.1797 3.1797-3.832 5.1484-1.3359 1.5898-3.0976 2.9414-4.9258 4.0586-1.0391 0.63672-1.8164 0.99219-3.0078 1.4844-0.47266 0.1914-3.1875 0.9414-3.6602 0.9414l-2.6992 0.043-2.3438-0.29687-1.4688-0.53125c0.14844-1.8203 7.6875-5.4219 7.7461-7.9727-0.48438 0.0391-1.332 0.49609-1.6992 0.65625-0.58594 0.26172-1.2461 0.35156-1.957 0.51562-0.9961 0.22657-3.2266 0.51172-4.3164 0.51172l-0.68359 0.0859-4.1445-0.53516v-0.33593c0-0.64844 2.3008-2.2383 2.8516-2.6524 0.96094-0.71484 2.0508-1.8242 2.9414-2.6719 0.9961-0.94531 1.8594-1.8242 2.8242-2.7891 0.64453-0.64454 2.5898-2.0195 2.6133-3.0039-1.5469 0.35937-3.6523 1.2344-5.5039 1.2344h-1.9062c-0.46094 0-1.7031-0.39843-2.0234-0.5625-0.26953-0.13281-1.543-1.1211-1.5703-1.1211-0.94922 0-1.125 3.9102-1.125 5.1641m70.516-3.8203c2.2539 0 4.125-0.66797 5.6133-1.457 0.58594 0.39062 0.78516 2.3477 0.78516 3.3672v3.3711l-0.30078 4.1562c-1.8203-0.043-12.211-8.5-12.609-10.219 0.40235 8e-3 1.6914 0.33984 2.2344 0.45703 0.38672 0.0781 1.8906 0.32422 2.2578 0.32422zm-12.688 9.2109c-1.4492-0.33985-3.8438-5.3555-4.5273-6.9297-0.58203-1.3359-1.1797-2.6641-1.7188-4.0078-0.27344-0.67969-0.51172-1.3828-0.75-2.0547-0.19141-0.52344-0.35156-1.918-0.86328-2.0547l-0.10156 1.0391-0.34766-1.375h-1l-0.46094 3.4805c-0.33203 2.1172 1.5274 6.6445 2.207 8.0117 1.0078 2.0274 2.8633 4.4141 4.3906 5.9414 1.6289 1.6289 3.7266 3.2227 5.9023 4.3125 1.082 0.53906 2.5078 1.1094 3.7852 1.3789 0.58594 0.12109 4.4883 0.38281 4.4883-0.21875 0-0.59766-2.1094-1.832-2.6055-2.2266-0.65234-0.51172-1.7109-1.8633-2.3633-2.5742-1.4492-1.5742-3.3086-3.6172-4.4844-5.3984-0.65234-0.98047-1.3242-1.8359-1.957-2.8711-0.64843-1.0664-1.1289-2.1211-1.7734-3.168-0.45313-0.73828-3.043-6.1055-3.0977-6.7812h-0.56235c-0.25781 0-0.33594 0.0781-0.33594 0.33594v0.22656c0 0.75 0.48047 0.45313 0.15235 1.0508l-0.71485-1.0508c0 4.7305 6.7383 11.305 6.7383 14.934m-50.898 7.5625c1.9414 0.82031 3.8086 0.71484 5.8125 0.71484 3.1406 0 10.758-5.6641 11.957-7.7188 1.5664-2.6758 5.8438-11.145 5.8438-14.934v-0.33594c0-0.55469-0.375 8e-3 -0.44922-0.89844l-0.4375 4e-3 -0.23828 1.2305h-0.22266l-0.22656-0.89844c-0.65235 0.4375-1.8906 3.5547-2.3555 4.4922-0.79688 1.6016-1.4766 3.0547-2.4492 4.5156-0.50781 0.76172-1.1484 1.3242-1.5508 1.9258-0.53516 0.79688-0.84375 1.3203-1.4102 2.0742-0.71093 0.94922-2.3594 3.1367-3.2383 3.7227 0.10938-0.40234 4.5625-6.957 5.2109-7.9258 0.83594-1.2461 4.6719-7.2031 4.6719-8.5781 0-0.2539 0.043 0.0508-0.14062-0.26562l-0.64453 0.3789-4e-3 -0.8164-0.89453 0.14062v-0.5625h-0.33594c-0.46875 0-2.6797 5.9102-3.1094 6.7774-1.1055 2.2422-2.582 3.9609-4.0117 5.8672-0.99609 1.8047-11.539 11.117-11.777 11.09m47.414-21.824-0.35938-1.3398c1.1445 0.29296 5.5039 9.0898 8.1094 9.0898h0.33594c-0.12891-1.5781-7.9727-7.2734-7.9727-10.668v-0.67586c0.75781 0.20312 8.3594 8.1914 9.5742 9.4062 1.5273 1.5273 3.1484 3.2422 4.9805 4.4492 1.2344 0.8164 4.5938 3.0703 5.3711 4.0625 0.69531 0.88672 0.49609 0.84765-0.72266 0.83594-0.82031-8e-3 -1.3906 0.21484-2.2226 0.0898-1.4141-0.21484-2.6055-0.39844-3.8906-0.82813-2.4414-0.8164-4.3516-1.8555-6.1484-3.2852-1.7734-1.4102-3.2812-2.9922-4.582-4.8477-0.80468-1.1406-2.8828-4.7812-2.918-6.5117zm-65.906-16.957c1.2266 0.10156 6.9062 3.3672 8.1289 4.1094 1.3438 0.82422 2.7031 1.3047 3.3984 2.7774 0.55469 1.168 0.9336 3.4492 0.9336 5.1289v1.4609c0 1.5078-0.41797 3.2656-1.0117 4.1523-1.7461-0.40625-4.168-0.91406-5.8242-1.4688-0.89063-0.30078-2.0469-0.43359-2.9688-0.73828-0.5625-0.1875-2.6562-0.48828-2.6562-0.93359zm12.238 19.539c0-2.0078 1.2344-5.125 1.2344-7.5234 0.82813 0.55469 1.082 1.4414 2.6914 1.6875 1.1484 0.17188 2.5586 0.44532 3.9336 0.44532-0.52734 0.45703-1.4726 1.0117-2.1055 1.4922-0.67969 0.51953-1.2774 1.0547-1.9375 1.543-0.60938 0.44922-3.4609 3.0469-3.8164 3.1406zm65.234-5.9492c1.2891 0 3.9492-0.47265 5.2539-0.69922 0.88672-0.15625 1.3828-0.41406 2.125-0.79687 1.0352-0.53516 0.4375-1.1719 1.7188-1.1992 0.0625 0.76953 0.39063 2.7773 0.54688 3.7148 0.1875 1.1289 0.23828 2.6328 0.23828 3.918v1.0117zm-43.676 1.457c0.76572-0.2032 0.98837-1.6837 1.6837-1.6837h0.33593c-0.0117 0.49219-1.5391 2.6211-1.8828 3.168-0.74219 1.1758-1.5352 1.6133-2.3555 2.5898-0.77734 0.92578-4.4336 4.5039-4.6328 5.2461 1.5-0.34766 3.6797-2.9531 4.7461-4.0117 0.75782-0.76172 1.3398-1.5352 2.0781-2.3008 0.46094-0.47657 1.418-2.168 2.0469-2.2188-0.0469 2.1133-5.2656 10.176-6.5976 11.48-1.5938 1.5625-3.2031 2.6602-5.6406 3.3398-2.3476 0.65234-4.3438 1.5742-7.4102 1.5742-0.62891 0-2.3047 0.043-2.4453-0.48047 0.5-0.13281 9.3516-8.1719 10.391-9.207 1.2891-1.293 8.4609-8.3945 9.793-8.5039-0.0586 0.25-0.10938 0.25781-0.10938 0.5625zm36.125-2.3398 0.25391 0.54297-0.6875 8e-3 0.35156 0.89063h-0.22656c-0.10938-0.41407-0.58984-0.66016-1.1211-0.67188v0.44922c0 0.91016 3.8438 4.3984 4.7148 4.9375 1.793 1.1055 4.4336 2.4727 7.2969 2.4727h1.0117c1.7266 0 3.2148-0.57422 4.6055-0.89844-0.13281-1.5703-12.367-7.8711-14.934-8.0859 0.0508 2.2617 6.2852 4.375 6.3984 5.7266-2.6719-0.0586-6.4297-5.0664-7.6641-5.3711m17.656-1.7031c0-1.8164 0.52735-4.125 1.0859-5.4258 1.1211-2.6016 0.53125-2.1641 2.8242-3.6914 1.0664-0.71094 7.1406-4.9961 7.7695-5.1406v15.832l-11.207 3.332-0.12891-0.0664-0.41797-3.8203zm-73.984 9.125c2.5273-3.1836 13.711-9.168 16.723-9.2344l-1.2694 0.96848c0.0937 0.125 0.0937 0.26562 0.25782 0.26562 0.51171 0 0.73046-0.5625 1.3476-0.5625 0.13672 0 0.33594 0.23047 0.33594 0.44922v0.33594c-0.50391 0.13672-7.8438 5.3555-7.9727 5.8398 2.6016-0.0586 6.6602-5.1641 8.9844-5.1641 0.0586 0.69922 0.33594 0.3125 0.33594 0.78516 0 1.2383-5.2344 4.5976-6.4024 5.2773-2.8047 1.6328-5.0352 2.5625-9.4297 2.5625-0.36718 0-3.3438-0.97656-2.9102-1.5234m16.273-11.707c0 1.5039 0.4414 1.957 1.207 2.7227 0.26562 0.26953 1.9766 1.6562 2.2734 1.6562h0.78516c0.69531 0 1.5703-0.28516 1.5703-0.89844v-0.10937c0-1.1484-1.0195-2.4766-1.1211-3.707h-0.33594c-0.76562 0-1.9961-1.0117-3.1445-1.0117-0.87109 0-1.2344 0.46093-1.2344 1.3476m14.594-3.1445c0 2.3594-0.11719 9.7188 0.28906 11.504 0.46875 2.0586 0.46094 2.8789 1.5898 4.3633 0.81641 1.0703 2.1289 1.9883 3.9609 1.9883 4.8203 0 6.4023-5.1523 6.4023-10.105l0.0274-2.9219-0.125-4.9258-5.6094-0.82422-0.0195 0.13672h-0.44922c-0.80859 0-2.5195 0.0117-3.2148 0.15234-0.86328 0.17578-2.0781 0.57031-2.8516 0.63281m-29.867 6.1758c0 0.92578 3.2109 1.4609 4.4922 1.4609h0.44921c4.4961 0 8.082-1.9141 9.8828-4.6016-0.16797-0.23047-0.25782-0.33985-0.67578-0.33985h-0.11329c-4e-3 0-3.0781 1.5625-3.6367 1.75-0.9961 0.33985-3.1562 1.1484-4.2227 1.1719v-0.22656c1.625-0.37891 5.0977-1.7852 6.2891-2.582l0.0664-0.63282 0.26953-0.60156h-0.5625c0.0625-0.25391 0.11328-0.25781 0.11328-0.5625 0-0.23047-0.32812-0.5625-0.44922-0.5625-2.0195 0-5.0742 1.4727-6.5508 2.2109-0.77344 0.38672-5.3516 3.0234-5.3516 3.5156m9.5391-11.496-2.0117 0.28516c-0.61328 0.39062-6.3828 2.3398-7.4141 2.3398h-0.5625c-0.52734 0-1.25-0.55859-1.457-0.55859h-0.44922c0 2.4453 3.5781 4.043 6.2852 4.043h1.7969c0.94922 0 5.7266-0.77343 5.7266-1.2383 0-0.40625-0.47265-0.59375-0.67187-0.89843 0.21484-0.32032 1.1211-1.082 1.1211-1.457 0-0.1914-0.14844-0.42187-0.22656-0.54296l-1.1211-0.13282v-1.5703c-0.29297-0.0703-0.6875-0.26953-1.0156-0.26953m-13.691 0.82812v0.33985c0 0.92578 1.0547 3.6133 1.3828 4.4531 0.35937 0.92188 1.3125 3.5938 1.3125 4.6406v0.5625c0.98047-0.082 5.8203-2.8477 6.2852-3.4805-0.35156 0.0273-0.39843 0.11328-0.78515 0.11328h-1.0117c-3.293 0-6.3984-2.1875-6.3984-5.6172v-0.22265c0-0.38672 0.082-0.4375 0.11328-0.78907 0.88672 0.0234 1.8594 0.78907 3.3672 0.78907 1.5508 0 2.3242-0.62891 3.4648-1.0274 0.57422-0.20312 1.0195-0.38672 1.6211-0.625 0.5-0.19922 1.6523-0.21875 1.6523-0.70703v-0.33594c-3.1914-0.74609-4.8164-7.168-5.7266-7.4141-0.125 0.53125-2.2734 3.793-2.7422 4.5625-0.44531 0.73047-2.5352 4.0312-2.5352 4.7578m70.062-5.3867c1.082 0 1.75-0.67579 2.0234-0.67579h0.33594c0.0586 0.25391 0.11328 0.25782 0.11328 0.5625v0.33594c0 1.7031-4.9727 4.7148-6.9609 4.7148h-0.44922c-0.25781 0-0.33593-0.0781-0.33593-0.33594v-0.10938c0-1.1523 0.68359-1.1289 1.3438-1.5742 1.25 0 3.4961-0.48828 3.5938-1.6836h-0.33594c-1.0039 0-2.8164 1.3477-4.7148 1.3477l-0.73438-2.2266c0.72656-0.37109 0.93359-0.58203 1.9688-0.58203h1.3477l2.2422 0.26172zm-0.44531-0.89844 3.1406-0.78906c0.23437 0.4375 0.33593 0.90234 0.33593 1.5742v0.78516c0 1.7266-3.1172 3.1133-3.8164 4.1562 0.42578 0.58203 4.6211 1.6836 5.8398 1.6836h1.0117c0.40625 0 0.39063-0.13281 0.78516-0.22265 0 4.0625-3.3711 5.2734-7.4102 5.2734h-1.9102c0.0234 1.0625 2.2656 2 3.168 2.2266 0.96094 0.23828 3.5195 0.91797 4.4688 0.91797h0.89844c0.70703-3.0312 2.1328-5.8086 2.1328-9.543v-0.11328c0-1.4453-2.4297-4.5391-3.1875-5.6797-0.51953-0.77734-3.2617-4.9453-3.6641-5.2109 0 0.7461-0.27734 2.2734-0.46484 2.8984-0.32422 1.0586-0.84375 1.3164-1.3281 2.043m-56.367 3.0312 1.1211 0.22265v1.125c0 0.25782-0.0781 0.33594-0.33594 0.33594h-1.1211c-1.7656 0-5.9531-4.207-5.9531-6.1758v-0.78516c1.3008 0.0274 2.6758 1.168 4.2383 1.4883 1.5938 0.32421 3.6211-0.21485 3.6211 1.9922v0.5586h-0.67578v0.45312l-3.582-0.82031c0.32813 0.48828 1.8906 1.1367 2.6875 1.1562zm51.086-6.2891c1.2774-0.67579 4.1719-2.3203 5.9531-2.3594l0.2539 1.6797c0.15235 1.1406-1.0859 2.3945-1.7812 2.8594-0.82422 0.55078-2.1992 0.96485-3.5273 0.96485h-0.55859c0.21875-0.60938 3.2969-2.2969 3.3672-3.1445-1.1914 0.27734-2.1523 2.1328-3.1445 2.1328h-0.33594zm-58.387-0.78516c0.66016-1.2461 1.0742-3.2422 2.582-3.5938v1.2344c0 2.9336 2.1094 3.6602 2.3594 4.6055-1.8281-0.42578-4.0547-0.92187-4.9414-2.2461m8.7578 2.1328c0 0.15625-0.15235 0.22656-0.33594 0.22656h-0.5625c-1.0117 0-2.4141-1.1875-3.1133-1.7148-0.84375-0.63281-1.9375-1.4688-1.9375-2.8906v-0.44922c0.13672-0.0547 0.38281-0.11328 0.5625-0.11328h0.67187c1.293 0 5.3906 1.7344 5.3906 2.918 0 0.53907-1.1172 0.67579-1.6836 0.67579-8e-3 0-1.1445-0.88282-1.9102-0.89844 0.46875 0.69922 2.918 1.6836 2.918 2.2461m5.3906-0.78515c-0.84766-0.0703-1.3047-1.5742-2.3555-1.5742-1.0312 0-2.5859 1.1133-2.5859 2.2461l-0.0859 0.125 0.53515 3.918-0.0547 0.51172-0.39454 0.5c0 0.7539-0.22265 0.83203-0.22265 1.1211 0 0.49219 0.59765 2.0039 0.80859 2.3398 0.45313 0.71875 0.96875 0.5 0.99219 2.1484 0.0156 1.1562-0.16797 2.0469 0.375 2.7695 0.25781 0.34766 1.2891 1.3906 1.7539 1.3906 0.36328 0 0.5625-0.40625 0.5625-0.78516 0-0.94922-0.11719-1.7891-0.40625-2.5195-0.17579-0.44922-0.82422-1.8438-0.82032-2.1133l0.8711 0.30078-0.0508-0.11328 0.42968-0.46484 0.0859 0.082-0.0273 1.2344 0.14062 2.2461c0.61719 0.92187 3.3633 2.2461 4.9414 2.2461 0 0.74609 0.25 1.8867 0.64062 2.2773 0.10938 0.10938 1.8906 1.0898 1.9414 1.0898h0.11328c0.73828 0 0.87109-0.22266 1.6836-0.22266-0.0625 0.72656-2.4453 1.3906-3.2578 1.457 0.10938 1.2812 2.5352 3.1445 4.1562 3.1445 1.6328 0 2.8516-1.0234 3.2734-2.2266 0.58984-1.6992 0.082-3.0898 0.0937-5.0703 0.0117-2.2773-0.68359-3.3594 1.5781-3.8125 1.6328-0.32422 3.0508-0.57031 5.0469-0.57031h1.5742c1.4883 0 5.2578 0.55859 5.4844 1.7031 0.20703 1.0312 0.0117 2.543 0.1211 3.4727 0.11718 1 0.12109 2.4219 0.12109 3.4726 0 5.5117-1.4453 11.68-6.7383 11.68h-1.7969c-1.7695 0-3.3555-1.7422-4.043-2.9219-0.6875-1.1875-1.3477-3.7266-1.3477-5.6133-0.52734 0.1914-0.67188 1.543-0.67188 2.2461-0.25781 0.38281-0.5625 0.9375-0.5625 1.5703v0.67578c0 1.1797 0.84766 2.9062 1.3086 3.7422 0.40625 0.73828 2.0742 2.7305 2.1719 2.9961-1.707 0.81641-2.3008 1.457-3.5664 2.7227-0.40625 0.40625-3.1719 2.9258-3.1719 3.2266v0.22266c0 0.94531 1.9805 1.5742 3.0312 1.5742h0.78906v0.89844c0 1.3984-0.1875 2.6055 0.78516 3.2578 0.44531-0.66406 1.7305-4.2695 2.2461-4.2695 0.1836 0 0.33594 0.0703 0.33594 0.22656 0 0.67969-0.33594 1.0117-0.33594 1.457v0.11328c0 0.52344 1.4453 0.9336 1.8984 2.1445 0.38672 1.0469 0.6836 1.9297 0.6836 3.3594v0.44922c0 1.8516-0.83204 4.9414-2.4688 4.9414h-0.22657c-1.168 0-2.5976-2.0195-2.6953-2.0195-0.64453 0-1.2344 0.48047-1.2344 1.1211v0.33593c0 0.65625 0.13281 1.0039 0.22656 1.5703 0.16015 1 0.15234 0.63671-0.91016 0.69921-0.99609 0.0586-2.1953 0.40235-2.9961 0.74219-1.2734 0.54297-3.3945 2.7148-3.3945 4.2891v0.67188c0 1.1328 0.83593 2.1562 1.0156 2.8242 1.0547-0.28125-0.19531-2.4688 2.8438-3.0078 1.9609-0.34766 3.0938-0.0977 3.5508-2.0625h0.33594c0 0.65234 0.72656 2.0898 1.2383 2.1328v-0.33594c0-1.2891 1.1055-1.9609 2.1289-2.2461 1.4023-0.39063 2.0938-0.61719 3.2148-1.2422l0.26953-1.3398c0.47266 0.0391 0.67188 0.44921 0.67188 0.89843 0 1.0469-0.5625 3.8125-0.75781 4.7422-0.36329 1.6758-2.3867 3.1367-2.3867 3.2305 0 0.11719 1.6992 2.9414 1.9492 3.4453 0.48828 0.97656 1.2812 2.9531 1.8711 3.6289 0.19922-0.85156 1.1211-3.0469 1.5469-3.7266 0.24219-0.38282 2.1562-3.1992 2.1562-3.2344 0-0.19141-1.8633-2.6328-2.1328-3.0312-0.75781-1.1289-1.0117-2.418-1.0117-4.2695v-1.1211c0-0.40235 0.26953-0.44141 0.67578-0.44922v0.67187c0 1.0664 2.5703 1.3359 3.3242 1.8398 0.5625 0.3789 0.94141 0.76171 1.2774 1.3086 0.17968 0.28906 0.67578 1.5703 1.0117 1.5703h0.11328c1.2422 0 1.3281-1.7969 3.1445-1.7969h0.44922c2.8711 0 2.8164 3.8164 3.8164 3.8164 1.2148 0 1.9102-2.2617 1.9102-3.5938 0-0.84765-0.28125-2.0078-0.65234-2.4922-0.24219-0.32032-0.46485-0.52344-0.85547-0.71485-0.54688-0.26953-0.33594-0.48437-0.89453-0.67969-1.4492-0.51171-4.3047-0.22656-5.0078-1.2773 0.082-0.36328 0.22266-0.69531 0.22266-1.125 0-1.0547-0.84766-3.1445-1.6836-3.1445-0.41016 0-1.0156 2.8086-2.8086 2.8086h-0.78515c-1.6719 0-3.1445-3.332-3.1445-5.2773v-0.44922c0-1.6328 1.2812-4.4922 2.582-4.4922h0.44921c0.92579 0 1.9024 1.9375 2.8008 2.5039l0.92578-2.7969-0.13282-0.043c0.33204-0.4961 0.31641-1.4609 1.125-1.4609 0.50391 0 0.58985 0.26953 1.2305 0.23047 0.48828-0.0312 0.78125-0.11719 1.4648-0.11328 1.1875 0 1.7109-0.36329 2.582-0.56641-0.0195-0.85156-0.28906-0.44141-1.1094-0.6875-0.45312-0.13672-1.0586-0.30078-1.5-0.41016-0.94922-0.23828-1.8867-0.75-2.6719-1.1445-1.0938-0.55859-3.3672-2.7539-3.3672-4.2695v-1.2383c0-1.4023 2.9219-4.3867 2.9219-7.2969v-5.0547c0.5 0.0547 0.82812 0.66015 1.2344 0.89843 0.0859 0.0508 1.6641 0.5625 1.6836 0.5625h0.5625c1.0586 0 3.1445-1.0195 3.1445-2.3594 0-0.99609-1.4961-0.85547-1.5742-1.7969h2.582c0.33594 0 0.58984-0.44531 1.0117-0.55859l-0.0156-2.332-1.332-0.69922v-0.45312c1.4531-0.1211 2.0625-1.6406 2.3594-2.918 0.35937 8e-3 0.5625-0.0352 0.5625 0.33593 0 1.0781-0.52735 1.4922-0.85547 2.293-0.47657 1.1641-0.15625 1.4766-0.15625 2.875v0.78516c0 0.625-0.3711 0.75781-0.86328 0.93359-0.44922 0.15625-1.1172 0.46485-1.3828 0.52735v0.33593c0 0.41016 1.2227 0.5625 1.6836 0.5625h0.67578c0.86719 0 2.3711-2.3476 2.3945-2.4766l-0.26172-2.4648c-0.0859-0.71875 0.5625-1.1094 1.2344-1.125v0.33594c0 0.52734-0.33594 0.64453-0.33594 1.0117 0 0.30469 0.98437 0.85938 1.1211 1.2344l-1.0117-0.22266c0.21485 0.92188 0.8086 0.16797 0.88672 1.0508l-0.76953-0.27734-0.0898 0.082 0.64062 0.90235-0.89062-0.0742v0.67578h0.33593c0.65235 0 3.8281 1.5703 4.9414 1.5703 2.3477 0 8.0391-0.30078 8.0859-2.2461-1.0195-0.0859-4.2461-1.2461-5.2109-1.6367-0.92187-0.37891-1.5-0.69141-2.2461-1.2383-0.29688-0.21485-1.8359-1.5039-1.9766-1.5039h-0.33593v0.33594c-0.54688-0.0117-0.7461-0.16406-0.78907-0.67188h0.33985v-0.44922c0-0.25781 0.0781-0.33593 0.33594-0.33593h0.22265c0.76172 0 1.9375 0.67187 3.3711 0.67187h2.8047c1.0898 0 1.9062-0.44922 2.9219-0.44922 0.59375-0.39843 2.582-1.0391 2.582-2.0195v-0.5625c-1.3164 0-2.875-0.41406-4-0.71875-0.73828-0.19922-3.3008-0.96484-3.75-0.96484l-0.55859-8e-3 -3.4805 0.45703h-1.2344c0.14844-0.5625 0.67188-0.77344 0.67188-1.4609v-0.5625h-0.67188l-0.0703-0.11328 0.74219-0.33594v-0.33594l-0.24219-0.0117 0.35547-0.77343-0.72656-0.0274 0.38281-0.88672-0.66797 0.12891v-0.44922c0-0.65234-0.99219-0.52734-1.0117-1.4609 0.58594-0.15625 1.9102-1.0547 1.9102-1.7969v-0.11328c0-0.67578-2.168-2.4688-2.4688-2.4688-0.71875 0-0.85547 0.22265-1.5742 0.22265h-0.44922c0.082-0.96093 0.5625-1.5352 0.5625-2.582 0-0.64062-0.28906-0.96093-0.92188-1.0156l0.13672-0.55469c-0.39453-0.26562-1.1562-0.69141-1.9141-0.58203l-0.89453 0.13281v2.1328c0 2.4219-1.4609 2.9609-1.4609 4.3789v0.33594c0 1.7695 0.95313 1.9492 2.2344 2.3711 0.61718 0.20313 1.1523 0.30078 1.7383 0.6211 0.33984 0.18359 1.082 0.95703 1.082 1.2773 0 3.7188-1.4688 3.4453-4.5977 3.8203-1.5391 0.1836-0.7539 5.4961-2.9258 5.4961h-0.44922c-0.67187 0-2.1367-1.2344-2.3438-1.6953-0.57812-1.2695-0.64453-1.5898-1.5547-2.5976-0.55079-0.60938-4.1875-3.6797-4.1875-4.0156v-0.5625c0.91406 0.0781 1.207 0.5625 2.0234 0.5625h0.33594c-0.082-0.98437-3.5508-2.4375-3.5859-4.4258l2.0156 0.27344c-0.0859-1-2.4727-2.8008-2.4727-3.3711 0-0.25781 0.0781-0.33593 0.33985-0.33593h0.44921v-0.44922c0-0.51563-0.47656-2.0195-0.89843-2.0195h-0.5625c-0.92188 0-1.3203 0.17187-1.9961 0.3125l0.62891 0.72656-0.0937 0.082c-0.76953 0-0.59766-0.22656-1.1211-0.22656h-0.33985c-0.5664 0-0.47656 0.78906-1.0078 0.78906h-0.33594c-1.5273 0 1.6484-2.2266-2.875-1.418-1.543 0.27735-2.8516 0.22656-2.8516 2.0898h0.33594c0.13281 0 1.0976-0.5625 1.7969-0.5625h1.2344c0.95703 0 1.7734 0.49609 2.582 0.5625v0.78515c0 2.0117-2.6758 0.57813-3.0312 1.9102 0.13672 0.0781 0.12109 0.11328 0.33594 0.11328h0.67578c0.61328 0 0.62109-0.22656 1.2344-0.22656h1.5703c-0.0273 1.1875-2.1328 1.2852-2.1328 2.0234v0.33594h1.9102c0 2.3711-3.3203 2.3398-3.5938 3.3711 0.59375 0.0469 0.64453 0.33593 1.3476 0.33593l0.44922 0.0274 1.6836-0.14063c0 2.7227-4.6602 1.75-6.3594 2.8477-1.4922 0.95703-1.6914 4.8984-4.3086 4.8984-1.0078 0-1.7969-0.63672-1.7969-1.5703v-0.5625c0-0.76953 0.5625-1.5508 0.5625-2.3555 0-1.3359-2.7695-1.3476-4.2656-1.3476-0.64063-0.42969-2.6953-1.8242-2.6953-2.6953 0-0.96485 1.3906-1.7969 2.4688-1.7969 0.92187-0.61719 2.8086-0.33984 2.8086-2.4727v-0.44921c0-1.5781-0.89844-3.2344-0.89844-4.8281v-0.89844c0-0.60937 0.33594-1.3242 0.33594-1.3476 0-0.25782-0.0391-0.12891-0.11328-0.44922h-1.2344c-2.582 0-1.9375 3.2773-2.1328 5.6172m18.75-7.8633c0.40625 0 0.76953-0.67187 1.2383-0.67187 0.27344 0 0.36328 0.76172 1.457 0.78516 0.082-0.30079 0.31641-0.67579 0.67578-0.67579h0.33594c0.0703 0.26563 0.24219 0.67579 0.5625 0.67579h2.0195c-0.0781 0.92968-2.043 3.5195-2.918 3.5938l-0.54687-1.1875-0.12891 0.0664v1.1211c-0.58203 0.0469-0.7539 0.33593-1.5703 0.33593h-0.44922c-1.8633 0-5.3906-2.1836-5.3906-3.7031 0-0.21094 0.41406-0.33985 0.67187-0.33985h0.78906c0.57813 0 0.73438 0.21094 1.2031-0.0273 0.34375-0.17578 0.56641-0.53516 0.92969-0.53516 0.11328 0 0.5 0.5625 1.1211 0.5625m-29.641 2.6953c0-2.0274 8.3242-3.4062 10.789-3.6953 4.3164-0.5039 8.7891-0.90625 13.578-0.90625h2.0195c6.1641 0 14.035-0.0312 19.449 0.75782 3.2774 0.48047 5.832 0.5 8.7774 1.3281 1.9062 0.53906 6.1992 1.7227 6.2422 3.75-1.6484 0.0391-5.8008 2.6953-7.0703 2.6953-0.24219 0-2.2383-0.66015-2.4726-0.78515l0.13671-1.0039-0.0234-0.23047c0-1.2852-1.3242-2.375-2.1328-2.9219-0.8125 0-0.94531-0.22266-1.6875-0.22266h-1.457c-0.25781 0-0.33593 0.0781-0.33593 0.33594v0.33984c0 0.83203 0.13281 0.875 0.44921 1.3438 0 2.4922-1.5742 4.7266-1.5742 6.4024 0 1.332 0.83984 1.9336 1.7578 2.3984 0.65234 0.32813 2.3047 0.97266 3.1836 0.97266v1.0078c0 2.2695-1.7656 2.2461-4.043 2.2461l-1.6484 1.4922-0.30079 4.0078c-0.21093 0.0625-0.21875 0.11718-0.51953 0.11718h-0.5625c-1.6289 0-2.0312-2.4883-3.0586-3.5664-0.55859-0.58985-1.0156-1.1758-1.7227-1.6484-0.5664-0.375-1.5664-0.90625-1.7305-1.5234 0.27735-0.0664 1.6836-0.32812 1.6836-0.5625 0-0.39843-2.8242-3.3281-3.2578-3.707l1.6953 0.30469 0.32031-0.0977 0.12109-0.54297c-0.4414-0.65234-1.9102-1.6875-1.9102-2.6953v-0.33594c0.35156 0.0274 0.39844 0.11329 0.78515 0.11329h0.11329c0.33984 0 0.30859-0.13282 0.33593-0.44922-0.98047-0.082-2.0195-1.9688-2.0195-2.9219v-0.44922c0-0.14062 2.7774-3.125 3.1445-3.8164-0.53515-0.79688-1.7383-0.5625-3.0352-0.5625-0.40625-0.27344-0.67188-0.89844-1.0078-0.89844-0.22265 0-0.66015 0.48828-1.0117 0.67187-0.20313-0.13281-0.78907-0.67187-1.0117-0.67187h-0.22266c-0.32422 0-0.53125 0.44922-1.125 0.44922s-0.80078-0.44922-1.1211-0.44922h-0.33594c-0.37109 0-0.26953 0.54297-1.9141 0.55859-0.80469 8e-3 -1.1641 0.33985-2.1289 0.33985v0.44922c0 1.1484 1.5391 2.7031 2.3594 2.9219-0.0234 0.97656-2.1562 0.91406-3.082 1.0742-1.0273 0.17578-1.9726 0.99609-1.9726 2.0664 0 0.57031 0.21094 0.76171 0.22656 1.3476l2.5469-0.77734 0.0351 0.10547c-0.63281 2.707-5.4609 2.1406-5.7266 3.1445 0.42187 0.11328 0.69922 0.33594 1.3477 0.33594 1.4062 0 2.6328-0.84766 3.8164-1.1211 1.375 0.92188 1.5664 0.52735 2.8086 1.1211l0.0781 0.11718-0.92969 0.62891-0.0508 0.26562c0 0.82422 0.8086 0.85938 1.4609 1.0078v0.45312c-0.50391 0.13281-3.3672 1.6602-3.3672 2.1328 0 0.3125 2.3125 1.0117 2.8086 1.0117h0.55859c-0.35547 1.3281-4.6328 0.57032-5.6367 2.1094-0.44141 0.67969-2.6445 4.4023-3.2344 4.4023h-0.33594c-0.65235 0-1.1211-0.78125-1.1211-1.3476v-0.11329c0-0.6289 0.89844-2.0273 0.89844-2.918 0-0.33204-1.1797-1.1602-1.4609-1.3477-1.8867 0-5.3906-0.55859-5.3906-2.3594 0-1.5469 4.9414-0.66796 4.9414-4.2656 0-0.49219-0.5625-1.7969-0.5625-2.6953v-1.6875c0-0.75782 0.41796-4.2656-0.22266-4.2656h-0.33594c-0.33203 0-3.2773 0.86719-3.5508 1.0508-0.76953 0.52344-1.168 2.0508-1.168 3.3281h-2.3555c-0.97265 0-1.0625-0.63672-1.6016-1.0938-0.0781-0.0664-1.6719-1.0195-1.6758-1.0195-0.8125-0.3125-4.2461-0.31641-4.2461-1.0312m-19.426-16.395c0.49219 0.13281 11.566 11.664 11.566 11.68 0 0.13672-0.60156 3.0664-0.69922 3.457-0.27734 1.1133-0.42578 2.2891-0.42578 3.7305v0.44922c0 0.63672 0.0703 1.9062 0.23438 2.3477 0.1914 0.50781 0.82031 1.4375 0.89062 1.6953h-1.125c-0.55469 0-4.5703-2.8633-5.2969-3.3477-0.76563-0.51171-4.6602-3.2617-5.1445-3.3906zm98.812-3.6836 0.10938 0.0899v15.273c0 0.34766-11.473 11.277-12.125 11.453 0.14062-1.7109 1.0078-2.6602 1.0078-5.3906 0-1.9141-0.91406-4.8203-1.6094-6.0938zm-82.418 2.7852c0.65625 0 3.0195-0.65235 3.8633-0.85156 1.3203-0.3125 2.543-0.60157 3.8555-0.85938 2.4805-0.48828 5.4258-1.1328 8.0117-1.4219 2.7617-0.3125 5.543-0.69532 8.418-1.0117 2.6875-0.30078 6.0664-0.34766 8.9727-0.34766 4.8984 0 10.086 0.29297 14.465 0.92188 2.0352 0.29296 4.4883 0.62109 6.6055 1.0273 2 0.38672 4.4531 0.74609 6.375 1.2617 1.0352 0.28125 2.1445 0.51953 3.2031 0.73047 1.8476 0.36718 1.5781 0.0469 2.0234 1.7891 0.4961 1.918 1.1133 4.0625 1.6719 5.9648 0.57422 1.9414 1.1758 4.0508 1.6797 5.957 0.46875 1.7656 1.4805 4.0469 1.4805 6.1562 0 1.8398-0.83204 3.1641-1.5703 4.2656-1.0195-0.53516-3.8672-5.3477-4.7188-6.625-0.91797-1.3789-1.3633-1.9883-3.3398-2.3828-1.4727-0.29688-2.9648-0.65235-4.6758-0.94141-1.7031-0.28516-3.3711-0.35547-5.0742-0.65234-1.6484-0.28907-3.5117-0.16016-5.1641-0.44922-0.97657-0.17188-4.3047-0.29688-5.3242-0.28906-1.6992 0.0156-3.4922-0.22657-5.3906-0.22657h-8.5312c-5.6445 0-14.898 0.77344-19.242 2.0938-2.9297 0.89063-5.3828 1.4414-6.8984 3.7656-0.5 0.76562-3.7305 6.4922-4.1758 6.4922-2.1367 0-1.9531-3.8203-1.7969-5.7266 0.1836-2.2578 0.75781-4.6289 1.1719-6.8008 0.44922-2.3711 0.99218-4.2383 1.5898-6.3828 0.31641-1.1328 0.66406-1.9492 1.0898-2.9492 0.50391-1.1836 0.92969-1.5742 1.4258-2.5078m-1.125-0.89844c0.625 0 4.4844-0.94141 5.4766-1.1484 1.7695-0.36718 3.7422-0.79297 5.5273-1.2109-0.16797-0.63672-3.4688-5.7266-3.8164-5.7266h-14.82c0.16016 0.60547 7.4102 8.0859 7.6328 8.0859m26.164-4.4922c-0.44531 0-0.60938-1.4805-0.6836-1.8984-0.11328-0.62891-0.4414-1.3008-0.4414-2.1445h18.078l-0.6914 4.043zm33.383-4.1289-3.5078 5.6367c0.66797 0.11328 2.4141 0.51171 2.9531 0.69921 0.74219 0.25391 2.0742 0.39844 2.8789 0.60157 0.94531 0.23828 5.0742 1.2344 5.8359 1.2344 0.043 0 3.0976-3.6523 3.3906-4.0195 0.48828-0.62109 3.2461-3.7891 3.3477-4.1758zm-10.926 116.42c0.50781-0.33984 2.8125-0.92969 3.5938-1.2305 1.1133-0.42968 2.3203-0.91015 3.4023-1.4258 2.2031-1.0469 4.3789-2.0312 6.3203-3.3398 3.2734-2.1992 8.1562-5.7305 10.418-8.7812 0.63672-0.85547 1.4766-1.7617 2.1836-2.6445 0.75-0.94922 1.3359-1.7891 2.0156-2.8125 1.25-1.8672 2.4414-3.9961 3.4102-6.1328 0.99219-2.1875 1.8984-4.5039 2.6094-7.0508 0.55079-1.9688 1.5742-5.6836 1.6406-7.9062 0.0391-1.332 0.44922-2.9219 0.44922-4.375 4e-3 -1.6328 0.11328-3.0039 0.11328-4.7188 0-3.3086-0.11328-6.3203-0.11328-9.543v-19.203c0-12.859-0.11328-25.402-0.11328-38.293l-100.68 0.0117-0.15625 1.4492-0.39454 65.129 0.0586 7.2969c0 3.2617 1.1992 7.3594 1.8203 10.195 0.68359 3.1094 2.1992 5.9375 3.25 8.6562 0.91406 2.3711 3.0703 5.4141 4.4766 7.4258 1.6836 2.4141 3.5312 4.2539 5.582 6.3203 7.0469 7.082 20.297 13.109 34.5 13.109h1.9102c2.1992 0 5.1719-0.51562 7.1953-0.77734 1.1055-0.14063 2.2695-0.34766 3.3125-0.61719 0.66016-0.16797 2.6875-0.74219 3.1914-0.74219" fill="#000002" fill-rule="evenodd"/>
  </g>
  <g fill-rule="evenodd">
   <path d="m673.06 336.96c0.71484 0 1.2969-0.58203 1.2969-1.2969 0-0.71485-0.58203-1.2969-1.2969-1.2969s-1.2969 0.58203-1.2969 1.2969c0 0.71484 0.58204 1.2969 1.2969 1.2969" fill="#006eb5"/>
   <path d="m664.21 350.85c0.71484 0 1.2969-0.58203 1.2969-1.2969 0-0.71485-0.58204-1.3008-1.2969-1.3008s-1.2969 0.58593-1.2969 1.3008c0 0.71484 0.58203 1.2969 1.2969 1.2969" fill="#006eb5"/>
   <path d="m624.09 281.8c0.40234-0.34375 0.65625-0.64063 0.69922-1.1328 0.41796-0.45312 1.5976 0.16016 1.9844 0.20313 0.043 1.1562-1.7188 0.625-2.1992 1.3359z" fill="#e30030"/>
  </g>
  <g fill="#fff" fill-rule="evenodd">
   <path d="m602.3 334.3c-8e-3 -0.89062 0.30469-1.5508 0.93359-1.9883l0.082 0.85547 0.19531 0.60938c-0.35938-0.0977-0.76563 0.0781-1.2109 0.52343"/>
   <path d="m603.87 340.88c-0.57422-0.19532-0.85547-1.1094-0.4336-2.2344l0.49219 0.69531 0.46875 0.42578c-0.35547 0.0937-0.36328 0.50782-0.52734 1.1133"/>
   <path d="m608.17 342.56c0.75-0.28906 1.1289-1.2695 1.2891-1.9414l-0.75 0.21484-0.57422 0.0352c0.19922 0.26953 0.26172 1.1641 0.0352 1.6914"/>
   <path d="m614.98 338.52c0.80469-0.28125 1.2344-0.98437 0.82813-1.8633l-0.53516 0.52344-0.46875 0.29297c0.28906 0.13672 0.12891 0.49609 0.17578 1.0469"/>
   <path d="m645.43 337.17c-8e-3 -0.78125 0.41797-1.6641 0.97266-2.0469l0.21484 0.67969 0.24609 0.44141c-0.3125-0.0859-1.043 0.53515-1.4336 0.92578"/>
   <path d="m654.1 341.29c-0.72266-0.15234-1.207-0.51953-1.4492-1.1094l0.71093 0.0859 0.52344-0.0508c-0.14062 0.27344-0.0703 0.63282 0.21485 1.0742"/>
   <path d="m660.27 334.39c0.082-1.1484-0.87891-1.8242-1.8516-1.8047 0.14844 0.42187 0.3164 0.86718 0.0703 1.293 0.39844-0.45313 1.3203-0.1211 1.7812 0.51171"/>
  </g>
 </g>
</svg>
