<?xml version="1.0" encoding="UTF-8" standalone="no"?>
<svg
   width="406.41824"
   height="569.66235"
   version="1.2"
   viewBox="0 0 304.8087 427.24179"
   id="svg33"
   xmlns="http://www.w3.org/2000/svg"
   xmlns:svg="http://www.w3.org/2000/svg">
  <defs
     id="defs11">
    <clipPath
       id="clip31">
      <path
         d="m 669.92,415 h 3.0781 v 4 H 669.92 Z"
         id="path2" />
    </clipPath>
    <clipPath
       id="clip32">
      <path
         d="m 669.92,424 h 2.0781 v 2.0469 H 669.92 Z"
         id="path5" />
    </clipPath>
    <clipPath
       id="clip33">
      <path
         d="m 669.92,413.77 h 8.7656 v 12.281 H 669.92 Z"
         id="path8" />
    </clipPath>
  </defs>
  <rect
     x="-0.00044476578"
     y="0.00023814605"
     width="304.8096"
     height="427.2392"
     fill="#ffffff"
     stroke-linejoin="bevel"
     stroke-width="4.46038"
     style="paint-order:markers stroke fill"
     id="rect13" />
  <g
     clip-path="url(#clip31)"
     id="g17"
     transform="matrix(34.801,0,0,34.801,-23314.069,-14399.61)"
     style="stroke-width:0.028735">
    <path
       d="m 670.73,417.66 c 0.0469,0 0.0781,0.60937 0.69922,0.80078 0.32422,0.11328 0.63281,0.0859 0.90234,-0.15234 0.2461,-0.21485 0.32032,-0.49219 0.3086,-0.8125 -0.0195,-0.32032 -0.14844,-0.57032 -0.42188,-0.73438 -0.10937,-0.0664 -0.21875,-0.13281 -0.33203,-0.17969 -0.33203,-0.1289 -0.66406,-0.25 -0.99609,-0.375 -0.26563,-0.0976 -0.52344,-0.20703 -0.73828,-0.39843 -0.082,-0.0703 -0.15235,-0.15625 -0.22657,-0.23438 v 2.0859 H 670.73"
       fill="#2b70bf"
       id="path15" />
  </g>
  <g
     clip-path="url(#clip32)"
     id="g21"
     transform="matrix(34.801,0,0,34.801,-23313.886,-14399.351)"
     style="stroke-width:0.028735">
    <path
       d="m 669.92,424.84 v 1.1992 h 1.1836 c -0.5,-0.27735 -0.91016,-0.69531 -1.1836,-1.1992"
       fill="#2b70bf"
       id="path19" />
  </g>
  <g
     clip-path="url(#clip33)"
     id="g25"
     transform="matrix(34.801,0,0,34.801,-23314.128,-14399.61)"
     style="stroke-width:0.028735">
    <path
       d="m 676.88,420.16 1.0117,-4.0234 h 0.80078 v -2.3672 h -4.7734 c 0.0117,0.10547 0.0195,0.37891 0.0312,0.56641 h -1.3086 c -0.0117,-0.10937 -0.0625,-0.43359 -0.17578,-0.56641 h -1.1719 c -0.125,0.29688 -0.0703,0.77344 0.0977,1.0312 0.16406,0.25391 0.40625,0.41016 0.68359,0.50782 0.17969,0.0625 0.36719,0.10547 0.55078,0.15625 0.33203,0.0937 0.64063,0.23047 0.90625,0.45703 0.3125,0.27344 0.49219,0.625 0.57422,1.0273 0.0937,0.46485 0.1211,0.9336 -0.0195,1.3945 -0.29297,0.94532 -0.91797,1.5508 -1.9023,1.7227 -0.90625,0.16406 -1.6484,-0.17969 -2.2383,-0.87109 -0.008,-0.008 -0.0156,-0.0156 -0.0195,-0.0234 v 2.8047 c 0.50782,-0.94141 1.5039,-1.5781 2.6524,-1.5781 1.6641,0 3.0156,1.3477 3.0156,3.0156 0,1.1328 -0.625,2.1172 -1.5508,2.6328 h 4.6484 v -6.8828 l -0.94141,3.9297 h -1.6875 l -1.7969,-6.957 h 1.6211 z"
       fill="#2b70bf"
       id="path23"
       style="display:inline" />
  </g>
  <path
     d="m 118.08068,401.60399 0.1392,-0.1392 c 0.13921,-0.27841 0.27841,-0.67862 0.40718,-0.95007 l 0.1392,-0.40717 c 0.27841,-0.40717 0.5429,-0.95007 0.67862,-1.49645 0.1392,-0.40717 0.40717,-0.95006 0.54289,-1.49644 0.27841,-0.40717 0.27841,-0.81434 0.40718,-1.22151 l 0.1392,-0.40718 c 0.1392,-0.40717 0.27841,-0.81434 0.27841,-1.22499 l 0.27841,-0.95007 c 0.1392,-0.40717 0.2784,-0.81434 0.2784,-1.22499 0.27841,-1.08579 0.40718,-2.03934 0.5429,-2.98941 0.27841,-1.76789 0.27841,-2.85368 0.27841,-2.98941 0,-0.1392 0,-0.40717 -0.13921,-0.54289 7.74845,-4.48585 14.54578,-11.01104 19.98343,-20.79882 h 0.68558 c 2.58224,0 10.19565,-0.1392 15.49724,-2.58223 -1.225,5.70945 -5.43766,14.95329 -12.09892,22.97388 -5.98125,7.06912 -15.49723,15.6333 -28.00367,16.44904 m -42.686888,1.76789 c -0.278408,-0.13921 -0.678619,-0.27841 -0.950067,-0.40717 -0.278408,-0.13921 -0.542896,-0.27841 -0.678619,-0.5429 -0.542896,-0.27841 -0.950068,-0.54289 -1.496443,-0.81434 l -0.542896,-0.27841 c -0.278408,-0.27841 -0.407172,-0.40717 -0.67862,-0.5429 -0.407171,-0.2784 -0.814343,-0.54289 -1.221515,-0.81434 l -0.814343,-0.67862 c -0.139204,-0.1392 -0.278408,-0.40717 -0.542896,-0.54289 l -0.278408,-0.13921 -0.950067,-0.95007 -0.678619,-0.81434 c -0.278408,-0.27841 -0.542896,-0.40717 -0.814344,-0.67862 -0.278408,-0.40717 -0.407172,-0.67862 -0.678619,-0.95007 -0.278408,-0.2784 -0.407172,-0.40717 -0.407172,-0.54289 l -0.139204,-0.27841 -0.278408,-0.27841 c 0,-3.40005 0.407172,-6.52518 1.360719,-9.38026 h 0.278408 c 3.12513,0 14.409702,-0.67862 30.858395,-8.02024 6.117656,4.75765 13.594296,7.74845 21.886676,9.24384 v 0.13921 c 0,0 0,1.08579 -0.1392,2.71796 0,0.81434 -0.1392,1.63216 -0.27841,2.71795 -0.1392,0.27841 -0.1392,0.67862 -0.27841,1.0858 l -0.1392,0.95006 c 0,0.40717 -0.1392,0.67862 -0.1392,0.95007 l -0.13921,0.5429 c -0.1392,0.40717 -0.1392,0.67862 -0.40717,1.22499 -0.1392,0.40717 -0.27841,0.81434 -0.40717,1.36072 -0.1392,0.40717 -0.27841,0.95007 -0.40717,1.36072 l -0.27841,0.40717 c 0,0.27841 -0.1392,0.5429 -0.27841,0.67862 l -0.1392,0.1392 -1.08579,2.31079 c -0.13921,0 -0.13921,0.13921 -0.13921,0.13921 -16.992614,7.74879 -33.577726,2.71795 -39.015383,0.67861 M 65.059284,269.59962 c -2.039338,3.26085 -5.029788,8.83632 -5.16586,14.95364 -8.15631,4.21406 -14.001834,10.33138 -18.216235,17.6723 -0.278408,0.81434 -0.542896,1.63217 -0.814344,2.31078 -1.632167,-0.2784 -5.845524,-0.67861 -13.322519,2.85369 2.853682,-11.41926 19.439839,-32.62594 37.518958,-37.79041 m 27.731873,-5.84552 c 5.029789,0 9.787763,0.54289 13.594303,1.49644 1.76789,0.67862 3.80618,1.63217 5.84552,2.85368 0.67862,0.40717 1.36072,0.81435 2.03934,1.225 0.67862,0.40717 1.22499,0.95006 1.90361,1.36072 0.5429,0.54289 1.225,0.95006 1.63217,1.36072 0.27841,0.2784 0.5429,0.40717 0.67862,0.67861 l 0.81782,0.81783 c -0.67862,3.80653 -1.63216,7.74879 -2.9894,11.41925 -18.215874,0.81434 -29.227259,4.89372 -32.761648,6.52519 -5.845524,-4.2144 -12.098916,-6.79733 -19.847359,-7.74879 0.542896,-7.61272 5.301585,-14.54578 5.573381,-14.81757 0.139204,-0.13921 0.139204,-0.40717 0.278408,-0.5429 6.933055,-3.26085 15.497581,-4.62192 23.246024,-4.62192 m 28.955464,8.15666 -0.40718,-0.40717 c -0.1392,-0.27841 -0.40717,-0.5429 -0.67862,-0.81435 -0.1392,-0.2784 -0.40717,-0.54289 -0.81434,-0.81434 0,0 0,-0.1392 -0.1392,-0.1392 2.9894,1.08579 6.52518,2.71796 9.78778,4.62192 -3.26086,-1.49645 -5.70945,-2.17506 -7.74879,-2.44651 m 32.62594,32.35379 c 0,-1.08579 -0.27841,-2.17506 -0.5429,-3.26085 0.95007,1.90361 1.90361,3.9426 2.85368,6.11767 -0.1392,-0.27841 -0.40717,-0.5429 -0.54289,-0.81435 -0.27841,-0.40717 -1.0858,-1.36072 -1.76789,-2.03934 m -92.577609,92.43842 c 0.139204,0.27841 0.278408,0.40717 0.542896,0.67862 v 0.1392 c 0.278408,0.27841 0.542895,0.5429 0.814343,0.95355 0.278408,0.27841 0.678619,0.5429 0.950067,0.81434 l 0.542896,0.5429 c -2.039339,-0.95355 -4.350125,-2.17506 -6.66126,-3.67046 1.224996,0.27841 2.582235,0.54289 3.806534,0.54289 m -32.490214,-31.5384 c 0.139204,0.67862 0.278408,1.49644 0.542896,2.31078 -0.407172,-0.81434 -0.67862,-1.63216 -0.950067,-2.44651 0.139204,0 0.278408,0.13921 0.407171,0.13921 m -2.582234,-53.96939 c 8.70025,-4.21406 13.186099,-3.26086 13.186099,-3.26086 h 0.407172 c 2.310786,7.88487 5.029788,14.00219 8.156658,19.30377 -1.224995,2.85368 -7.884863,19.16769 -6.253392,32.48987 -3.806533,1.08579 -7.612718,2.03933 -11.28318,2.9894 -0.139204,0 -0.139204,0 -0.139204,-0.1392 -2.039339,-2.31079 -6.660911,-8.70025 -8.835974,-17.94444 -2.310786,-11.41891 -0.678619,-22.56636 4.757993,-33.44168 m 69.330552,61.8553 h -0.139204 c -17.264776,8.02059 -28.68368,8.15631 -30.315151,8.15631 -8.292382,-5.70945 -15.769029,-11.96284 -20.119154,-19.71128 0.278408,-0.27841 0.407172,-0.67862 0.278408,-1.0858 -1.903615,-13.32251 6.389115,-30.99481 6.933055,-32.08234 8.292382,-3.12513 15.633305,-5.02979 23.925688,-5.70945 l 25.421075,25.01322 c -1.63217,8.42845 -3.260843,16.85656 -5.981585,25.42108 m 8.836305,-27.59615 -0.27841,-0.27841 -25.0132,-25.82895 c 1.221515,-8.02059 2.717958,-16.04117 5.437657,-23.78996 1.903614,-1.08579 12.642507,-6.52519 32.897713,-7.06878 h 0.13921 c 8.29238,5.30158 15.36116,12.50643 19.03162,18.48803 -0.1392,0.1392 -0.1392,0.27841 -0.1392,0.40717 0,0.27841 0.67862,16.1769 -7.06878,31.94627 v 0.13921 c -9.10812,2.44651 -17.6723,4.62227 -25.01322,5.98159 m 37.65468,15.76903 c -1.90361,-6.79698 -4.89372,-13.59396 -9.37991,-20.39095 8.02058,-16.44904 7.34092,-31.81055 7.34092,-32.21841 2.58223,-0.95007 6.25304,-1.76789 11.82677,-1.76789 v 0.1392 c 0.13921,0.1392 0.13921,0.27841 0.27841,0.40717 0,0 0.27841,0.27841 0.67862,0.95007 0.5429,0.67862 1.22499,1.63217 2.03934,2.71796 1.08579,1.76789 3.26085,5.16551 5.16586,8.97204 0.40717,0.81435 0.67862,1.76789 1.08579,2.58224 0.1392,0.2784 0.27841,0.54289 0.27841,0.95006 2.03934,10.05958 2.17506,21.47883 -2.03934,33.16988 -0.27841,0.40717 -0.40717,0.67862 -0.67862,1.08579 -0.27841,0 -0.67862,0 -0.95007,0.27841 -4.35012,3.12513 -14.54577,3.12513 -15.6333,3.12513 m 24.19748,-27.73187 v -1.08579 c 0,-0.27841 0,-0.67862 -0.1392,-1.0858 v -0.67861 c -2.17507,-25.82896 -18.48803,-44.9977 -19.43984,-46.08349 -7.34058,-10.46744 -25.96468,-19.03197 -33.71347,-20.25523 -9.10812,-5.30193 -31.402319,-5.98159 -46.083469,1.22152 -13.457895,2.44651 -24.469279,12.91465 -29.770863,18.8959 -8.020587,8.70025 -13.458243,18.48803 -13.866111,25.01322 -10.875312,21.47883 -5.437656,40.64757 1.085791,53.28729 2.039339,17.1287 33.305601,41.59763 47.579928,43.2298 1.632166,0.67862 10.467444,4.4862 22.02242,4.4862 6.933044,0 14.817554,-1.36072 22.973864,-5.30193 24.74142,-0.81435 42.82263,-30.85875 44.4548,-44.17987 3.94226,-9.65171 5.30158,-18.8959 4.89371,-27.46008"
     fill="#2b70bf"
     id="path29"
     style="stroke-width:1.00001" />
</svg>
