<?xml version="1.0" encoding="utf-8"?>
<svg version="1.1" id="Ebene_1" xmlns="http://www.w3.org/2000/svg" xmlns:xlink="http://www.w3.org/1999/xlink" x="0px" y="0px"
	 width="659.19971px" height="856.64355px" viewBox="0 0 95.3 123.7" style="enable-background:new 0 0 95.3 123.7;" xml:space="preserve">
<style type="text/css">
	.st0{stroke:#000000;stroke-width:0.951;stroke-miterlimit:2.613;}
	.st1{fill:#E30613;}
	.st2{fill:#FFE700;stroke:#000000;stroke-width:0.951;stroke-miterlimit:2.613;}
	.st3{fill:#F7F7F8;}
	.st4{fill-rule:evenodd;clip-rule:evenodd;fill:#E30613;}
</style>
<path class="st0" d="M0.5,0.5v78.2h0c0.6,24.7,21.7,44.5,47.1,44.5c25.5,0,46.3-19.9,47.1-44.5h0v-1.4v-1.6V0.5H0.5z"/>
<path id="Pfad_332" class="st1" d="M47.1,54.9c12.3,0,22.3,9.4,22.3,20.9s-10,20.9-22.3,20.9s-22.3-9.4-22.3-20.9
	S34.8,54.9,47.1,54.9z"/>
<path id="Pfad_333" class="st2" d="M44.5,36.8h6.6v14.4h-6.6V36.8z"/>
<path id="Pfad_334" class="st2" d="M22.8,82.7l2.5,5.7L11.1,94l-2.5-5.7L22.8,82.7z"/>
<path id="Pfad_335" class="st2" d="M27.2,91.4l4.8,4.2l-10.3,10.6l-4.8-4.1L27.2,91.4z"/>
<path id="Pfad_336" class="st2" d="M59.8,38.8l6,2.5l-6.2,13.2l-6-2.5L59.8,38.8z"/>
<path id="Pfad_337" class="st2" d="M84.1,59.2l2.3,5.7L72.1,70l-2.3-5.7L84.1,59.2z"/>
<path id="Pfad_338" class="st2" d="M74.6,46.6l4.2,4.8L67,60.6l-4.2-4.8L74.6,46.6z"/>
<path id="Pfad_339" class="st2" d="M55.7,100.1l6.2-1.9l4.7,13.8l-6.2,1.9L55.7,100.1z"/>
<path id="Pfad_340" class="st2" d="M64.1,95.8l4.3-4.7l11.6,9.5l-4.4,4.6L64.1,95.8z"/>
<path id="Pfad_341" class="st2" d="M70.5,88.8l1.9-5.9L87,87.2l-1.9,5.9L70.5,88.8z"/>
<path id="Pfad_342" class="st2" d="M73.1,79.4l0.1-6.1l15.3,0.1l-0.1,6.1L73.1,79.4z"/>
<path id="Pfad_343" class="st2" d="M35.3,97.6l6,2.4l-5.9,13.3l-6-2.4L35.3,97.6z"/>
<path id="Pfad_344" class="st2" d="M30.4,40.6l6.2-2.1l5.2,13.6l-6.1,2L30.4,40.6z"/>
<path id="Pfad_345" class="st2" d="M16.9,49.8l4.7-4.2l10.6,10.3l-4.7,4.3L16.9,49.8z"/>
<path id="Pfad_346" class="st2" d="M8.5,63.6l2.6-5.7l14.1,5.7l-2.6,5.7L8.5,63.6z"/>
<path id="Pfad_347" class="st2" d="M6.9,79.5l-0.1-6.2l15.4-0.1l0.1,6.2L6.9,79.5z"/>
<path id="Pfad_348" class="st3" d="M44.4,89.9H50v16.2h-5.6V89.9z"/>
<path id="Pfad_349" class="st3" d="M47,57c2.8,0.3,4.8,2.8,4.5,5.6c-0.3,2.8-2.8,4.8-5.6,4.5c-2.6-0.3-4.5-2.4-4.5-5
	C41.3,59.2,43.8,57,47,57z"/>
<path id="Pfad_350" class="st3" d="M38.2,63.9c3.5,0,6.3,2.3,6.3,5c0,2.8-2.8,5-6.3,5s-6.3-2.3-6.3-5S34.7,63.9,38.2,63.9z"/>
<path id="Pfad_351" class="st3" d="M58.6,74.2c3.5,0,6.3,2.3,6.3,5s-2.8,5-6.3,5s-6.3-2.3-6.3-5S55.2,74.2,58.6,74.2z"/>
<path id="Pfad_352" class="st3" d="M55,64.6c3.5,0,6.3,2.3,6.3,5s-2.8,5-6.3,5s-6.3-2.3-6.3-5S51.6,64.6,55,64.6z"/>
<path id="Pfad_353" class="st3" d="M54.7,83.8c3.5,0,6.3,2.3,6.3,5s-2.8,5-6.3,5s-6.3-2.3-6.3-5S51.3,83.8,54.7,83.8z"/>
<path id="Pfad_354" class="st3" d="M36.1,73.9c3.5,0,6.3,2.3,6.3,5s-2.8,5-6.3,5s-6.3-2.3-6.3-5S32.6,73.9,36.1,73.9z"/>
<path id="Pfad_355" class="st3" d="M40.9,83.1c3.5,0,6.3,2.3,6.3,5s-2.8,5-6.3,5s-6.3-2.3-6.3-5S37.4,83.1,40.9,83.1z"/>
<path id="Pfad_356" class="st3" d="M46.9,65.1c5.9,0,10.8,5.6,10.8,12.4s-4.8,12.4-10.8,12.4s-10.8-5.6-10.8-12.4S41,65.1,46.9,65.1
	z"/>
<path id="Pfad_357" class="st3" d="M47.1,89.1c1.8,0,3.2,0.9,3.2,2s-1.4,2-3.2,2s-3.2-0.9-3.2-2S45.3,89.1,47.1,89.1z"/>
<path id="Pfad_358" class="st3" d="M44.5,106.1l-5.6,6.1l5.7-2.1l3.6,7.6l1.9-7.5l5.4,2.1l-5.5-6.2H44.5z"/>
<path id="Pfad_359" class="st3" d="M44.5,105.8H50v0.7h-5.5V105.8z"/>
<g>
	<path class="st4" d="M89.9,26.4c0,0.4,0.3,0.8,0.8,0.8c0.4,0,0.8-0.3,0.8-0.8c0-0.4-0.4-0.8-0.8-0.8C90.3,25.6,89.9,26,89.9,26.4
		L89.9,26.4z M87.8,18.4l-1.5,5.7l-0.2,0.8L86,24l-1.5-5.7l-1.2,0.4l2.2,8.3h1.3l2.2-8.3L87.8,18.4L87.8,18.4z M80.6,26.4
		c0,0.4,0.3,0.8,0.8,0.8c0.4,0,0.8-0.3,0.8-0.8c0-0.4-0.4-0.8-0.8-0.8C81,25.6,80.6,26,80.6,26.4L80.6,26.4z M76.8,20.9
		c0.6,0,1.2,0.5,1.2,1.1v0.7h-2.3V22C75.7,21.4,76.2,20.9,76.8,20.9L76.8,20.9z M76.8,19.8c-1.3,0-2.4,1.1-2.4,2.4v2.7
		c0,1.3,1.2,2.3,2.5,2.3c1.2,0,2.4-1.1,2.4-2.3H78c0,0.6-0.6,1.1-1.2,1.1c-0.6,0-1.1-0.4-1.2-1.1v-1.1h3.6v-1.7
		C79.2,20.8,78.1,19.8,76.8,19.8L76.8,19.8z M66.8,19.8l-1.5,1.5v-3.8h-1.3V27h1.3v-4l1.9-2c0.6,0,1,0.5,1,1.1V27h1.3v-4.9
		C69.5,20.8,68.5,19.8,66.8,19.8L66.8,19.8L66.8,19.8z M61.7,24.9L61.7,24.9c0,0.7-0.6,1.1-1.2,1.1c-0.6,0-1.2-0.5-1.2-1v-3
		c0-0.6,0.5-1.1,1.1-1.1h0.1c0.5,0,1,0.4,1.1,0.9l1.2-0.4c-0.3-1-1.2-1.7-2.3-1.7c-1.3,0-2.4,1.1-2.4,2.4v2.7c0,1.2,1.1,2.3,2.4,2.3
		c1.2,0,2.2-0.9,2.4-2.1L61.7,24.9L61.7,24.9z M54.7,24.9c0,0.6-0.6,1.1-1.2,1.1c-0.6,0-1.1-0.5-1.2-1.1c0-0.1,0-0.2,0-0.2l2.3-1
		V24.9L54.7,24.9z M51,24.8c0,1.3,1,2.4,2.3,2.4c0.4,0,1.3-0.1,1.9-1l0,0l0.5,0.9l1.1-0.5L55.9,25v-2.8c0-1.2-1-2.3-2.2-2.4h-0.3
		c-1.2,0-2.3,1.1-2.3,2.3h1.2c0-0.6,0.5-1.1,1.2-1.1c0.7,0,1.2,0.5,1.2,1.3v0.2L51.2,24C51,24.3,51,24.8,51,24.8L51,24.8L51,24.8z
		 M46.8,26.1c-0.6,0-1.1-0.5-1.2-1.1v-3.1c0-0.6,0.6-1,1.2-1c0.6,0,1.1,0.5,1.2,1V25C47.9,25.6,47.3,26.1,46.8,26.1L46.8,26.1z
		 M44.4,19.8l-1.1,0.5l1,2.1v7.1h1.3v-2.6c0.3,0.3,0.8,0.4,1.1,0.4c1.4,0,2.5-1.1,2.5-2.4V22c0-1.2-1.2-2.3-2.5-2.3
		c-0.7,0-1.4,0.4-1.8,0.9l0,0.1L44.4,19.8L44.4,19.8z M38.1,25.7c0.3,0.8,1.1,1.5,2.1,1.5c1.2,0,2.2-1,2.2-2.2
		c0-1.1-0.9-2.1-2.2-2.2c-0.5-0.1-1-0.4-1-0.9c0-0.5,0.4-1,1-1c0.4,0,0.8,0.2,0.9,0.6l1.1-0.4c-0.4-0.8-1.2-1.3-2.1-1.3
		c-1.2,0-2.2,0.9-2.2,2.1c0,1.2,0.7,2,2.2,2.1c0.6,0,1,0.5,1,1c0,0.5-0.5,1-1,1c-0.5,0-0.9-0.3-1-0.7L38.1,25.7L38.1,25.7z
		 M35.1,24.9c0,0.6-0.6,1.1-1.2,1.1c-0.6,0-1.1-0.5-1.2-1.1c0-0.1,0-0.2,0-0.2l2.3-1V24.9L35.1,24.9z M31.4,24.8
		c0,1.3,1,2.4,2.3,2.4c0.4,0,1.3-0.1,1.9-1l0,0l0.5,0.9l1.1-0.5L36.3,25v-2.8c0-1.2-1-2.3-2.2-2.4h-0.3c-1.2,0-2.3,1.1-2.3,2.3h1.2
		c0-0.6,0.5-1.1,1.2-1.1c0.7,0,1.2,0.5,1.2,1.3v0.2L31.6,24C31.4,24.3,31.4,24.8,31.4,24.8L31.4,24.8L31.4,24.8z M27,17.4
		c-1.2,0-2.3,0.9-2.3,2.2V27H26v-7.4c0-0.6,0.4-1,1.1-1c0.6,0,1,0.5,1,1.1c0,0.7-0.4,1.1-1.1,1.3l-0.2,0.9c0.9,0.7,1.9,1.4,1.9,2.7
		c0,1-0.7,1.3-1.5,1.3h-0.2V27c0,0,0.1,0,0.2,0c1.3,0,2.8-0.7,2.8-2.3c0-1.4-0.7-2.4-1.7-3.2c0.7-0.4,1.1-1.1,1.1-1.9
		c0-1.1-0.8-2.1-2-2.2H27L27,17.4z M20.1,20.9h0.1c0.6,0,1.1,0.5,1.1,1v3c0,0.6-0.6,1.1-1.2,1.1c-0.6,0-1.2-0.5-1.2-1v-3
		C19,21.4,19.5,20.9,20.1,20.9L20.1,20.9z M20.1,19.8c-1.3,0-2.4,1.1-2.4,2.4v2.7c0,1.2,1.1,2.3,2.4,2.3c1.3,0,2.4-1.1,2.4-2.4v-2.7
		C22.6,20.8,21.5,19.8,20.1,19.8L20.1,19.8z M16.1,19.8l-1.5,1.7v-1.5h-1.3v7h1.3v-3.9l2.3-2.6L16.1,19.8L16.1,19.8z M8.9,23.6h0.9
		v2.3C9.6,25.9,9.2,26,8.6,26c-0.6,0-1.4,0-2.2-0.7c-0.9-0.7-1.1-1.7-1.1-2.6c0-1.7,1-3.3,2.7-3.3c1,0,1.8,0.5,1.8,1.5H11
		c0-1.7-1.3-2.6-3.2-2.6c-2.2,0-3.8,2.1-3.8,4.3c0,1.4,0.5,2.8,1.8,3.7c0.8,0.5,1.7,0.8,2.8,0.8c0.5,0,1.2-0.1,1.6-0.2l0.7-0.2v-4.4
		H8.9V23.6L8.9,23.6z M87.3,7.1h1V13h1.3V7.1h1.5L91.3,6h-1.8l0-0.4c0-0.6,0.6-1.1,1.1-1.1c0.3,0,0.5,0.1,0.7,0.2l0.7-0.9
		c-0.4-0.3-0.9-0.4-1.4-0.4c-1.3,0-2.4,1-2.4,2.3l0,0.3h-0.7L87.3,7.1L87.3,7.1z M83,6.9h0.1c0.6,0,1.1,0.5,1.1,1v3
		c0,0.6-0.6,1.1-1.2,1.1c-0.6,0-1.2-0.5-1.2-1V8C81.8,7.4,82.3,6.9,83,6.9L83,6.9z M83,5.8c-1.4,0-2.5,1.1-2.5,2.4v2.7
		c0,1.2,1.2,2.3,2.5,2.3c1.3,0,2.5-1.1,2.5-2.4V8.1C85.5,6.8,84.4,5.8,83,5.8L83,5.8z M75.4,5.8l-1.5,1.5V3.5h-1.3V13h1.3V9l1.9-2
		c0.6,0,1,0.5,1,1.1V13h1.3V8.1C78.1,6.8,77.1,5.8,75.4,5.8L75.4,5.8L75.4,5.8z M65.2,5.8l-1.1,0.5l1.1,2.1V13h1.3V8.1
		C66.5,7.5,67,7,67.6,7c0.7,0,1.3,0.4,1.3,1.1V13h1.3V8.1c0-1.2-1.2-2.3-2.5-2.3c-0.7,0-1.5,0.4-1.9,0.9L65.2,5.8L65.2,5.8z
		 M60.3,6.9c0.6,0,1.2,0.5,1.2,1.1v0.7h-2.4V8C59.1,7.4,59.6,6.9,60.3,6.9L60.3,6.9z M60.2,5.8c-1.4,0-2.4,1.1-2.4,2.4v2.7
		c0,1.3,1.2,2.3,2.5,2.3c1.2,0,2.4-1.1,2.4-2.3h-1.2c0,0.6-0.6,1.1-1.2,1.1c-0.6,0-1.1-0.4-1.2-1.1V9.8h3.7V8.1
		C62.7,6.8,61.6,5.8,60.2,5.8L60.2,5.8z M50.6,5.8l-1.1,0.5l1.1,2.1V13h1.3V8.1C51.9,7.5,52.4,7,53,7c0.7,0,1.3,0.4,1.3,1.1V13h1.3
		V8.1c0-1.2-1.2-2.3-2.5-2.3c-0.7,0-1.5,0.4-1.9,0.9L50.6,5.8L50.6,5.8z M43.1,5.8L42,6.3l1.1,2.1V13h1.3V8.1c0-0.6,0.5-1.1,1.1-1.1
		c0.7,0,1.3,0.4,1.3,1.1V13h1.3V8.1c0-1.2-1.2-2.3-2.5-2.3c-0.7,0-1.5,0.4-1.9,0.9L43.1,5.8L43.1,5.8z M37.8,6.9H38
		c0.6,0,1.1,0.5,1.1,1v3c0,0.6-0.6,1.1-1.2,1.1c-0.6,0-1.2-0.5-1.2-1V8C36.7,7.4,37.2,6.9,37.8,6.9L37.8,6.9z M37.9,5.8
		c-1.4,0-2.5,1.1-2.5,2.4v2.7c0,1.2,1.2,2.3,2.5,2.3c1.3,0,2.5-1.1,2.5-2.4V8.1C40.4,6.8,39.3,5.8,37.9,5.8L37.9,5.8z M30.4,9.3
		c1.5,0.3,1.7,0.9,1.7,1.4c0,0.8-0.7,1.3-1.5,1.3c-0.6,0-1.1-0.3-1.4-0.8l-1.2,0.6c0.5,0.8,1.4,1.4,2.5,1.4c1.5,0,2.8-1.1,2.8-2.6
		c0-1.2-0.9-2-2.3-2.4c-1.2-0.3-1.6-0.7-1.6-1.3c0-0.8,0.5-1.3,1.4-1.3c0.6,0,1,0.3,1.3,0.7l1.1-0.5c-0.5-0.8-1.4-1.3-2.4-1.3
		c-1.5,0-2.6,1.1-2.6,2.6C28.2,8.2,29.2,8.9,30.4,9.3L30.4,9.3z M15.5,9.7h0.9v2.3c-0.2,0.1-0.6,0.2-1.2,0.2c-0.6,0-1.4,0-2.2-0.7
		c-0.9-0.7-1.2-1.7-1.2-2.6c0-1.7,1-3.3,2.7-3.3c1,0,1.8,0.5,1.8,1.5h1.3c0-1.7-1.4-2.6-3.2-2.6c-2.3,0-3.9,2.1-3.9,4.3
		c0,1.4,0.5,2.8,1.8,3.7c0.8,0.5,1.7,0.8,2.9,0.8c0.5,0,1.2-0.1,1.7-0.2l0.8-0.2V8.5h-2.2V9.7L15.5,9.7z M6,9.4
		c1.5,0.3,1.7,0.9,1.7,1.4c0,0.8-0.7,1.3-1.5,1.3c-0.6,0-1.1-0.3-1.4-0.8l-1.2,0.6c0.5,0.8,1.4,1.4,2.5,1.4c1.5,0,2.8-1.1,2.8-2.6
		c0-1.2-0.9-2-2.3-2.4C5.4,7.9,5,7.5,5,6.9c0-0.8,0.5-1.3,1.4-1.3c0.6,0,1,0.3,1.3,0.7l1.1-0.5C8.3,5,7.4,4.5,6.4,4.5
		C4.9,4.5,3.7,5.5,3.7,7C3.7,8.4,4.8,9.1,6,9.4L6,9.4z M1.8,1.7l91.5,0l0,29.4H1.8V1.7z"/>
</g>
</svg>
