<?xml version="1.0" encoding="UTF-8" standalone="no"?>
<!-- Created with Inkscape (http://www.inkscape.org/) -->

<svg
   xmlns:dc="http://purl.org/dc/elements/1.1/"
   xmlns:cc="http://creativecommons.org/ns#"
   xmlns:rdf="http://www.w3.org/1999/02/22-rdf-syntax-ns#"
   xmlns:svg="http://www.w3.org/2000/svg"
   xmlns="http://www.w3.org/2000/svg"
   version="1.1"
   width="744.09448"
   height="955"
   id="svg2985"
   xml:space="preserve"><metadata
     id="metadata2991"><rdf:RDF><cc:Work
         rdf:about=""><dc:format>image/svg+xml</dc:format><dc:type
           rdf:resource="http://purl.org/dc/dcmitype/StillImage" /><dc:title></dc:title></cc:Work></rdf:RDF></metadata><defs
     id="defs2989" /><g
     transform="matrix(1.25,0,0,-1.25,0,955)"
     id="g2993"><g
       transform="matrix(2.7318619,0,0,2.7318619,-115.15373,-252.59067)"
       id="g3013"><path
         d="m 49.5984,328.2647 14.1545,0 1.042,3.2117 -19.7297,14.375 24.4185,0 7.5591,23.2385 7.5444,-23.2385 24.4185,0 -19.73,-14.375 1.0429,-3.2117 47.2218,0 1.0624,3.2117 -19.7297,14.375 24.4182,0 7.5595,23.2385 7.5444,-23.2385 24.4185,0 -19.7297,-14.375 1.0428,-3.2117 47.4426,0 1.0426,3.2117 -19.73,14.375 24.4185,0 7.5595,23.2385 7.5441,-23.2385 24.4188,0 -19.73,-14.375 1.0426,-3.2117 13.9929,0 0,-92.5852 L 150.8312,96.8777 49.5984,235.6795 l 0,92.5852 z"
         id="path2995"
         style="fill:#176fc1;fill-opacity:1;fill-rule:evenodd;stroke:none" /><path
         d="m 53.2151,324.648 13.8906,0 2.8913,8.5232 -11.3255,8.2519 14.017,0 4.3393,13.3396 4.3308,-13.3396 14.0173,0 -11.3258,-8.2519 2.8207,-8.5232 54.1701,0 2.7734,8.5232 -11.3255,8.2519 14.017,0 4.3393,13.3396 4.3308,-13.3396 14.017,0 -11.3255,-8.2519 2.7986,-8.5232 54.5763,0 2.7632,8.5232 -11.3255,8.2519 14.017,0 4.3393,13.3396 4.3308,-13.3396 14.0173,0 -11.3258,-8.2519 2.7759,-8.5232 13.6772,0 0,-86.8836 -97.6686,-132.7609 -97.628,132.7609 0,86.8836 z"
         id="path2997"
         style="fill:#ffffff;fill-opacity:1;fill-rule:evenodd;stroke:none" /><path
         d="m 131.3994,137.9605 -74.5707,101.2765 74.5707,0 0,-101.2765 z"
         id="path2999"
         style="fill:#176fc1;fill-opacity:1;fill-rule:evenodd;stroke:none" /><path
         d="m 170.2794,137.9605 74.5711,101.2765 -74.5711,0 0,-101.2765 z"
         id="path3001"
         style="fill:#176fc1;fill-opacity:1;fill-rule:evenodd;stroke:none" /><path
         d="m 56.8318,280.4995 188.0634,0 0,-37.6126 -188.0634,0 0,37.6126 z"
         id="path3003"
         style="fill:#176fc1;fill-opacity:1;fill-rule:evenodd;stroke:none" /><path
         d="m 62.7931,249.7173 6.1815,0 0,9.1391 9.7707,0 0,4.7858 -9.7707,0 0,4.852 11.2994,0 0,4.9519 -17.4809,0 0,-23.7288 z m 20.9321,0 6.1815,0 0,8.6405 4.686,0 c 2.891,0 3.2902,-2.459 3.4563,-4.8518 0.0663,-0.665 0.1661,-2.9911 0.6979,-3.7887 l 6.1149,0 c -0.8309,0.864 -0.9307,4.3537 -0.997,5.3504 -0.1995,2.26 -0.9306,5.085 -3.4563,5.6831 l 0,0.0664 c 2.4925,0.964 3.7222,3.3899 3.7222,5.9488 0,4.7857 -4.121,6.6801 -8.3083,6.6801 l -12.0972,0 0,-23.7288 z m 6.1815,18.7769 4.9184,0 c 1.7283,0 3.1241,-0.7976 3.1241,-2.5588 0,-1.7949 -0.9972,-2.7918 -2.8582,-2.7918 l -5.1843,0 0,5.3506 z m 19.1039,-18.7769 19.2424,0 0,5.3172 -13.0609,0 0,4.5198 11.6316,0 0,4.7858 -11.6316,0 0,4.1541 12.7287,0 0,4.9519 -18.9102,0 0,-23.7288 z m 23.7234,0 6.1815,0 0,23.7288 -6.1815,0 0,-23.7288 z m 17.941,10.402 4.9519,0 c 1.8609,0 3.3233,-0.6979 3.3233,-2.7916 0,-1.9607 -1.3626,-2.6586 -3.3233,-2.6586 l -4.9519,0 0,5.4502 z m -6.1815,-10.402 11.3993,0 c 5.0845,0 9.2386,1.7282 9.2386,7.3777 0,2.6921 -1.5616,4.8855 -4.0875,5.6166 1.8609,0.9306 3.124,2.6586 3.124,4.7857 0,4.9516 -4.4864,6.0151 -8.5742,5.9488 l -11.1002,0 0,-23.7288 z m 6.1815,18.943 4.7858,0 c 1.296,0 2.5256,-0.5649 2.5256,-2.2932 0,-1.6948 -1.4624,-2.2598 -2.5256,-2.2598 l -4.7858,0 0,4.553 z m 18.4394,-18.943 19.2424,0 0,5.3172 -13.0609,0 0,4.5198 11.6317,0 0,4.7858 -11.6317,0 0,4.1541 12.7287,0 0,4.9519 -18.9102,0 0,-23.7288 z m 23.7234,0 6.1815,0 0,8.6405 4.686,0 c 2.8913,0 3.2902,-2.459 3.4563,-4.8518 0.0663,-0.665 0.1661,-2.9911 0.6981,-3.7887 l 6.1149,0 c -0.8311,0.864 -0.9306,4.3537 -0.9972,5.3504 -0.1993,2.26 -0.9303,5.085 -3.4563,5.6831 l 0,0.0664 c 2.4928,0.964 3.7222,3.3899 3.7222,5.9488 0,4.7857 -4.121,6.6801 -8.3083,6.6801 l -12.0972,0 0,-23.7288 z m 6.1815,18.7769 4.9187,0 c 1.7283,0 3.1238,-0.7976 3.1238,-2.5588 0,-1.7949 -0.9969,-2.7918 -2.8579,-2.7918 l -5.1846,0 0,5.3506 z m 40.3404,-5.7826 -9.97,0 0,-4.5862 4.3203,0 c -0.3322,-2.1603 -2.3927,-3.5892 -5.4502,-3.5892 -3.988,0 -5.5167,3.5226 -5.5167,7.0455 0,3.5226 1.5287,7.0455 5.5167,7.0455 2.4925,0 4.4864,-1.2297 4.686,-3.257 l 6.1812,0 c -0.5646,5.9488 -5.8158,8.5742 -10.7342,8.5742 -7.1785,0 -11.8313,-5.4833 -11.8313,-12.3627 0,-6.8794 4.6528,-12.3684 11.8313,-12.3684 2.1934,0 4.985,0.803 6.6135,3.0962 l 0.3654,-2.5922 3.988,0 0,12.9943 z"
         id="path3005"
         style="fill:#ffffff;fill-opacity:1;fill-rule:nonzero;stroke:none" /><path
         d="m 56.4148,296.3228 c 0.19,-11.8259 22.1069,-13.3387 29.7922,-13.3387 15.0857,0 31.31,3.1207 31.31,12.7684 0,6.7946 -9.4878,9.2324 -19.0706,10.6846 -9.5825,1.4525 -19.2603,2.0231 -19.6398,4.6681 0,2.075 4.6491,2.4899 7.4953,2.4899 2.0875,0 4.4595,-0.2593 6.1671,-0.9337 1.7079,-0.6225 2.8465,-1.5562 2.4673,-2.9565 l 19.7342,0 c -0.5689,9.0249 -13.5675,12.0855 -28.2736,12.0855 -13.9473,0 -27.3254,-3.6828 -27.3254,-12.2411 0,-7.469 12.2397,-9.0771 22.9609,-10.7368 11.6699,-1.8153 14.6114,-2.3341 14.6114,-4.2531 0,-2.7491 -5.2185,-3.3716 -8.634,-3.3716 -3.8903,0 -8.4444,0.4669 -9.9624,2.6972 -0.4745,0.6744 -0.7588,1.5041 -0.7588,2.4378 l -20.8738,0 z"
         id="path3007"
         style="fill:#176fc1;fill-opacity:1;fill-rule:nonzero;stroke:none" /><path
         d="m 171.4314,283.8745 13.1882,0 0,20.3842 -27.7047,0 0,-7.9359 9.2036,0 c -1.0438,-2.749 -5.9775,-4.0975 -10.8165,-4.0975 -12.7139,0 -15.2756,6.0687 -15.2756,9.5437 0,2.5416 -0.4745,10.7887 13.8523,10.7887 4.9337,0 9.1086,-1.9194 9.8677,-4.6163 l 20.0194,0 c -3.0364,8.7137 -13.9473,13.849 -31.2151,13.849 -15.2753,0 -33.3978,-5.6537 -33.3978,-19.762 0,-10.5293 12.3344,-19.0443 32.3541,-19.0443 7.4004,0 14.6115,1.4091 19.2606,4.6769 l 0.6638,-3.7865 z"
         id="path3009"
         style="fill:#176fc1;fill-opacity:1;fill-rule:nonzero;stroke:none" /><path
         d="m 247.18,320.9085 -21.4427,0 -10.9111,-22.4591 -0.1897,0 -11.101,22.4591 -21.0787,0 20.2249,-37.034 23.3405,0 21.1578,37.034 z"
         id="path3011"
         style="fill:#176fc1;fill-opacity:1;fill-rule:nonzero;stroke:none" /></g></g></svg>