<?xml version="1.0" encoding="UTF-8"?>
<svg width="522.78pt" height="731.98pt" version="1.2" viewBox="0 0 522.78 731.98" xmlns="http://www.w3.org/2000/svg" xmlns:cc="http://creativecommons.org/ns#" xmlns:dc="http://purl.org/dc/elements/1.1/" xmlns:rdf="http://www.w3.org/1999/02/22-rdf-syntax-ns#">
 <metadata>
  <rdf:RDF>
   <cc:Work rdf:about="">
    <dc:format>image/svg+xml</dc:format>
    <dc:type rdf:resource="http://purl.org/dc/dcmitype/StillImage"/>
    <dc:title/>
   </cc:Work>
  </rdf:RDF>
 </metadata>
 <g>
  <path d="m71.844 0-66.32 116.43s92.375 79.793 63.953 152.26c-16.578 41.527-52.109 47.227-69.477 49.668 19.738 296.38 278.7 413.62 278.7 413.62s235.5-117.35 243.17-360.7c7.1055-225.54-30-368.84-30-368.84s-94.742 46.41-213.17 46.41-206.86-48.852-206.86-48.852" fill="#211e1e"/>
  <path d="m462.71 29.129c-32.422 12.879-100.82 35.547-180.68 35.547-111.53 0-203.87-44.324-203.87-44.324l-51.316 96.078s85.266 71.652 58.152 157.75c-17.098 44.18-48.113 57.809-64.469 60.137 4.5273 60.977 19.676 113.4 40.523 158.1zm-332.72 568.45c70.848 80.719 149.5 114.04 149.5 114.04s221.86-94.449 229.23-357.44c2.1055-74.941-0.35157-137.93-4.457-188.31z" fill="#0a8ad1"/>
  <path d="m462.71 29.129c-32.422 12.879-100.82 35.547-180.67 35.547-111.53 0-203.88-44.324-203.88-44.324l-51.316 96.078s85.266 71.652 58.152 157.75c-17.098 44.18-48.113 57.809-64.469 60.137 4.5273 60.977 19.676 113.4 40.523 158.1z" fill="#ee3021"/>
  <path d="m500.29 149.85c-5.1133-59.488-12.453-100.61-16.953-122l-414.11 477.64c16.262 30.062 34.969 56.246 54.391 78.82z" fill="#fff"/>
 </g>
 <g fill="#211e1e">
  <path d="m137.34 542.47c5.8594-0.76562 11.578-4.3438 17.16-10.738 3.8359-4.3945 6.4453-8.6172 7.8242-12.672 1.375-4.0508 1.5391-8.0195 0.49219-11.91-1.0469-3.8906-2.9766-7.1367-5.7852-9.75-3.1016-2.8789-6.293-4.6211-9.5781-5.2344-3.2812-0.61328-6.5703-0.28906-9.8633 0.96094-3.2969 1.2539-7.6797 3.8359-13.156 7.7461-5.4766 3.9141-9.3008 6.0274-11.473 6.3398-1.7109 0.24609-3.1445-0.16797-4.3047-1.2461-1.2695-1.1797-1.8164-2.6641-1.6289-4.4492 0.28516-2.7734 1.7227-5.6484 4.3125-8.6172 2.5117-2.875 4.9453-4.5195 7.3047-4.9297 2.3594-0.41406 4.9883 0.33203 7.8945 2.2344l8.4805-10.617c-4.6445-4.0234-9.7188-5.6836-15.223-4.9805-5.5 0.70312-11.02 4.2305-16.562 10.578-3.3945 3.8906-5.7266 7.7344-6.9883 11.539-1.2617 3.8047-1.4414 7.4492-0.54297 10.93 0.89844 3.4805 2.5977 6.3789 5.0977 8.6992 3.8828 3.6055 8.5273 5.1055 13.938 4.5078 3.8476-0.42579 8.8164-2.7656 14.914-7.0195 4.7422-3.3047 7.8359-5.3672 9.2812-6.1914 2.1289-1.1875 3.9062-1.7539 5.332-1.6992 1.4258 0.0547 2.7188 0.61719 3.8789 1.6953 1.8086 1.6797 2.6562 3.9766 2.5508 6.8984-0.10547 2.9219-1.5938 6.0273-4.4688 9.3164-2.7109 3.1055-5.6211 4.8672-8.7344 5.2891-3.1172 0.41797-6.5508-0.57422-10.305-2.9805l-7.7422 10.809c6.0703 4.4297 12.035 6.2617 17.895 5.4922m60.336-61.996-40.754-37.84 13.078-14.977-8.2969-7.7031-35.098 40.199 8.2969 7.7031 13.105-15.008 40.75 37.84zm52.422-60.039-8.2656-7.6719-24.672 28.258-13.352-12.395 22.172-25.398-8.2617-7.6719-22.176 25.395-10.871-10.098 23.828-27.293-8.2969-7.7031-32.746 37.508 49.047 45.547zm16.207-18.562-49.051-45.547-8.918 10.215 49.051 45.547zm16.871-19.324-31.988-29.699 49.793 9.3086 8.9453-10.25-49.051-45.547-8.2812 9.4922 32.754 30.414-50.832-9.7109-8.6758 9.9375 49.051 45.547zm36.211-41.473 15.035-17.219c5.6367-6.5508 9.1094-10.762 10.418-12.629 2.082-2.9844 3.3008-5.9883 3.6562-9.0078 0.35547-3.0234-0.0508-6.0469-1.2266-9.0742-1.1758-3.0273-2.875-5.5781-5.1055-7.6484-2.8359-2.6289-6.0234-4.0898-9.5664-4.3828-3.5391-0.28906-7.0938 0.70313-10.656 2.9766 0.94922-3.0742 1.0234-6.1406 0.21875-9.1992-0.80078-3.0586-2.3516-5.6562-4.6523-7.7891-2.1172-1.9648-4.4805-3.2266-7.0938-3.7734-2.6094-0.55079-5.1055-0.52344-7.4883 0.0742-2.3789 0.60157-4.5898 1.7344-6.6328 3.3984-2.0391 1.668-4.8086 4.5039-8.3008 8.5039l-17.656 20.223zm-26.848-54.047c4.1992-4.8086 6.793-7.6641 7.7891-8.5742 1.6875-1.5156 3.3828-2.2656 5.082-2.2461 1.7031 0.0156 3.3125 0.73047 4.8281 2.1367 1.582 1.4727 2.4219 3.1562 2.5195 5.0586 0.0976 1.9024-0.51563 3.8203-1.8438 5.7578-0.73047 1.0664-2.8359 3.5938-6.3086 7.5703l-5.8438 6.6953-11.344-10.531zm21.586 15.734c4.0586-4.6484 6.9258-7.4492 8.6094-8.4062s3.3594-1.3281 5.0312-1.1094c1.668 0.21485 3.2383 1.0078 4.7109 2.375 1.7383 1.6133 2.7109 3.3828 2.9141 5.3008 0.20313 1.918-0.22266 3.7578-1.2812 5.5273-0.66406 1.1719-2.6016 3.6016-5.8164 7.2812l-8.2539 9.4531-13.113-12.176zm22.883-83.594-9.4297 10.797 31.848 65.25 9.457-10.832-7.4922-14.523 17.652-20.219 14.996 5.9297 9.7031-11.113zm18.859 39.879-12.238-23.734 24.285 9.9336zm67.047-57.574c-0.0312 3.5078-1.2344 6.6172-3.6055 9.332-3.2148 3.6797-7.1406 5.4492-11.781 5.3047-4.6367-0.14063-10.059-3.0938-16.262-8.8516-5.8438-5.4258-9.0508-10.52-9.6211-15.277-0.57422-4.7578 0.77734-9.0117 4.0547-12.762 2.3672-2.7148 5.1172-4.3359 8.2461-4.8672 3.1289-0.53125 6.2266 0.0859 9.293 1.8477l6.4844-12.285c-4.9297-2.4922-9.4492-3.5664-13.555-3.2109-6.918 0.57031-13.082 3.9492-18.484 10.137-6.1875 7.0859-8.918 14.902-8.1953 23.441 0.71875 8.543 5.1602 16.605 13.324 24.184 7.7188 7.168 15.691 10.656 23.918 10.461 8.2266-0.1914 15.27-3.6484 21.133-10.363 4.7422-5.4297 7.3516-11.113 7.8398-17.059 0.48438-5.9453-1.2891-12.16-5.3164-18.652l-11.691 7.0781c2.8476 4.1875 4.2539 8.0312 4.2188 11.543m39.062-23.715-21.449-19.914 17.473-20.012 21.449 19.914 8.918-10.211-49.051-45.551-8.918 10.215 19.305 17.926-17.473 20.016-19.305-17.926-8.918 10.211 49.051 45.547z"/>
  <path d="m161.85 75.719-74.609 58.625v35.418l29.211-23.203 3.9492 115.21s4.3398 28.496 37.105 25.648c14.211-33.383 15.395-37.457 15.395-37.457l-20.527-1.2188s-8.2891 0.8125-9.0781-12.215c-0.78906-13.027 0.39454-109.11 0.39454-109.92 0-0.81641 18.555-18.727 18.555-18.727z"/>
  <path d="m260.93 78.977c-0.78906 0.40625-18.551-4.4766-39.871-5.293-21.316-0.81249-44.211 10.586-46.184 31.754-1.9766 21.172 3.5508 39.898 5.5234 47.633 1.9766 7.7344 33.559 86.715 33.949 87.938 0.39844 1.2188 1.9766 3.6641 1.1875 5.2891-0.78906 1.6289-12.633 3.6641-13.816 4.0742-1.1836 0.40625-17.766 6.1055-21.715 18.727-3.9453 12.621-3.1562 21.984-3.1562 21.984s2.3672-4.0742 13.816-6.5156c11.449-2.4414 36.711-1.6289 36.711-1.6289s13.027-1.2188 15.398-13.84c2.3672-12.621-0.78906-26.465-2.7656-30.129-1.9727-3.6641-38.684-105.03-38.684-105.85 0-0.8125-6.3164-15.875-1.1875-24.426 5.1641-8.5976 9.082-8.957 13.82-9.3633 4.7344-0.40625 28.027 0.40625 28.027 0.40625z"/>
  <path d="m280.28 80.199s7.5 31.348 8.293 44.781c0.78516 13.434 0 43.969-2.7656 51.703-2.7617 7.7344-15.395 28.09-15.395 28.09l-6.3164-18.727-21.711-70.836-20.922 14.246s30.395 88.75 30.789 89.566c0.39453 0.8125 4.3438 19.133 5.1328 21.168 0.78906 2.0352 4.8477 3.6641 6.7109 2.8516 1.8633-0.81641 16.477-12.621 21.316-21.578 4.8398-8.957 23.293-29.719 25.266-63.508s-3.9492-76.41-3.9492-78.102 1.5781-4.1367-1.5781-4.1367-24.871 4.4805-24.871 4.4805"/>
  <path d="m307.88 426.31h-10.266c-1.4414 4.1484-4.0977 7.7774-7.9688 10.887-3.8711 3.1133-7.4609 5.2266-10.762 6.3398v11.84c6.2734-2.1367 11.723-5.4336 16.344-9.8906v49.172h12.652zm25.301 65.305c3.1836 2.832 7.3555 4.25 12.52 4.25 7.1719 0 12.996-2.7539 17.469-8.2656 4.4688-5.5078 6.707-14.488 6.707-26.93 0-12.227-2.1484-21.012-6.4375-26.352-4.293-5.3398-9.7852-8.0078-16.48-8.0078-6.1524 0-11.215 2.1133-15.195 6.3359-3.9766 4.2266-5.9648 9.793-5.9648 16.695 0 6.6211 1.8828 12 5.6523 16.133 3.7656 4.1328 8.2461 6.1992 13.438 6.1992 4.7734 0 8.75-1.9024 11.934-5.7109-0.51172 7.8008-1.6836 12.938-3.5156 15.414-1.8281 2.4766-4.0508 3.7148-6.6602 3.7148-2.0703 0-3.7383-0.61718-5-1.8555-1.2578-1.2383-2.0391-3.1406-2.3398-5.7109l-12.246 1.3906c0.89844 5.6367 2.9414 9.8672 6.1211 12.699m20.016-32.477c-1.668 1.9805-3.7148 2.9688-6.1484 2.9688-2.5195 0-4.6211-1.0273-6.3008-3.0859-1.6797-2.0586-2.5234-5.2852-2.5234-9.6797 0-4.3359 0.77344-7.4531 2.3203-9.3594 1.5469-1.9023 3.4883-2.8516 5.832-2.8516 2.4609 0 4.6289 1.1562 6.5039 3.4805 1.875 2.3203 2.8164 5.5859 2.8164 9.7969 0 3.8359-0.83594 6.7461-2.5 8.7305m42.477 23.398c0.66016-1.1758 1.5234-2.3828 2.5898-3.6211 1.0664-1.2383 3.5938-3.7422 7.5859-7.5195 3.9922-3.7773 6.7539-6.6719 8.2852-8.6836 2.3125-3.0352 4-5.9375 5.0664-8.707 1.0625-2.7695 1.5977-5.6875 1.5977-8.75 0-5.3867-1.8633-9.8906-5.582-13.516-3.7227-3.6211-8.8398-5.4297-15.355-5.4297-5.9414 0-10.895 1.5625-14.855 4.6875-3.9609 3.1289-6.3203 8.2812-7.0703 15.461l12.605 1.3008c0.24219-3.8047 1.1406-6.5312 2.7031-8.1719 1.5586-1.6406 3.6602-2.457 6.3047-2.457 2.668 0 4.7617 0.78125 6.2812 2.3438 1.5117 1.5625 2.2695 3.7969 2.2695 6.707 0 2.6328-0.86719 5.293-2.6094 7.9883-1.2891 1.9492-4.7891 5.6641-10.488 11.141-7.0859 6.7812-11.828 12.223-14.23 16.324-2.3984 4.1016-3.8398 8.4414-4.3203 13.023h44.348v-12.121zm66.051-56.227h-10.266c-1.4414 4.1484-4.0977 7.7774-7.9688 10.887-3.8711 3.1133-7.457 5.2266-10.762 6.3398v11.84c6.2734-2.1367 11.723-5.4336 16.344-9.8906v49.172h12.652z"/>
  <path d="m239.29 614.62c-1.3516 1.1133-3.0195 1.6719-5 1.6719-2.9102 0-5.3438-1.0742-7.293-3.2266-1.9531-2.1524-2.9727-5.1602-3.0625-9.0312h31.695c0.17969-9.9961-1.7852-17.418-5.8984-22.262-4.1094-4.8438-9.7226-7.2695-16.836-7.2695-6.3359 0-11.57 2.3164-15.715 6.9414-4.1406 4.6289-6.2109 11.027-6.2109 19.199 0 6.8438 1.5742 12.508 4.7266 16.996 3.9922 5.6016 10.145 8.4023 18.461 8.4023 5.25 0 9.625-1.2461 13.125-3.7383 3.4922-2.4883 6.0547-6.1211 7.6758-10.887l-12.609-2.1836c-0.6875 2.4766-1.7109 4.2734-3.0586 5.3867m-15.129-18.574c-0.0312-3.5586 0.85547-6.375 2.6562-8.4492s4.082-3.1094 6.8438-3.1094c2.582 0 4.7734 0.98438 6.5703 2.9492 1.8047 1.9648 2.75 4.8359 2.8398 8.6094zm54.434 15.836h-12.652v13.047h12.652zm44.121 13.047 23.637-68.07h-14.137l-16.164 50.379-16.703-50.379h-14.453l23.594 68.07zm34.535-13.047h-12.652v13.047h12.652z"/>
 </g>
</svg>
